<svg width="60" height="60" viewBox="0 0 60 60" fill="none" xmlns="http://www.w3.org/2000/svg">
<path d="M27.5 16.6943V4.99999C27.5 2.24281 25.8179 0 23.75 0C22.8198 0 21.9214 0.475312 21.2255 1.33797L19.6118 3.32859C14.3018 9.87951 5.41265 20.8431 0.864256 26.9254C0.307617 27.6741 0 28.7646 0 29.9999C0 31.2352 0.307617 32.3257 0.864256 33.0762C5.41265 39.1569 14.3018 50.1203 19.6118 56.6714L21.2255 58.662C21.9214 59.5247 22.8198 60 23.75 60C25.8179 60 27.5 57.7572 27.5 55V43.3447C45.5004 43.6816 57.4999 51.2516 57.4999 58.3333C57.4999 59.2545 58.059 60 58.75 60C59.4409 60 60 59.2545 60 58.3333C59.9999 35.874 45.5346 17.5081 27.5 16.6943ZM26.2499 39.9999C25.559 39.9999 24.9999 40.7454 24.9999 41.6666V54.9999C24.9999 55.9194 24.4384 56.6666 23.7499 56.6666C23.369 56.6666 23.0907 56.4224 22.9246 56.2174L21.3109 54.2252C16.0132 47.6903 7.14842 36.7562 2.63671 30.7241C2.56839 30.633 2.49996 30.3726 2.49996 29.9999C2.49996 29.6273 2.56828 29.3668 2.63671 29.2773C7.14842 23.2437 16.0132 12.3095 21.311 5.77467L22.9248 3.78249C23.0908 3.57733 23.3691 3.33327 23.75 3.33327C24.4385 3.33327 25 4.0803 25 4.99999V18.3332C25 19.2545 25.5591 19.9999 26.2501 19.9999C41.2793 19.9999 53.8648 33.0826 56.8359 50.4507C51.5013 44.2202 39.9511 39.9999 26.2499 39.9999Z" fill="url(#paint0_linear)"/>
<defs>
<linearGradient id="paint0_linear" x1="30" y1="0" x2="30" y2="60" gradientUnits="userSpaceOnUse">
<stop stop-color="#006B2E" stop-opacity="0.55"/>
<stop offset="0.791667" stop-color="#CAD06D" stop-opacity="0.90625"/>
<stop offset="1" stop-color="#FFEA7D"/>
</linearGradient>
</defs>
</svg>
