<svg width="360" height="500" viewBox="0 0 406 745" fill="none" xmlns="http://www.w3.org/2000/svg">
<rect y="43" width="360" height="500" fill="url(#paint0_linear)"/>
<g clip-path="url(#clip0)">
<path d="M236.647 137.194C239.535 137.194 242.512 137.532 245.564 138.212C260.487 141.533 276.466 152.842 293.059 171.825C327.546 211.278 332.778 282.129 332.985 285.126C333.104 286.859 332.557 288.565 331.49 289.794C330.423 291.024 328.94 291.657 327.432 291.521C324.835 291.289 263.417 285.397 228.937 245.953C212.327 226.951 202.367 208.697 199.333 191.699C196.873 177.911 199.076 165.438 205.699 155.244C177.932 129.474 148.373 108.139 125.067 92.8877C122.316 91.0875 119.609 89.344 116.95 87.6543C120.58 96.6349 124.683 109.563 127.856 127.168C146.779 127.996 166.025 149.071 168.581 196.092C170.99 240.406 137.833 277.867 136.42 279.439C134.593 281.475 131.751 281.677 129.719 279.921C128.147 278.563 91.1907 246.144 88.7825 201.829C86.4186 158.343 100.621 134.824 117.549 128.739C115.802 119.213 113.833 111.433 111.976 105.301C106.41 86.9172 100.671 78.9717 100.528 78.7766C100.525 78.7717 100.521 78.7675 100.518 78.7626C99.3757 77.2443 97.9825 75.9938 96.4293 75.0762C72.6666 61.0316 56.4061 53.2119 56.1865 53.107C53.5508 51.8461 52.3023 48.3674 53.3982 45.3357C54.224 43.0502 56.147 41.6717 58.1733 41.6717C58.8344 41.6717 59.507 41.8186 60.1553 42.1284C60.4606 42.2746 91.1427 57.02 130.048 82.4678C135.802 86.2311 141.934 90.3637 148.322 94.834C151.969 91.5337 164.726 81.4433 190.782 74.4727C191.294 54.6813 207.632 34.2955 244.535 30.7021C246.208 30.5392 247.868 30.4616 249.517 30.4616C282.327 30.4616 309.791 61.2239 311 62.5974C312.809 64.6529 313.049 67.9154 311.566 70.2912C310.526 71.9591 285.679 111.18 250.711 114.584C234.035 116.209 219.575 113.611 208.893 107.077C200.666 102.044 194.995 94.834 192.388 86.3094C174.023 91.3463 163.1 97.893 157.899 101.663C175.534 114.462 194.606 129.61 212.921 146.674C219.716 140.405 227.755 137.194 236.647 137.194ZM105.978 154.934C100.454 166.268 98.0755 182.227 99.1002 201.087C100.801 232.363 123.48 258.083 132.382 267.028C140.248 256.873 159.963 228.107 158.263 196.833C157.238 177.974 153.149 162.479 146.441 152.025C141.71 144.654 136.013 140.312 129.773 139.263C131.998 155.459 133.386 174.94 133.147 198.134C133.113 201.417 130.801 204.054 127.917 204.008C125.063 203.969 122.776 201.276 122.809 197.993C123.046 174.993 121.602 155.954 119.446 140.524C114.096 142.817 109.507 147.694 105.978 154.934ZM246.986 79.3354C229.414 79.5417 214.744 81.3174 202.643 83.8414C204.588 88.9362 208.339 93.2709 213.748 96.5796C222.67 102.037 235.151 104.166 249.838 102.737C273.803 100.404 293.201 77.1589 300.28 67.5154C291.889 59.3748 269.369 40.2093 245.407 42.548C230.718 43.9782 218.728 48.4898 210.731 55.5954C205.38 60.3497 202.201 65.9453 201.344 71.992C213.908 69.4281 228.974 67.6559 246.88 67.4461C246.898 67.4461 246.916 67.4461 246.934 67.4461C249.764 67.4461 252.073 70.0681 252.102 73.3299C252.132 76.6134 249.841 79.3018 246.986 79.3354ZM209.46 189.309C212.041 203.77 221.297 220.443 236.228 237.524C261.865 266.852 305.689 276.259 321.935 278.823C319.677 260.11 311.408 209.586 285.767 180.254C270.869 163.21 256.287 152.709 243.599 149.884C234.952 147.959 227.408 149.508 221.098 154.481C232.574 165.698 243.612 177.66 253.642 190.265C255.648 192.785 255.41 196.755 253.052 198.926C250.899 200.908 247.747 200.464 245.884 198.125C235.983 185.699 225.057 173.901 213.689 162.837C209.071 170.231 207.64 179.106 209.46 189.309Z" fill="white" fill-opacity="0.24"/>
</g>
<g clip-path="url(#clip1)">
<path d="M131.059 668.308C132.915 668.308 134.83 668.119 136.792 667.739C146.384 665.882 156.657 659.56 167.324 648.949C189.494 626.894 192.858 587.288 192.99 585.613C193.067 584.644 192.716 583.691 192.029 583.003C191.343 582.316 190.39 581.962 189.421 582.038C187.751 582.167 148.268 585.461 126.103 607.511C115.425 618.133 109.022 628.337 107.072 637.839C105.49 645.547 106.906 652.519 111.164 658.218C93.3138 672.623 74.3117 684.549 59.3289 693.075C57.5606 694.082 55.8205 695.056 54.1113 696.001C56.4449 690.981 59.0822 683.753 61.1218 673.912C73.2866 673.45 85.659 661.669 87.3025 635.383C88.8511 610.611 67.5357 589.671 66.6275 588.792C65.4531 587.654 63.6262 587.541 62.3197 588.522C61.3091 589.282 37.5514 607.404 36.0033 632.176C34.4836 656.485 43.6135 669.632 54.496 673.034C53.3732 678.359 52.1069 682.708 50.9133 686.136C47.335 696.413 43.646 700.854 43.5541 700.963C43.5517 700.966 43.5494 700.968 43.5474 700.971C42.8132 701.82 41.9176 702.519 40.9191 703.032C25.6431 710.883 15.1899 715.254 15.0487 715.313C13.3544 716.018 12.5517 717.962 13.2562 719.657C13.7872 720.935 15.0233 721.705 16.326 721.705C16.7509 721.705 17.1833 721.623 17.6001 721.45C17.7963 721.368 37.5205 713.125 62.5312 698.9C66.23 696.796 70.1719 694.486 74.2784 691.987C76.6234 693.832 84.8239 699.473 101.574 703.369C101.903 714.433 112.406 725.829 136.13 727.837C137.205 727.928 138.272 727.972 139.333 727.972C160.425 727.972 178.08 710.775 178.858 710.008C180.02 708.859 180.175 707.035 179.222 705.707C178.553 704.774 162.58 682.85 140.1 680.947C129.38 680.038 120.084 681.491 113.217 685.143C107.928 687.957 104.283 691.987 102.607 696.752C90.8008 693.937 83.7789 690.277 80.4351 688.17C91.7723 681.015 104.033 672.547 115.806 663.008C120.175 666.513 125.343 668.308 131.059 668.308ZM47.0578 658.391C43.5064 652.055 41.9774 643.134 42.6361 632.591C43.7292 615.108 58.3089 600.73 64.0312 595.73C69.0882 601.406 81.762 617.487 80.6693 634.969C80.0102 645.511 77.3818 654.173 73.0692 660.017C70.028 664.137 66.366 666.565 62.3541 667.151C63.785 658.097 64.6767 647.207 64.5235 634.242C64.5016 632.407 63.0152 630.933 61.1613 630.958C59.3262 630.98 57.8562 632.485 57.8777 634.321C58.0298 647.178 57.1017 657.821 55.7157 666.446C52.2762 665.165 49.3265 662.438 47.0578 658.391ZM137.706 700.651C126.409 700.536 116.979 699.543 109.2 698.132C110.45 695.284 112.861 692.861 116.338 691.011C122.074 687.96 130.097 686.77 139.539 687.569C154.945 688.874 167.415 701.868 171.966 707.258C166.572 711.809 152.095 722.523 136.69 721.215C127.248 720.416 119.539 717.894 114.399 713.922C110.959 711.264 108.915 708.136 108.365 704.756C116.441 706.189 126.126 707.18 137.637 707.297C137.649 707.297 137.66 707.297 137.672 707.297C139.491 707.297 140.976 705.832 140.994 704.008C141.014 702.173 139.541 700.67 137.706 700.651ZM113.582 639.175C115.241 631.091 121.191 621.771 130.789 612.223C147.271 595.828 175.443 590.57 185.887 589.136C184.436 599.597 179.12 627.84 162.636 644.237C153.059 653.764 143.685 659.635 135.528 661.214C129.969 662.29 125.12 661.424 121.063 658.644C128.441 652.374 135.537 645.687 141.985 638.641C143.274 637.232 143.121 635.013 141.605 633.799C140.221 632.691 138.195 632.939 136.997 634.247C130.632 641.193 123.608 647.788 116.3 653.973C113.332 649.84 112.412 644.879 113.582 639.175Z" fill="white" fill-opacity="0.24"/>
</g>
<defs>
<linearGradient id="paint0_linear" x1="203" y1="43" x2="203" y2="724" gradientUnits="userSpaceOnUse">
<stop stop-color="#90D6A2"/>
<stop offset="0.192708" stop-color="#6EC49A"/>
<stop offset="0.421875" stop-color="#46AD92"/>
<stop offset="0.776042" stop-color="#299C8C"/>
<stop offset="0.895833" stop-color="#20968A"/>
<stop offset="1" stop-color="#0E8C88"/>
</linearGradient>
<clipPath id="clip0">
<rect width="280" height="322" transform="matrix(1 0 0 -1 53 322)" fill="white"/>
</clipPath>
<clipPath id="clip1">
<rect x="13" y="565" width="180" height="180" fill="white"/>
</clipPath>
</defs>
</svg>
