<svg width="500" height="800" viewBox="0 0 360 666" fill="none" xmlns="http://www.w3.org/2000/svg">
<rect y="43" width="500" height="800" rx="33" fill="url(#paint0_linear)"/>
<g clip-path="url(#clip0)">
<path d="M236.647 137.194C239.535 137.194 242.512 137.532 245.564 138.212C260.487 141.533 276.466 152.842 293.059 171.825C327.546 211.278 332.778 282.129 332.985 285.126C333.104 286.859 332.557 288.565 331.49 289.794C330.423 291.024 328.94 291.657 327.432 291.521C324.835 291.289 263.417 285.397 228.937 245.953C212.327 226.951 202.367 208.697 199.333 191.699C196.873 177.911 199.076 165.438 205.699 155.244C177.932 129.474 148.373 108.139 125.067 92.8877C122.316 91.0875 119.609 89.344 116.95 87.6543C120.58 96.6349 124.683 109.563 127.856 127.168C146.779 127.996 166.025 149.071 168.581 196.092C170.99 240.406 137.833 277.867 136.42 279.439C134.593 281.475 131.751 281.677 129.719 279.921C128.147 278.563 91.1907 246.144 88.7825 201.829C86.4186 158.343 100.621 134.824 117.549 128.739C115.802 119.213 113.833 111.433 111.976 105.301C106.41 86.9172 100.671 78.9717 100.528 78.7766C100.525 78.7717 100.521 78.7675 100.518 78.7626C99.3757 77.2443 97.9825 75.9938 96.4293 75.0762C72.6666 61.0316 56.4061 53.2119 56.1865 53.107C53.5508 51.8461 52.3023 48.3674 53.3982 45.3357C54.224 43.0502 56.147 41.6717 58.1733 41.6717C58.8344 41.6717 59.507 41.8186 60.1553 42.1284C60.4606 42.2746 91.1427 57.02 130.048 82.4678C135.802 86.2311 141.934 90.3637 148.322 94.834C151.969 91.5337 164.726 81.4433 190.782 74.4727C191.294 54.6813 207.632 34.2955 244.535 30.7021C246.208 30.5392 247.868 30.4616 249.517 30.4616C282.327 30.4616 309.791 61.2239 311 62.5974C312.809 64.6529 313.049 67.9154 311.566 70.2912C310.526 71.9591 285.679 111.18 250.711 114.584C234.035 116.209 219.575 113.611 208.893 107.077C200.666 102.044 194.995 94.834 192.388 86.3094C174.023 91.3463 163.1 97.893 157.899 101.663C175.534 114.462 194.606 129.61 212.921 146.674C219.716 140.405 227.755 137.194 236.647 137.194ZM105.978 154.934C100.454 166.268 98.0755 182.227 99.1002 201.087C100.801 232.363 123.48 258.083 132.382 267.028C140.248 256.873 159.963 228.107 158.263 196.833C157.238 177.974 153.149 162.479 146.441 152.025C141.71 144.654 136.013 140.312 129.773 139.263C131.998 155.459 133.386 174.94 133.147 198.134C133.113 201.417 130.801 204.054 127.917 204.008C125.063 203.969 122.776 201.276 122.809 197.993C123.046 174.993 121.602 155.954 119.446 140.524C114.096 142.817 109.507 147.694 105.978 154.934ZM246.986 79.3354C229.414 79.5417 214.744 81.3174 202.643 83.8414C204.588 88.9362 208.339 93.2709 213.748 96.5796C222.67 102.037 235.151 104.166 249.838 102.737C273.803 100.404 293.201 77.1589 300.28 67.5154C291.889 59.3748 269.369 40.2093 245.407 42.548C230.718 43.9782 218.728 48.4898 210.731 55.5954C205.38 60.3497 202.201 65.9453 201.344 71.992C213.908 69.4281 228.974 67.6559 246.88 67.4461C246.898 67.4461 246.916 67.4461 246.934 67.4461C249.764 67.4461 252.073 70.0681 252.102 73.3299C252.132 76.6134 249.841 79.3018 246.986 79.3354ZM209.46 189.309C212.041 203.77 221.297 220.443 236.228 237.524C261.865 266.852 305.689 276.259 321.935 278.823C319.677 260.11 311.408 209.586 285.767 180.254C270.869 163.21 256.287 152.709 243.599 149.884C234.952 147.959 227.408 149.508 221.098 154.481C232.574 165.698 243.612 177.66 253.642 190.265C255.648 192.785 255.41 196.755 253.052 198.926C250.899 200.908 247.747 200.464 245.884 198.125C235.983 185.699 225.057 173.901 213.689 162.837C209.071 170.231 207.64 179.106 209.46 189.309Z" fill="white" fill-opacity="0.24"/>
</g>
<g clip-path="url(#clip1)">
<path d="M131.059 589.308C132.915 589.308 134.83 589.119 136.792 588.739C146.384 586.882 156.657 580.56 167.324 569.949C189.494 547.894 192.858 508.288 192.99 506.613C193.067 505.644 192.716 504.691 192.029 504.003C191.343 503.316 190.39 502.962 189.421 503.038C187.751 503.167 148.268 506.461 126.103 528.511C115.425 539.133 109.022 549.337 107.072 558.839C105.49 566.547 106.906 573.519 111.164 579.218C93.3138 593.623 74.3117 605.549 59.3289 614.075C57.5606 615.082 55.8205 616.056 54.1113 617.001C56.4449 611.981 59.0822 604.753 61.1218 594.912C73.2866 594.45 85.659 582.669 87.3025 556.383C88.8511 531.611 67.5357 510.671 66.6275 509.792C65.4531 508.654 63.6262 508.541 62.3197 509.522C61.3091 510.282 37.5514 528.404 36.0033 553.176C34.4836 577.485 43.6135 590.632 54.496 594.034C53.3732 599.359 52.1069 603.708 50.9133 607.136C47.335 617.413 43.646 621.854 43.5541 621.963C43.5517 621.966 43.5494 621.968 43.5474 621.971C42.8132 622.82 41.9176 623.519 40.9191 624.032C25.6431 631.883 15.1899 636.254 15.0487 636.313C13.3544 637.018 12.5517 638.962 13.2562 640.657C13.7872 641.935 15.0233 642.705 16.326 642.705C16.7509 642.705 17.1833 642.623 17.6001 642.45C17.7963 642.368 37.5205 634.125 62.5312 619.9C66.23 617.796 70.1719 615.486 74.2784 612.987C76.6234 614.832 84.8239 620.473 101.574 624.369C101.903 635.433 112.406 646.829 136.13 648.837C137.205 648.928 138.272 648.972 139.333 648.972C160.425 648.972 178.08 631.775 178.858 631.008C180.02 629.859 180.175 628.035 179.222 626.707C178.553 625.774 162.58 603.85 140.1 601.947C129.38 601.038 120.084 602.491 113.217 606.143C107.928 608.957 104.283 612.987 102.607 617.752C90.8008 614.937 83.7789 611.277 80.4351 609.17C91.7723 602.015 104.033 593.547 115.806 584.008C120.175 587.513 125.343 589.308 131.059 589.308ZM47.0578 579.391C43.5064 573.055 41.9774 564.134 42.6361 553.591C43.7292 536.108 58.3089 521.73 64.0312 516.73C69.0882 522.406 81.762 538.487 80.6693 555.969C80.0102 566.511 77.3818 575.173 73.0692 581.017C70.028 585.137 66.366 587.565 62.3541 588.151C63.785 579.097 64.6767 568.207 64.5235 555.242C64.5016 553.407 63.0152 551.933 61.1613 551.958C59.3262 551.98 57.8562 553.485 57.8777 555.321C58.0298 568.178 57.1017 578.821 55.7157 587.446C52.2762 586.165 49.3265 583.438 47.0578 579.391ZM137.706 621.651C126.409 621.536 116.979 620.543 109.2 619.132C110.45 616.284 112.861 613.861 116.338 612.011C122.074 608.96 130.097 607.77 139.539 608.569C154.945 609.874 167.415 622.868 171.966 628.258C166.572 632.809 152.095 643.523 136.69 642.215C127.248 641.416 119.539 638.894 114.399 634.922C110.959 632.264 108.915 629.136 108.365 625.756C116.441 627.189 126.126 628.18 137.637 628.297C137.649 628.297 137.66 628.297 137.672 628.297C139.491 628.297 140.976 626.832 140.994 625.008C141.014 623.173 139.541 621.67 137.706 621.651ZM113.582 560.175C115.241 552.091 121.191 542.771 130.789 533.223C147.271 516.828 175.443 511.57 185.887 510.136C184.436 520.597 179.12 548.84 162.636 565.237C153.059 574.764 143.685 580.635 135.528 582.214C129.969 583.29 125.12 582.424 121.063 579.644C128.441 573.374 135.537 566.687 141.985 559.641C143.274 558.232 143.121 556.013 141.605 554.799C140.221 553.691 138.195 553.939 136.997 555.247C130.632 562.193 123.608 568.788 116.3 574.973C113.332 570.84 112.412 565.879 113.582 560.175Z" fill="white" fill-opacity="0.24"/>
</g>
<defs>
<linearGradient id="paint0_linear" x1="180" y1="43" x2="180" y2="643" gradientUnits="userSpaceOnUse">
<stop stop-color="#90D6A2"/>
<stop offset="0.192708" stop-color="#6EC49A"/>
<stop offset="0.421875" stop-color="#46AD92"/>
<stop offset="0.776042" stop-color="#299C8C"/>
<stop offset="0.895833" stop-color="#20968A"/>
<stop offset="1" stop-color="#0E8C88"/>
</linearGradient>
<clipPath id="clip0">
<rect width="280" height="322" transform="matrix(1 0 0 -1 53 322)" fill="white"/>
</clipPath>
<clipPath id="clip1">
<rect x="13" y="486" width="180" height="180" fill="white"/>
</clipPath>
</defs>
</svg>
