<svg width="512" height="384" viewBox="0 0 512 384" fill="none" xmlns="http://www.w3.org/2000/svg">
<path d="M234.667 106.844V32C234.667 14.354 220.313 0 202.667 0C194.729 0 187.063 3.042 181.125 8.563L167.354 21.303C122.042 63.229 46.188 133.396 7.375 172.323C2.625 177.115 0 184.094 0 192C0 199.906 2.625 206.885 7.375 211.688C46.188 250.605 122.042 320.771 167.354 362.698L181.125 375.438C187.063 380.959 194.729 384.001 202.667 384.001C220.313 384.001 234.667 369.647 234.667 352.001V277.407C388.271 279.563 490.667 328.011 490.667 373.334C490.667 379.23 495.438 384.001 501.334 384.001C507.23 384.001 512.001 379.23 512.001 373.334C512 229.594 388.563 112.052 234.667 106.844ZM224 256C218.104 256 213.333 260.771 213.333 266.667V352C213.333 357.885 208.541 362.667 202.666 362.667C199.416 362.667 197.041 361.104 195.624 359.792L181.853 347.042C136.646 305.219 61 235.24 22.5 196.635C21.917 196.052 21.333 194.385 21.333 192C21.333 189.615 21.916 187.948 22.5 187.375C61 148.76 136.646 78.781 181.854 36.958L195.625 24.208C197.042 22.895 199.417 21.333 202.667 21.333C208.542 21.333 213.334 26.114 213.334 32V117.333C213.334 123.229 218.105 128 224.001 128C352.251 128 459.647 211.729 485.001 322.885C439.479 283.01 340.917 256 224 256Z" fill="url(#paint0_linear)"/>
<defs>
<linearGradient id="paint0_linear" x1="256" y1="0" x2="256" y2="384.001" gradientUnits="userSpaceOnUse">
<stop stop-color="#00FF4C"/>
<stop offset="1" stop-color="#FFD839" stop-opacity="0.58"/>
</linearGradient>
</defs>
</svg>
