<svg width="1440" height="1024" viewBox="0 0 1440 1024" fill="none" xmlns="http://www.w3.org/2000/svg">
<g clip-path="url(#clip0)">
<rect width="1440" height="1024" fill="white"/>
<rect width="1440" height="1024" fill="black"/>
<g clip-path="url(#clip1)">
<path d="M257.862 471.309C256.554 472.171 254.957 472.463 253.435 472.118C251.913 471.77 250.591 470.814 249.773 469.465C249.422 468.871 249.013 468.277 248.601 467.68C246.491 464.292 244.322 460.903 242.153 457.573C238.169 451.27 234.124 445.085 230.022 438.843C228.837 437.079 228.676 434.807 229.6 432.89C230.523 430.974 232.391 429.708 234.489 429.574C236.589 429.44 238.597 430.457 239.75 432.242C244.264 439.081 248.718 445.979 253.116 452.876L259.622 463.044V463.103C261.358 465.863 260.572 469.53 257.862 471.309Z" fill="url(#paint0_linear)" fill-opacity="0.63"/>
<path d="M36.0654 660.216C35.3346 660.152 34.6116 660.031 33.8966 659.86C29.9179 659.161 26.0262 658.026 22.2928 656.471C5.12188 649.143 -10.6929 638.908 -24.4813 626.205C-37.2012 614.254 -73.8939 581.193 -61.4669 566.624C-48.9845 552.118 -15.2204 587.496 -3.26306 599.982C9.30115 613.486 20.2401 628.456 29.3242 644.579C31.6117 648.757 33.5721 653.112 35.1868 657.601C35.5245 658.457 35.8174 659.33 36.0654 660.216Z" fill="url(#paint1_linear)" fill-opacity="0.63"/>
<path d="M73.5204 617.166C70.1616 616.508 66.8662 615.552 63.6737 614.313C59.877 612.934 56.1595 611.347 52.5369 609.556C38.4503 602.501 25.3135 593.65 13.4406 583.214C0.546573 571.322 -32.6291 540.284 -20.3788 525.775C-8.07055 511.265 23.2292 542.958 35.0098 555.565C45.7825 567.692 55.3099 580.901 63.4389 594.988C65.7238 598.971 67.7765 602.836 69.4756 606.583C71.0745 610.006 72.428 613.545 73.5204 617.166Z" fill="url(#paint2_linear)" fill-opacity="0.63"/>
<path d="M102.77 566.624C98.5169 566.124 94.3403 565.085 90.343 563.533C76.5572 558.051 63.927 549.96 53.1227 539.688C41.9278 528.925 14.0264 500.206 26.3347 486.828C38.6456 473.389 65.6077 500.92 75.924 512.871C85.6651 525.529 93.3983 539.653 98.8414 554.733C100.424 558.895 101.773 562.939 102.77 566.624Z" fill="url(#paint3_linear)" fill-opacity="0.63"/>
<path d="M141.043 527.619C138.001 526.744 135.025 525.652 132.136 524.348C119.076 518.238 107.126 509.935 96.7914 499.791C87.4117 489.92 63.7899 464.233 75.2776 453.708C86.7099 443.184 111.326 470.713 119.767 481.416C128.35 492.564 134.919 505.168 139.167 518.639C140.022 521.578 140.65 524.581 141.043 527.619Z" fill="url(#paint4_linear)" fill-opacity="0.63"/>
<path d="M183.598 501.1C179.459 499.609 175.491 497.676 171.757 495.332C161.963 489.392 153.011 482.131 145.146 473.745C137.587 465.183 116.485 441.281 126.917 433.49C137.41 425.642 157.75 451.15 164.9 460.665C171.446 469.556 176.752 479.32 180.667 489.681C182.066 493.364 183.05 497.192 183.598 501.1Z" fill="url(#paint5_linear)" fill-opacity="0.63"/>
<path d="M223.338 479.098C218.872 477.503 214.618 475.346 210.679 472.675H210.619C204.03 468.419 198.052 463.256 192.859 457.335C186.646 449.723 172.696 430.28 182.659 423.977C192.683 417.674 207.864 437.713 213.492 446.155C217.584 452.469 220.523 459.479 222.167 466.848C223.18 470.846 223.576 474.976 223.338 479.098V479.098Z" fill="url(#paint6_linear)" fill-opacity="0.63"/>
<path d="M35.1866 657.601C34.7777 658.374 34.308 659.086 33.8964 659.86C29.9177 659.161 26.026 658.026 22.2926 656.471C24.5194 652.427 26.9231 648.444 29.324 644.579C31.6115 648.757 33.5719 653.112 35.1866 657.601V657.601Z" fill="#527F72" fill-opacity="0.32"/>
<path d="M69.4757 606.583C67.4836 609.139 65.5497 611.698 63.6737 614.313C59.877 612.934 56.1595 611.347 52.5369 609.556C56.054 604.621 59.7451 599.744 63.4389 594.988C65.7238 598.971 67.7765 602.836 69.4757 606.583Z" fill="url(#paint7_linear)"/>
<path d="M102.77 566.624C98.5169 566.124 94.3402 565.085 90.343 563.533C93.0975 560.501 95.9101 557.586 98.8414 554.733C100.424 558.895 101.773 562.939 102.77 566.624Z" fill="url(#paint8_linear)"/>
<path d="M139.167 518.639C140.022 521.578 140.65 524.581 141.043 527.619C138.001 526.744 135.025 525.652 132.136 524.348C134.421 522.386 136.824 520.483 139.167 518.639Z" fill="url(#paint9_linear)"/>
<path d="M183.598 501.1C179.459 499.609 175.491 497.676 171.757 495.332C174.688 493.37 177.678 491.467 180.667 489.681C182.066 493.364 183.05 497.192 183.598 501.1Z" fill="url(#paint10_linear)"/>
<path d="M223.339 479.098C218.872 477.503 214.618 475.346 210.679 472.675C214.429 470.654 218.299 468.692 222.167 466.848C223.18 470.846 223.576 474.976 223.339 479.098Z" fill="url(#paint11_linear)"/>
<path d="M259.622 463.044C255.928 464.589 252.235 466.136 248.601 467.68C246.491 464.292 244.322 460.903 242.153 457.573C245.789 455.967 249.422 454.42 253.116 452.876L259.622 463.044Z" fill="url(#paint12_linear)"/>
<path d="M271.867 498.538C269.968 498.541 268.184 497.609 267.084 496.038C261.255 487.725 259.108 482.837 253.406 473.483C251.704 470.691 252.557 467.024 255.308 465.298C258.063 463.572 261.675 464.436 263.377 467.23C268.946 476.363 270.952 481.039 276.638 489.146C277.912 490.958 278.078 493.338 277.075 495.316C276.07 497.294 274.06 498.538 271.867 498.541V498.538Z" fill="url(#paint13_linear)" fill-opacity="0.53"/>
<path d="M94.7466 693.52C82.5728 681.832 56.2703 663.409 36.9227 661.027C42.7325 679.682 62.0274 707.157 73.4861 719.376C84.9448 731.594 121.392 765.343 133.096 751.088C144.803 736.83 106.918 705.206 94.7466 693.52Z" fill="url(#paint14_linear)" fill-opacity="0.53"/>
<path d="M126.585 643.924C110.303 629.834 91.3166 619.326 70.8239 613.065C78.5809 633.702 90.0475 652.7 104.641 669.094C115.783 681.034 148.893 712.794 160.473 699.323C172.05 685.852 138.31 655.087 126.585 643.924V643.924Z" fill="url(#paint15_linear)" fill-opacity="0.53"/>
<path d="M158.771 599.814C147.431 588.736 122.086 568.586 103.435 567.307C108.422 586.059 128.563 614.658 139.576 626.352C150.586 638.048 178.905 667.994 190.311 655.251C201.717 642.508 170.108 610.889 158.771 599.814V599.814Z" fill="url(#paint16_linear)" fill-opacity="0.53"/>
<path d="M192.39 562.136C202.334 572.799 228.784 602.849 217.465 612.774C206.144 622.698 179.672 589.694 170.338 579.25C161.003 568.806 143.083 545.322 141.676 528.312C158.507 532.367 182.448 551.47 192.39 562.136V562.136Z" fill="url(#paint17_linear)" fill-opacity="0.53"/>
<path d="M223.908 529.806C231.969 538.221 252.258 564.146 242.763 571.755C233.267 579.362 213.246 551.108 205.946 542.495C198.648 533.879 185.4 515.101 184.092 501.659C197.102 505.904 215.851 521.391 223.908 529.806V529.806Z" fill="url(#paint18_linear)" fill-opacity="0.53"/>
<path d="M252.177 500.436C257.649 507.213 270.659 523.957 262.464 529.476C254.269 534.998 240.011 517.277 234.433 510.149C227.465 501.493 223.639 490.674 223.594 479.5C234.631 484.069 244.43 491.247 252.177 500.436V500.436Z" fill="url(#paint19_linear)" fill-opacity="0.53"/>
<path d="M-6.3133 752.41C-8.27629 752.407 -10.1074 751.409 -11.1944 749.749C-12.2788 748.09 -12.474 745.989 -11.7142 744.153C50.4262 594.399 138.566 504.56 274.073 452.868C276.033 452.119 278.239 452.488 279.856 453.837C281.476 455.186 282.263 457.306 281.922 459.401C281.579 461.5 280.162 463.25 278.202 464C145.956 514.448 59.8771 602.274 -0.904515 748.77C-1.82005 750.975 -3.9519 752.41 -6.3133 752.41V752.41Z" fill="#527F72" fill-opacity="0.32"/>
<path d="M44.6479 438C44.6479 449.85 37.2374 459 28.5916 459C19.9457 459 12.5352 449.85 12.5352 438C12.5352 426.15 19.9457 417 28.5916 417C37.2374 417 44.6479 426.15 44.6479 438Z" stroke="url(#paint20_linear)" stroke-width="2"/>
<path d="M31.7085 445.333C31.7085 447.298 30.347 448.467 29.1601 448.467C27.9733 448.467 26.6118 447.298 26.6118 445.333C26.6118 443.369 27.9733 442.2 29.1601 442.2C30.347 442.2 31.7085 443.369 31.7085 445.333Z" stroke="url(#paint21_linear)" stroke-width="4"/>
</g>
<g clip-path="url(#clip2)">
<path d="M451.116 244.142C449.825 242.848 448.979 241.051 448.768 239.157C448.56 237.262 449.005 235.428 450.006 234.074C450.45 233.489 450.873 232.835 451.299 232.178C453.793 228.711 456.266 225.176 458.683 221.659C463.301 215.142 467.786 208.589 472.303 201.95C473.571 200.045 475.689 199.199 477.852 199.734C480.016 200.269 481.892 202.106 482.765 204.54C483.64 206.977 483.38 209.637 482.081 211.512C477.138 218.808 472.117 226.049 467.077 233.225L459.654 243.83L459.598 243.847C457.573 246.691 453.783 246.822 451.116 244.142Z" fill="url(#paint22_linear)" fill-opacity="0.47"/>
<path d="M191.412 37.2308C191.214 36.3508 191.072 35.4638 190.982 34.5715C190.237 29.6797 189.94 24.7646 190.102 19.9148C191.014 -2.44182 195.192 -24.039 202.453 -43.9601C209.373 -62.4045 227.983 -115.202 246.349 -104.76C264.675 -94.2339 242.805 -44.2191 235.101 -26.5191C226.639 -7.81001 216.195 9.40667 203.987 24.77C200.8 28.6727 197.327 32.2408 193.604 35.4402C192.904 36.0855 192.172 36.6827 191.412 37.2308Z" fill="url(#paint23_linear)" fill-opacity="0.47"/>
<path d="M245.943 68.9534C245.379 64.8041 245.123 60.6437 245.174 56.5226C245.145 51.6492 245.343 46.8087 245.769 42.0215C247.517 23.3795 251.322 5.33859 257.093 -11.67C263.895 -30.3026 281.818 -78.3704 300.064 -68.1192C318.331 -57.7995 299.114 -11.7536 291.232 5.77282C283.45 21.9729 274.19 37.0172 263.593 50.6665C260.592 54.5098 257.621 58.0453 254.638 61.1301C251.928 64.0032 249.022 66.6203 245.943 68.9534Z" fill="url(#paint24_linear)" fill-opacity="0.47"/>
<path d="M304.729 88.8405C303.697 83.6824 303.206 78.4592 303.272 73.2992C303.62 55.4661 306.877 38.2418 312.871 22.5399C319.196 6.23634 336.774 -34.9451 353.957 -24.2985C371.2 -13.6666 354.426 26.0645 346.651 41.6755C337.995 56.8125 327.221 70.0062 314.718 80.7761C311.296 83.8438 307.904 86.6007 304.729 88.8405Z" fill="url(#paint25_linear)" fill-opacity="0.47"/>
<path d="M355.679 122.695C355.435 118.856 355.423 115.033 355.644 111.251C356.852 94.0913 360.553 77.6083 366.592 62.4972C372.709 48.5907 388.905 13.3295 403.064 23.8325C417.204 34.2703 399.599 71.2357 392.351 84.2753C384.729 97.6111 374.997 108.994 363.609 117.891C361.1 119.747 358.448 121.354 355.679 122.695Z" fill="url(#paint26_linear)" fill-opacity="0.47"/>
<path d="M396.196 165.202C396.152 159.892 396.591 154.656 397.509 149.578C399.714 136.319 403.484 123.669 408.717 111.977C414.227 100.594 429.61 68.8188 440.778 78.8668C452.022 88.9701 434.83 120.311 428.262 131.486C422.076 141.77 414.614 150.843 406.086 158.45C403.057 161.162 399.742 163.427 396.196 165.202Z" fill="url(#paint27_linear)" fill-opacity="0.47"/>
<path d="M431.386 205.695C431.326 199.969 431.88 194.332 433.037 188.918L433.015 188.846C434.748 179.851 437.566 171.313 441.388 163.483C446.468 153.961 460.124 131.904 469.7 141.828C479.298 151.824 465.508 175.505 459.427 184.577C454.836 191.223 449.169 196.712 442.699 200.777C439.231 203.126 435.417 204.785 431.386 205.695V205.695Z" fill="url(#paint28_linear)" fill-opacity="0.47"/>
<path d="M193.604 35.4402C192.718 35.1814 191.869 34.8334 190.982 34.5715C190.237 29.6797 189.94 24.7646 190.102 19.9148C194.765 21.3721 199.433 23.0556 203.987 24.77C200.8 28.6727 197.327 32.2408 193.604 35.4402V35.4402Z" fill="url(#paint29_linear)" fill-opacity="0.32"/>
<path d="M254.638 61.1301C251.482 59.5199 248.345 57.9789 245.175 56.5226C245.145 51.6491 245.343 46.8087 245.769 42.0215C251.745 44.7423 257.726 47.6855 263.593 50.6665C260.592 54.5097 257.621 58.0453 254.638 61.1301Z" fill="url(#paint30_linear)"/>
<path d="M304.729 88.8405C303.697 83.6824 303.206 78.4592 303.272 73.2992C307.154 75.6706 310.945 78.1445 314.718 80.7761C311.296 83.8438 307.904 86.6008 304.729 88.8405Z" fill="url(#paint31_linear)"/>
<path d="M363.609 117.891C361.1 119.747 358.448 121.354 355.679 122.695C355.435 118.856 355.423 115.033 355.644 111.251C358.335 113.378 361.011 115.662 363.609 117.891Z" fill="url(#paint32_linear)"/>
<path d="M396.196 165.202C396.152 159.892 396.591 154.656 397.509 149.578C400.429 152.467 403.314 155.442 406.086 158.45C403.057 161.162 399.742 163.427 396.196 165.202Z" fill="url(#paint33_linear)"/>
<path d="M431.386 205.695C431.326 199.969 431.88 194.332 433.037 188.918C436.304 192.754 439.558 196.75 442.699 200.777C439.231 203.126 435.417 204.785 431.386 205.695Z" fill="url(#paint34_linear)"/>
<path d="M459.654 243.83C456.863 239.922 454.069 236.015 451.299 232.178C453.793 228.711 456.266 225.176 458.683 221.659C461.513 225.481 464.285 229.317 467.077 233.225L459.654 243.83Z" fill="url(#paint35_linear)"/>
<path d="M430.025 268.512C429.347 266.274 429.605 263.902 430.718 262.152C436.605 252.881 440.521 248.938 447.451 239.517C449.519 236.705 453.332 236.651 455.963 239.396C458.595 242.145 459.052 246.652 456.981 249.465C450.218 258.667 446.453 262.381 440.713 271.424C439.431 273.449 437.212 274.332 434.961 273.721C432.71 273.107 430.804 271.097 430.022 268.513L430.025 268.512Z" fill="url(#paint36_linear)" fill-opacity="0.53"/>
<path d="M180.385 116.019C187.249 98.2941 195.537 61.9702 190.941 38.4758C175.145 50.7104 155.698 81.3872 148.073 98.4222C140.448 115.457 121.093 168.164 138.901 177.845C156.714 187.528 173.524 133.74 180.385 116.019Z" fill="url(#paint37_linear)" fill-opacity="0.53"/>
<path d="M239.187 139.23C246.889 115.969 250.201 90.5549 248.91 64.591C231.91 79.6927 217.797 98.6944 207.288 120.63C199.817 137.211 181.179 185.41 198.193 195.171C215.206 204.929 232.667 156.274 239.187 139.23V139.23Z" fill="url(#paint38_linear)" fill-opacity="0.53"/>
<path d="M292.86 164.435C299.435 147.87 309.717 112.176 304.312 89.8213C288.131 101.113 267.91 133.113 260.629 149.471C253.344 165.827 234.74 207.853 250.995 217.619C267.25 227.385 286.286 180.997 292.86 164.435V164.435Z" fill="url(#paint39_linear)" fill-opacity="0.53"/>
<path d="M340.884 193.187C334.209 207.988 314.841 247.842 301.316 237.365C287.789 226.885 309.979 186.152 316.66 172.133C323.341 158.114 339.455 130.21 355.24 123.641C357.341 144.652 347.562 178.388 340.884 193.187V193.187Z" fill="url(#paint40_linear)" fill-opacity="0.53"/>
<path d="M383.041 221.006C377.849 232.937 360.24 264.339 349.58 255.343C338.921 246.346 358.855 214.589 364.507 203.496C370.161 192.406 383.431 171.368 395.836 165.945C396.396 182.507 388.233 209.078 383.041 221.006V221.006Z" fill="url(#paint41_linear)" fill-opacity="0.53"/>
<path d="M421.209 245.849C416.665 254.256 405.258 274.427 397.061 266.36C388.862 258.294 400.76 236.37 405.602 227.738C411.412 217.025 420.41 209.391 431.093 206.112C430.642 220.441 427.252 234.065 421.209 245.849V245.849Z" fill="url(#paint42_linear)" fill-opacity="0.53"/>
<path d="M88.08 13.8933C87.3848 11.5786 87.6898 9.13191 88.8922 7.37143C90.0955 5.61405 92.0377 4.77729 94.0658 5.1429C259.531 35.1573 376.875 113.117 474.534 257.927C475.949 260.021 476.379 262.728 475.662 265.024C474.947 267.323 473.197 268.862 471.069 269.066C468.938 269.267 466.759 268.102 465.344 266.008C370.036 124.683 255.351 48.5712 93.4878 19.2182C91.0508 18.7757 88.9194 16.6769 88.08 13.8933V13.8933Z" fill="url(#paint43_linear)" fill-opacity="0.32"/>
<circle cx="226.567" cy="216.463" r="3.5" transform="rotate(35.4108 226.567 216.463)" stroke="#FF449E" stroke-opacity="0.63" stroke-width="3"/>
<circle cx="213.839" cy="242.995" r="8.5" transform="rotate(35.4108 213.839 242.995)" stroke="#FF449E" stroke-opacity="0.63" stroke-width="3"/>
<circle cx="197.634" cy="274.418" r="13.5" transform="rotate(35.4108 197.634 274.418)" stroke="#FF449E" stroke-opacity="0.63" stroke-width="3"/>
</g>
<g clip-path="url(#clip3)">
<path d="M1027.47 380.184C1029.28 379.851 1031.15 380.262 1032.65 381.325C1034.15 382.391 1035.16 384.02 1035.44 385.844C1035.55 386.643 1035.73 387.469 1035.91 388.299C1036.68 392.906 1037.51 397.539 1038.37 402.109C1039.87 410.706 1041.49 419.203 1043.14 427.787C1043.63 430.224 1042.79 432.744 1040.92 434.388C1039.05 436.032 1036.45 436.546 1034.11 435.738C1031.77 434.928 1030.04 432.92 1029.59 430.475C1027.76 421.061 1026.02 411.611 1024.34 402.187L1021.84 388.284L1021.87 388.22C1021.22 384.46 1023.73 380.87 1027.47 380.184Z" fill="url(#paint44_linear)"/>
<path d="M1353.6 277.545C1354.36 277.946 1355.1 278.404 1355.8 278.913C1359.81 281.473 1363.53 284.463 1366.89 287.833C1382.26 303.523 1394.85 321.727 1404.13 341.668C1412.58 360.313 1437.6 412.576 1417.54 422.617C1397.44 432.566 1376.65 379.137 1369.26 360.262C1361.68 340.016 1356.52 318.929 1353.89 297.443C1353.29 291.905 1353.11 286.326 1353.38 280.76C1353.4 279.684 1353.47 278.612 1353.6 277.545Z" fill="url(#paint45_linear)"/>
<path d="M1293.51 306.882C1296.87 309.116 1300.02 311.642 1302.93 314.426C1306.44 317.635 1309.77 321.033 1312.9 324.606C1325.04 338.602 1335.34 354.099 1343.56 370.729C1352.23 389.39 1374.34 437.877 1354.49 447.934C1334.58 457.966 1314.81 409.624 1307.67 390.7C1301.41 372.749 1297 354.199 1294.49 335.34C1293.8 330.014 1293.31 324.92 1293.15 320.114C1292.95 315.701 1293.07 311.277 1293.51 306.882Z" fill="url(#paint46_linear)"/>
<path d="M1238.97 348.012C1243.37 350.483 1247.45 353.498 1251.09 356.985C1263.62 369.149 1273.71 383.598 1280.83 399.567C1288.16 416.24 1305.58 459.836 1286.18 468.648C1266.75 477.525 1249.82 435.635 1243.98 418.082C1239.08 400.029 1237.03 381.309 1237.89 362.6C1238.05 357.4 1238.4 352.433 1238.97 348.012Z" fill="url(#paint47_linear)"/>
<path d="M1179.81 372.622C1182.73 374.947 1185.47 377.474 1188.03 380.19C1199.48 392.702 1208.74 407.069 1215.41 422.686C1221.17 437.575 1235.29 475.962 1218.07 482.075C1200.91 488.213 1186.53 447.391 1182.16 432.033C1177.85 416.131 1176.37 399.577 1177.81 383.143C1178.21 379.59 1178.88 376.072 1179.81 372.622Z" fill="url(#paint48_linear)"/>
<path d="M1121.62 381.844C1125.45 385.33 1128.89 389.213 1131.9 393.434C1139.87 404.277 1146.34 416.162 1151.12 428.763C1155.49 441.416 1167.68 476.736 1152.83 480.386C1137.89 484.069 1127.25 447.366 1123.76 433.874C1120.64 421.327 1119.26 408.404 1119.67 395.47C1119.8 390.869 1120.46 386.301 1121.62 381.844Z" fill="url(#paint49_linear)"/>
<path d="M1068.51 387.481C1072.65 391.227 1076.31 395.482 1079.39 400.147L1079.45 400.175C1084.7 407.75 1088.88 416.025 1091.86 424.758C1095.19 435.776 1101.61 463.046 1087.95 465.307C1074.21 467.54 1066.72 439.068 1064.4 427.423C1062.79 418.766 1062.75 409.883 1064.28 401.203C1064.97 396.437 1066.4 391.811 1068.51 387.481V387.481Z" fill="url(#paint50_linear)"/>
<path d="M1353.38 280.76C1354.17 280.113 1355 279.559 1355.8 278.913C1359.81 281.473 1363.53 284.463 1366.89 287.833C1362.65 291.176 1358.24 294.372 1353.89 297.443C1353.29 291.905 1353.11 286.326 1353.38 280.76V280.76Z" fill="#527F72" fill-opacity="0.34"/>
<path d="M1293.15 320.114C1296.46 318.266 1299.72 316.39 1302.93 314.426C1306.44 317.635 1309.77 321.033 1312.9 324.606C1306.86 328.323 1300.65 331.897 1294.49 335.34C1293.8 330.014 1293.31 324.92 1293.15 320.114Z" fill="#24AE5F"/>
<path d="M1238.97 348.012C1243.37 350.483 1247.45 353.498 1251.09 356.985C1246.73 358.999 1242.37 360.86 1237.89 362.6C1238.05 357.4 1238.4 352.433 1238.97 348.012Z" fill="#24AE5F"/>
<path d="M1177.81 383.143C1178.21 379.59 1178.88 376.072 1179.81 372.622C1182.73 374.947 1185.47 377.474 1188.03 380.19C1184.66 381.265 1181.19 382.222 1177.81 383.143Z" fill="#24AE5F"/>
<path d="M1121.62 381.844C1125.45 385.33 1128.89 389.213 1131.9 393.434C1127.83 394.214 1123.72 394.905 1119.67 395.47C1119.8 390.869 1120.46 386.301 1121.62 381.844Z" fill="#24AE5F"/>
<path d="M1068.51 387.481C1072.65 391.227 1076.31 395.482 1079.39 400.147C1074.4 400.62 1069.31 400.974 1064.28 401.203C1064.97 396.437 1066.4 391.811 1068.51 387.481Z" fill="#24AE5F"/>
<path d="M1021.84 388.284C1026.55 388.299 1031.26 388.311 1035.91 388.299C1036.68 392.906 1037.51 397.539 1038.37 402.109C1033.7 402.187 1029.05 402.202 1024.34 402.187L1021.84 388.284Z" fill="#24AE5F"/>
<path d="M1024.5 344.506C1026.56 345.366 1028.08 347.179 1028.57 349.37C1031.17 360.969 1031.3 367.206 1033.3 379.868C1033.89 383.647 1031.31 387.208 1027.55 387.817C1023.77 388.424 1020.24 385.853 1019.64 382.071C1017.7 369.708 1017.62 363.763 1015.08 352.451C1014.51 349.921 1015.4 347.284 1017.38 345.61C1019.37 343.937 1022.11 343.51 1024.5 344.503L1024.5 344.506Z" fill="url(#paint51_linear)" fill-opacity="0.43"/>
<path d="M1304.78 215.031C1312.76 233.145 1333.07 264.929 1353.03 276.282C1355.11 253.557 1346.49 215.211 1339.53 196.85C1332.56 178.49 1308.12 125.597 1288.98 135.629C1269.84 145.662 1296.8 196.92 1304.78 215.031Z" fill="url(#paint52_linear)" fill-opacity="0.43"/>
<path d="M1247.85 253.968C1259.22 276.534 1275.13 296.472 1294.6 312.521C1295.45 286.779 1291.53 261.115 1283.03 236.835C1276.29 218.918 1254.58 169.683 1235.93 178.927C1217.28 188.172 1240.13 236.622 1247.85 253.968V253.968Z" fill="url(#paint53_linear)" fill-opacity="0.43"/>
<path d="M1193.02 286.839C1200.36 303.918 1218.85 337.125 1238.56 346.975C1241.57 324.52 1232.54 284.578 1225.82 266.985C1219.11 249.39 1201.8 204.285 1183.66 212.824C1165.53 221.363 1185.67 269.764 1193.02 286.839V286.839Z" fill="url(#paint54_linear)" fill-opacity="0.43"/>
<path d="M1139.52 312.135C1133.5 296.136 1118.26 251.767 1135.03 246.223C1151.8 240.68 1165.74 288.24 1171.19 303.726C1176.64 319.211 1185.56 352.636 1179.44 371.588C1162.96 359.577 1145.53 328.134 1139.52 312.135V312.135Z" fill="url(#paint55_linear)" fill-opacity="0.43"/>
<path d="M1090.7 332.626C1085.73 319.904 1075.33 282.775 1089.07 278.895C1102.82 275.019 1111.88 314.533 1115.94 327.123C1120 339.715 1125.96 365.951 1121.33 381.018C1109.1 370.538 1095.68 345.347 1090.7 332.626V332.626Z" fill="url(#paint56_linear)" fill-opacity="0.43"/>
<path d="M1046.76 351.407C1043.86 341.625 1037.24 317.686 1048.64 315.467C1060.03 313.244 1067.56 338.801 1070.42 349.009C1074.1 361.494 1073.39 374.88 1068.42 386.932C1058.47 377 1051.05 364.819 1046.76 351.407V351.407Z" fill="url(#paint57_linear)" fill-opacity="0.43"/>
<path d="M1441.15 197.532C1443.28 198.427 1444.82 200.333 1445.26 202.614C1445.69 204.893 1444.96 207.244 1443.3 208.876C1308.38 341.885 1172.14 398.574 1001.55 392.676C999.084 392.592 996.852 391.193 995.701 389.006C994.546 386.817 994.645 384.178 995.958 382.076C997.274 379.972 999.602 378.731 1002.07 378.815C1168.55 384.572 1301.64 329.113 1433.63 198.994C1435.62 197.036 1438.58 196.46 1441.15 197.532V197.532Z" fill="#527F72" fill-opacity="0.34"/>
<path d="M1351 523C1351 534.642 1342 544 1331 544C1320 544 1311 534.642 1311 523C1311 511.358 1320 502 1331 502C1342 502 1351 511.358 1351 523Z" stroke="url(#paint58_linear)" stroke-width="2"/>
<path d="M1335.3 530.333C1335.3 531.904 1333.86 533.467 1331.7 533.467C1329.54 533.467 1328.1 531.904 1328.1 530.333C1328.1 528.763 1329.54 527.2 1331.7 527.2C1333.86 527.2 1335.3 528.763 1335.3 530.333Z" stroke="url(#paint59_linear)" stroke-width="4"/>
</g>
<g clip-path="url(#clip4)">
<path d="M979.664 195.653C978.346 194.368 976.567 193.67 974.729 193.718C972.89 193.77 971.146 194.562 969.896 195.92C969.356 196.52 968.749 197.107 968.138 197.696C964.933 201.094 961.661 204.479 958.401 207.796C952.372 214.103 946.299 220.262 940.147 226.472C938.379 228.221 937.679 230.786 938.314 233.19C938.949 235.595 940.822 237.47 943.217 238.102C945.615 238.734 948.166 238.028 949.902 236.247C956.665 229.447 963.371 222.567 970.014 215.674L979.832 205.517L979.845 205.449C982.475 202.686 982.395 198.309 979.664 195.653Z" fill="url(#paint60_linear)"/>
<path d="M765.921 -71.1917C765.062 -71.2849 764.199 -71.3119 763.333 -71.2788C758.576 -71.3865 753.821 -70.9749 749.154 -70.046C727.648 -65.5725 707.054 -57.462 688.245 -46.0642C670.841 -35.2838 620.956 -5.80378 632.032 13.7085C643.186 33.163 690.209 0.361493 706.852 -11.2057C724.427 -23.7988 740.453 -38.4418 754.596 -54.8284C758.185 -59.0899 761.434 -63.6281 764.315 -68.3984C764.899 -69.302 765.434 -70.2341 765.921 -71.1917Z" fill="url(#paint61_linear)"/>
<path d="M799.498 -13.3658C795.467 -13.3781 791.441 -13.0357 787.471 -12.3451C782.77 -11.633 778.114 -10.6638 773.522 -9.44007C755.644 -4.57564 738.458 2.56146 722.375 11.8008C704.784 22.4741 659.421 50.4397 670.306 69.8443C681.258 89.2621 724.6 60.1179 741.066 48.3725C756.259 36.9458 770.256 23.9971 782.835 9.72442C786.376 5.68608 789.622 1.7296 792.432 -2.17268C795.054 -5.72707 797.418 -9.46918 799.498 -13.3658Z" fill="url(#paint62_linear)"/>
<path d="M821.897 51.1652C816.868 50.7682 811.805 51.0045 806.833 51.8701C789.658 55.0014 773.23 61.3838 758.419 70.6799C743.047 80.4477 704.305 106.963 715.513 125.084C726.71 143.277 764.097 117.908 778.722 106.58C792.842 94.311 804.972 79.9052 814.67 63.8832C817.44 59.4795 819.912 55.1571 821.897 51.1652Z" fill="url(#paint63_linear)"/>
<path d="M857.333 104.548C853.619 104.856 849.932 105.427 846.297 106.261C829.819 110.277 814.13 117.057 799.892 126.313C786.819 135.475 753.71 159.494 764.613 174.162C775.452 188.818 810.128 162.917 822.302 152.589C834.742 141.784 845.184 128.853 853.137 114.4C854.789 111.231 856.193 107.936 857.333 104.548Z" fill="url(#paint64_linear)"/>
<path d="M900.54 144.613C895.417 145.375 890.394 146.682 885.548 148.515C872.885 153.081 860.896 159.352 849.909 167.158C839.237 175.237 809.444 197.787 819.744 209.086C830.102 220.463 859.377 195.9 869.791 186.638C879.367 177.952 887.706 167.984 894.572 157.016C897.021 153.118 899.023 148.961 900.54 144.613Z" fill="url(#paint65_linear)"/>
<path d="M941.512 178.863C935.988 179.671 930.584 181.17 925.427 183.33L925.357 183.316C916.779 186.686 908.702 191.233 901.362 196.826C892.459 204.124 871.942 223.2 882.036 232.689C892.2 242.191 914.276 222.712 922.689 214.331C928.846 208.036 933.827 200.681 937.391 192.621C939.465 188.274 940.856 183.636 941.512 178.863V178.863Z" fill="url(#paint66_linear)"/>
<path d="M792.432 -2.17267C790.707 -5.55323 789.049 -8.92362 787.471 -12.3451C782.77 -11.633 778.114 -10.6638 773.522 -9.44005C776.473 -2.98767 779.639 3.43702 782.835 9.72443C786.376 5.68608 789.622 1.72961 792.432 -2.17267Z" fill="url(#paint67_linear)"/>
<path d="M821.897 51.1652C816.868 50.7682 811.805 51.0045 806.833 51.8701C809.332 55.97 811.926 59.9483 814.67 63.8832C817.44 59.4795 819.912 55.1571 821.897 51.1652Z" fill="url(#paint68_linear)"/>
<path d="M853.137 114.4C854.789 111.231 856.193 107.936 857.333 104.548C853.619 104.856 849.932 105.427 846.297 106.261C848.496 109.028 850.845 111.755 853.137 114.4Z" fill="url(#paint69_linear)"/>
<path d="M900.54 144.613C895.417 145.375 890.394 146.682 885.548 148.515C888.494 151.43 891.52 154.29 894.572 157.016C897.021 153.118 899.023 148.961 900.54 144.613Z" fill="url(#paint70_linear)"/>
<path d="M941.512 178.863C935.988 179.671 930.584 181.17 925.427 183.33C929.305 186.498 933.336 189.627 937.391 192.621C939.465 188.274 940.856 183.636 941.512 178.863Z" fill="url(#paint71_linear)"/>
<path d="M979.832 205.517C975.91 202.906 971.99 200.293 968.138 197.696C964.933 201.094 961.661 204.479 958.401 207.796C962.242 210.464 966.092 213.063 970.014 215.674L979.832 205.517Z" fill="url(#paint72_linear)"/>
<path d="M1002 167.676C999.808 167.24 997.536 167.899 995.909 169.447C987.294 177.635 983.707 182.74 975.003 192.149C972.406 194.957 972.563 199.349 975.354 201.953C978.148 204.558 982.519 204.392 985.118 201.581C993.619 192.396 996.993 187.5 1005.4 179.516C1007.28 177.732 1008.01 175.046 1007.3 172.553C1006.58 170.059 1004.54 168.176 1002 167.673L1002 167.676Z" fill="url(#paint73_linear)" fill-opacity="0.43"/>
<path d="M866.886 -31.896C844.881 -19.4797 820.559 -11.7799 795.455 -9.28653C809.083 -31.142 826.63 -50.2762 847.202 -65.7159C862.78 -76.8439 908.229 -105.652 918.574 -87.589C928.915 -69.5268 882.962 -42.0025 866.886 -31.896V-31.896Z" fill="url(#paint74_linear)" fill-opacity="0.43"/>
<path d="M894.132 25.9416C878.521 36.0378 844.671 53.3244 822.82 50.5355C832.82 30.2054 862.564 2.05861 877.936 -8.817C893.306 -19.6963 932.806 -47.5195 943.114 -30.3298C953.422 -13.1402 909.74 15.8478 894.132 25.9416V25.9416Z" fill="url(#paint75_linear)" fill-opacity="0.43"/>
<path d="M924.488 76.7428C938.392 66.8032 975.756 38.4344 964.913 24.4912C954.066 10.5473 916.01 42.294 902.86 52.1214C889.71 61.9488 863.689 84.7466 858.222 103.898C878.595 103.095 910.586 86.6861 924.488 76.7428V76.7428Z" fill="url(#paint76_linear)" fill-opacity="0.43"/>
<path d="M953.623 120.943C964.842 113.148 994.153 88.0955 984.894 77.2185C975.634 66.3446 946.109 94.1238 935.724 102.319C925.341 110.518 905.785 128.995 901.237 144.085C917.236 142.192 942.407 128.739 953.623 120.943V120.943Z" fill="url(#paint77_linear)" fill-opacity="0.43"/>
<path d="M979.669 161.013C987.526 154.502 1006.35 138.3 998.121 130.113C989.894 121.923 969.409 138.959 961.351 145.846C951.34 154.167 944.474 165.679 941.899 178.462C955.689 175.748 968.639 169.765 979.669 161.013V161.013Z" fill="url(#paint78_linear)" fill-opacity="0.43"/>
<path d="M737.751 -186.401C735.482 -186.846 733.139 -186.121 731.508 -184.469C729.879 -182.816 729.179 -180.455 729.643 -178.18C767.658 7.43078 849.262 130.38 994.239 220.462C996.336 221.767 998.97 221.848 1001.14 220.672C1003.32 219.497 1004.71 217.25 1004.79 214.773C1004.87 212.292 1003.62 209.965 1001.53 208.66C860.038 120.747 780.362 0.571471 743.182 -181C742.622 -183.734 740.481 -185.863 737.751 -186.401V-186.401Z" fill="#527F72" fill-opacity="0.34"/>
<path d="M631.408 134.14C624.926 143.811 627.189 156.594 636.328 162.72C645.467 168.846 658.152 166.083 664.634 156.413C671.117 146.742 668.853 133.959 659.714 127.833C650.575 121.707 637.891 124.47 631.408 134.14Z" stroke="url(#paint79_linear)" stroke-width="2"/>
<path d="M640.366 148.974C639.492 150.278 639.821 152.381 641.612 153.581C643.402 154.781 645.473 154.287 646.347 152.983C647.221 151.678 646.892 149.576 645.101 148.375C643.311 147.175 641.241 147.669 640.366 148.974Z" stroke="url(#paint80_linear)" stroke-width="4"/>
</g>
<g clip-path="url(#clip5)">
<path d="M355.039 639.942C355.616 641.69 355.462 643.596 354.613 645.226C353.76 646.856 352.283 648.075 350.514 648.603C349.738 648.825 348.945 649.113 348.147 649.403C343.687 650.793 339.21 652.249 334.799 653.722C326.486 656.373 318.288 659.128 310.008 661.933C307.661 662.754 305.049 662.257 303.167 660.632C301.284 659.007 300.421 656.501 300.904 654.072C301.388 651.64 303.142 649.657 305.504 648.878C314.581 645.784 323.706 642.776 332.815 639.831L346.249 635.464L346.316 635.482C349.953 634.33 353.851 636.323 355.039 639.942Z" fill="url(#paint81_linear)"/>
<path d="M501.061 949.086C500.768 949.899 500.414 950.686 500.004 951.449C498.014 955.772 495.558 959.864 492.676 963.651C479.221 981.014 462.898 995.962 444.404 1007.86C427.081 1018.77 378.704 1050.67 366.029 1032.16C353.44 1013.6 403.546 985.732 421.242 975.85C440.269 965.582 460.458 957.604 481.389 952.084C486.792 950.729 492.296 949.8 497.847 949.304C498.915 949.176 499.987 949.103 501.061 949.086Z" fill="url(#paint82_linear)"/>
<path d="M463.828 893.544C462.07 897.172 459.997 900.639 457.634 903.904C454.932 907.816 452.019 911.574 448.904 915.164C436.689 929.096 422.736 941.408 407.378 951.807C390.069 962.933 345.037 991.428 332.375 973.134C319.73 954.773 364.935 928.611 382.713 918.967C399.647 910.327 417.424 903.43 435.768 898.388C440.951 896.977 445.93 895.796 450.67 894.983C455.014 894.186 459.414 893.704 463.828 893.544Z" fill="url(#paint83_linear)"/>
<path d="M415.666 845.104C413.816 849.799 411.382 854.245 408.423 858.332C398.075 872.393 385.132 884.355 370.281 893.586C354.759 903.115 313.935 926.297 302.568 908.275C291.131 890.232 330.331 867.764 346.927 859.592C364.147 852.286 382.414 847.706 401.066 846.02C406.239 845.462 411.208 845.137 415.666 845.104Z" fill="url(#paint84_linear)"/>
<path d="M383.241 789.841C381.335 793.044 379.203 796.106 376.86 799.007C366.021 812.052 353.046 823.177 338.481 831.911C324.514 839.639 288.404 858.854 280.006 842.621C271.592 826.451 310.079 806.654 324.702 800.245C339.869 793.806 356.069 790.096 372.546 789.29C376.119 789.196 379.696 789.379 383.241 789.841Z" fill="url(#paint85_linear)"/>
<path d="M366.193 733.437C363.26 737.706 359.882 741.647 356.109 745.197C346.45 754.574 335.555 762.596 323.72 769.044C311.779 775.091 278.444 791.971 272.809 777.757C267.13 763.458 302.045 747.927 314.938 742.632C326.944 737.838 339.56 734.717 352.429 733.359C357.006 732.868 361.62 732.893 366.193 733.437Z" fill="url(#paint86_linear)"/>
<path d="M353.39 681.593C350.24 686.202 346.522 690.401 342.319 694.088L342.3 694.157C335.51 700.386 327.879 705.65 319.633 709.792C309.17 714.59 283.026 724.658 278.928 711.425C274.848 698.123 302.037 686.83 313.259 682.947C321.617 680.176 330.412 678.927 339.219 679.26C344.035 679.303 348.813 680.088 353.39 681.593V681.593Z" fill="url(#paint87_linear)"/>
<path d="M497.847 949.304C498.595 950.001 499.256 950.749 500.004 951.449C498.014 955.772 495.558 959.864 492.676 963.651C488.787 959.904 485.022 955.975 481.389 952.084C486.792 950.729 492.296 949.8 497.847 949.304V949.304Z" fill="#527F72" fill-opacity="0.34"/>
<path d="M450.67 894.983C452.951 898.016 455.252 900.985 457.634 903.904C454.932 907.816 452.019 911.574 448.904 915.164C444.401 909.682 440.016 904.018 435.768 898.388C440.951 896.977 445.93 895.796 450.67 894.983Z" fill="#24AE5F"/>
<path d="M415.666 845.104C413.816 849.799 411.382 854.245 408.423 858.332C405.836 854.288 403.398 850.212 401.066 846.02C406.239 845.462 411.208 845.137 415.666 845.104Z" fill="#24AE5F"/>
<path d="M372.546 789.29C376.119 789.196 379.696 789.379 383.241 789.841C381.335 793.044 379.203 796.106 376.86 799.007C375.338 795.817 373.918 792.51 372.546 789.29Z" fill="#24AE5F"/>
<path d="M366.193 733.437C363.26 737.706 359.882 741.647 356.109 745.197C354.782 741.272 353.539 737.297 352.429 733.359C357.006 732.868 361.62 732.893 366.193 733.437Z" fill="#24AE5F"/>
<path d="M353.39 681.593C350.24 686.202 346.522 690.401 342.319 694.088C341.173 689.213 340.13 684.217 339.219 679.26C344.035 679.303 348.813 680.088 353.39 681.593Z" fill="#24AE5F"/>
<path d="M346.249 635.464C346.875 640.133 347.503 644.803 348.147 649.403C343.687 650.793 339.21 652.249 334.799 653.722C334.087 649.101 333.44 644.5 332.815 639.831L346.249 635.464Z" fill="#24AE5F"/>
<path d="M389.981 632.141C389.41 634.305 387.821 636.058 385.716 636.841C374.579 640.991 368.417 641.974 356.144 645.668C352.481 646.77 348.603 644.702 347.487 641.051C346.373 637.398 348.439 633.543 352.105 632.441C364.088 628.831 369.968 627.946 380.83 623.897C383.259 622.988 385.993 623.511 387.921 625.245C389.848 626.982 390.644 629.644 389.984 632.142L389.981 632.141Z" fill="url(#paint88_linear)" fill-opacity="0.43"/>
<path d="M556.358 892.221C539.496 902.587 510.769 927.03 502.235 948.352C525.032 947.319 561.85 933.567 579.094 924.173C596.337 914.779 645.416 883.37 632.875 865.774C620.333 848.174 573.217 881.857 556.358 892.221Z" fill="url(#paint89_linear)" fill-opacity="0.43"/>
<path d="M510.044 841.117C489.232 855.443 471.643 873.922 458.389 895.387C484.007 892.729 508.9 885.356 531.8 873.642C548.634 864.526 594.461 836.322 582.767 819.102C571.073 801.885 526.179 831.104 510.044 841.117V841.117Z" fill="url(#paint90_linear)" fill-opacity="0.43"/>
<path d="M470.023 791.258C454.101 800.858 423.716 823.692 416.636 844.551C439.293 844.484 477.635 830.104 494.152 821.061C510.672 812.023 553.004 788.733 542.079 771.929C531.154 755.125 485.941 781.661 470.023 791.258V791.258Z" fill="url(#paint91_linear)" fill-opacity="0.43"/>
<path d="M437.689 741.693C452.721 733.559 494.606 712.428 502.379 728.289C510.15 744.154 464.926 764.424 450.326 771.93C435.726 779.435 403.823 792.816 384.214 789.327C393.874 771.372 422.655 749.823 437.689 741.693V741.693Z" fill="url(#paint92_linear)" fill-opacity="0.43"/>
<path d="M410.752 696.12C422.678 689.458 458.05 674.109 463.762 687.202C469.472 700.293 431.555 714.638 419.635 720.375C407.712 726.108 382.529 735.576 366.973 733.043C375.693 719.496 398.825 702.778 410.752 696.12V696.12Z" fill="url(#paint93_linear)" fill-opacity="0.43"/>
<path d="M386.171 655.135C395.468 650.931 418.285 641.125 422.033 652.11C425.784 663.096 401.488 674.031 391.763 678.25C379.894 683.595 366.537 684.715 353.92 681.421C362.408 670.219 373.466 661.207 386.171 655.135V655.135Z" fill="url(#paint94_linear)" fill-opacity="0.43"/>
<path d="M592.233 1024.94C591.637 1027.18 589.958 1028.97 587.757 1029.71C585.558 1030.45 583.129 1030.04 581.288 1028.62C431.171 913.032 356.486 785.761 339.14 615.96C338.887 613.503 339.97 611.102 341.98 609.663C343.991 608.222 346.62 607.961 348.88 608.976C351.144 609.995 352.69 612.132 352.942 614.589C369.871 780.304 442.909 904.625 589.763 1017.69C591.973 1019.4 592.947 1022.25 592.233 1024.94V1024.94Z" fill="#527F72" fill-opacity="0.34"/>
<circle cx="511" cy="704" r="29" stroke="url(#paint95_linear)" stroke-width="2"/>
</g>
<path d="M918 718.5C918 728.05 909.169 736 898 736C886.831 736 878 728.05 878 718.5C878 708.95 886.831 701 898 701C909.169 701 918 708.95 918 718.5Z" stroke="url(#paint96_linear)" stroke-width="2"/>
<circle cx="981" cy="632" r="29" stroke="url(#paint97_linear)" stroke-width="2"/>
<g clip-path="url(#clip6)">
<path d="M1179.66 650.174C1179.4 651.927 1179.68 653.907 1180.44 655.665C1181.2 657.422 1182.37 658.812 1183.69 659.514C1184.27 659.812 1184.87 660.18 1185.47 660.55C1188.8 662.381 1192.16 664.282 1195.46 666.195C1201.69 669.67 1207.84 673.243 1214.05 676.874C1215.82 677.93 1217.65 677.65 1218.86 676.14C1220.07 674.63 1220.47 672.121 1219.91 669.571C1219.34 667.019 1217.9 664.817 1216.13 663.803C1209.32 659.802 1202.48 655.886 1195.66 652.037L1185.59 646.335L1185.55 646.348C1182.83 644.836 1180.2 646.546 1179.66 650.174Z" fill="url(#paint98_linear)"/>
<path d="M1102 956.193C1102.28 957.058 1102.61 957.902 1102.97 958.726C1104.79 963.363 1106.92 967.805 1109.33 971.969C1120.57 991.083 1133.65 1007.96 1148.03 1021.89C1161.48 1034.69 1199.16 1071.9 1206.64 1053.93C1214.06 1035.9 1175.49 1002.68 1161.87 990.913C1147.25 978.624 1132 968.595 1116.43 961.037C1112.42 959.158 1108.37 957.709 1104.33 956.704C1103.55 956.476 1102.77 956.306 1102 956.193Z" fill="url(#paint99_linear)"/>
<path d="M1123.87 902.191C1125.46 906.091 1127.26 909.853 1129.25 913.433C1131.55 917.71 1133.98 921.848 1136.54 925.829C1146.58 941.292 1157.73 955.239 1169.71 967.336C1183.17 980.358 1218.14 1013.77 1225.63 996.017C1233.1 978.195 1198.22 947.176 1184.56 935.643C1171.59 925.221 1158.17 916.521 1144.51 909.686C1140.65 907.77 1136.96 906.108 1133.48 904.846C1130.28 903.638 1127.07 902.749 1123.87 902.191Z" fill="url(#paint100_linear)"/>
<path d="M1154.25 856.491C1156 861.499 1158.15 866.304 1160.64 870.785C1169.35 886.215 1179.73 899.711 1191.25 910.558C1203.28 921.772 1234.74 949.326 1241.33 931.74C1247.96 914.139 1217.73 887.466 1205.05 877.556C1192 868.485 1178.43 862.133 1164.85 858.734C1161.07 857.699 1157.46 856.921 1154.25 856.491Z" fill="url(#paint101_linear)"/>
<path d="M1172.69 802.348C1174.34 805.823 1176.15 809.173 1178.1 812.374C1187.07 826.801 1197.4 839.435 1208.67 849.743C1219.42 858.961 1247.13 882.003 1251.74 865.998C1256.36 850.061 1226.88 826.207 1215.77 818.293C1204.28 810.299 1192.28 805.029 1180.34 802.731C1177.76 802.316 1175.2 802.187 1172.69 802.348Z" fill="url(#paint102_linear)"/>
<path d="M1179.95 745.661C1182.44 750.327 1185.22 754.695 1188.26 758.694C1196.05 769.229 1204.61 778.477 1213.71 786.184C1222.84 793.486 1248.35 813.87 1251.15 799.705C1253.97 785.454 1227.44 766.321 1217.68 759.709C1208.61 753.694 1199.24 749.351 1189.85 746.805C1186.51 745.891 1183.19 745.506 1179.95 745.661Z" fill="url(#paint103_linear)"/>
<path d="M1184.56 693.301C1187.23 698.338 1190.29 703.001 1193.64 707.18L1193.66 707.253C1199.11 714.285 1205.07 720.396 1211.38 725.404C1219.34 731.286 1239.07 744.002 1240.84 730.711C1242.59 717.347 1222.01 703.275 1213.58 698.27C1207.31 694.667 1200.87 692.595 1194.55 692.155C1191.09 691.771 1187.72 692.156 1184.56 693.301V693.301Z" fill="url(#paint104_linear)"/>
<path d="M1104.33 956.704C1103.85 957.357 1103.44 958.07 1102.97 958.726C1104.79 963.363 1106.92 967.805 1109.33 971.969C1111.8 968.449 1114.16 964.729 1116.43 961.037C1112.42 959.158 1108.37 957.709 1104.33 956.704V956.704Z" fill="#527F72" fill-opacity="0.34"/>
<path d="M1133.48 904.846C1132.1 907.774 1130.71 910.632 1129.25 913.433C1131.55 917.71 1133.98 921.848 1136.54 925.829C1139.3 920.572 1141.95 915.118 1144.51 909.686C1140.65 907.77 1136.96 906.108 1133.48 904.846Z" fill="#24AE5F"/>
<path d="M1154.25 856.491C1156 861.499 1158.15 866.304 1160.64 870.785C1162.15 866.841 1163.54 862.853 1164.85 858.734C1161.07 857.699 1157.46 856.921 1154.25 856.491Z" fill="#24AE5F"/>
<path d="M1180.34 802.731C1177.76 802.316 1175.2 802.187 1172.69 802.348C1174.34 805.823 1176.15 809.173 1178.1 812.374C1178.91 809.218 1179.64 805.932 1180.34 802.731Z" fill="#24AE5F"/>
<path d="M1179.95 745.661C1182.44 750.327 1185.22 754.695 1188.26 758.694C1188.86 754.761 1189.4 750.77 1189.85 746.805C1186.51 745.891 1183.19 745.506 1179.95 745.661Z" fill="#24AE5F"/>
<path d="M1184.56 693.301C1187.23 698.338 1190.29 703.001 1193.64 707.18C1194.03 702.251 1194.34 697.189 1194.55 692.155C1191.09 691.771 1187.72 692.156 1184.56 693.301Z" fill="#24AE5F"/>
<path d="M1185.59 646.335C1185.56 651.098 1185.52 655.861 1185.47 660.55C1188.8 662.381 1192.16 664.282 1195.47 666.195C1195.57 661.489 1195.62 656.799 1195.66 652.037L1185.59 646.335Z" fill="#24AE5F"/>
<path d="M1153.8 639.015C1154.4 641.299 1155.71 643.249 1157.29 644.244C1165.68 649.518 1170.21 651.08 1179.38 655.984C1182.11 657.448 1184.72 655.659 1185.2 651.991C1185.68 648.32 1183.85 644.158 1181.11 642.695C1172.16 637.903 1167.84 636.467 1159.66 631.322C1157.83 630.168 1155.91 630.465 1154.67 632.082C1153.44 633.703 1153.1 636.379 1153.8 639.016L1153.8 639.015Z" fill="url(#paint105_linear)" fill-opacity="0.43"/>
<path d="M1057.11 892.593C1070.18 904.79 1093.04 932.569 1101.09 955.331C1084.58 952.236 1056.83 934.769 1043.58 923.542C1030.32 912.314 992.18 875.536 999.647 858.493C1007.11 841.447 1044.05 880.398 1057.11 892.593Z" fill="url(#paint106_linear)" fill-opacity="0.43"/>
<path d="M1085.92 843.978C1102.18 860.614 1116.5 881.247 1127.95 904.577C1109.27 899.555 1090.68 889.731 1073.15 875.606C1060.21 864.701 1024.69 831.52 1031.58 814.79C1038.47 798.064 1073.41 832.211 1085.92 843.978V843.978Z" fill="url(#paint107_linear)" fill-opacity="0.43"/>
<path d="M1110.31 796.089C1122.63 807.412 1146.55 833.679 1153.5 855.834C1137.18 853.749 1108.28 835.498 1095.58 824.697C1082.88 813.9 1050.32 786.1 1056.69 769.732C1063.07 753.363 1097.99 784.769 1110.31 796.089V796.089Z" fill="url(#paint108_linear)" fill-opacity="0.43"/>
<path d="M1129.19 747.819C1117.64 738.087 1085.59 712.555 1081.4 728.232C1077.22 743.911 1111.59 768.852 1122.78 777.897C1133.96 786.941 1158.13 803.587 1171.94 801.732C1163.38 782.344 1140.74 757.546 1129.19 747.819V747.819Z" fill="url(#paint109_linear)" fill-opacity="0.43"/>
<path d="M1144.53 703.188C1135.35 695.253 1108.51 676.267 1105.56 689.269C1102.61 702.27 1131.2 720.447 1140.29 727.427C1149.39 734.404 1168.37 746.414 1179.35 745.185C1171.86 730.43 1153.72 711.12 1144.53 703.188V703.188Z" fill="url(#paint110_linear)" fill-opacity="0.43"/>
<path d="M1158.59 663.082C1151.52 657.917 1134.21 645.768 1132.49 656.77C1130.77 667.773 1149.24 681.218 1156.62 686.437C1165.64 693.009 1175.36 695.353 1184.16 693.077C1177.05 680.762 1168.28 670.479 1158.59 663.082V663.082Z" fill="url(#paint111_linear)" fill-opacity="0.43"/>
<path d="M1043.08 1026.36C1043.71 1028.72 1045.08 1030.71 1046.73 1031.67C1048.38 1032.63 1050.09 1032.43 1051.29 1031.13C1149.13 925.206 1191.59 800.519 1188.98 626.842C1188.94 624.329 1187.95 621.754 1186.37 620.091C1184.8 618.425 1182.88 617.922 1181.34 618.768C1179.8 619.618 1178.88 621.686 1178.92 624.199C1181.47 793.696 1139.92 915.487 1044.22 1019.1C1042.77 1020.66 1042.33 1023.52 1043.08 1026.36V1026.36Z" fill="#527F72" fill-opacity="0.34"/>
</g>
<path d="M904 721C904 723.519 901.573 726 898 726C894.427 726 892 723.519 892 721C892 718.481 894.427 716 898 716C901.573 716 904 718.481 904 721Z" stroke="#FF449E" stroke-opacity="0.29" stroke-width="4"/>
<path d="M91 823C91 834.642 82.0024 844 71 844C59.9976 844 51 834.642 51 823C51 811.358 59.9976 802 71 802C82.0024 802 91 811.358 91 823Z" stroke="url(#paint112_linear)" stroke-width="2"/>
<path d="M75.3 830.333C75.3 831.904 73.8556 833.467 71.7 833.467C69.5444 833.467 68.1 831.904 68.1 830.333C68.1 828.763 69.5444 827.2 71.7 827.2C73.8556 827.2 75.3 828.763 75.3 830.333Z" stroke="url(#paint113_linear)" stroke-width="4"/>
<path d="M158 803C158 814.642 149.002 824 138 824C126.998 824 118 814.642 118 803C118 791.358 126.998 782 138 782C149.002 782 158 791.358 158 803Z" stroke="url(#paint114_linear)" stroke-width="2"/>
<path d="M142.3 810.333C142.3 811.904 140.856 813.467 138.7 813.467C136.544 813.467 135.1 811.904 135.1 810.333C135.1 808.763 136.544 807.2 138.7 807.2C140.856 807.2 142.3 808.763 142.3 810.333Z" stroke="url(#paint115_linear)" stroke-width="4"/>
<path d="M336 313.5C336 323.05 327.169 331 316 331C304.831 331 296 323.05 296 313.5C296 303.95 304.831 296 316 296C327.169 296 336 303.95 336 313.5Z" stroke="url(#paint116_linear)" stroke-width="2"/>
<path d="M322 316C322 318.519 319.573 321 316 321C312.427 321 310 318.519 310 316C310 313.481 312.427 311 316 311C319.573 311 322 313.481 322 316Z" stroke="#FF449E" stroke-opacity="0.29" stroke-width="4"/>
</g>
<defs>
<linearGradient id="paint0_linear" x1="244.775" y1="429.562" x2="244.775" y2="472.26" gradientUnits="userSpaceOnUse">
<stop stop-color="#4FBA6F"/>
<stop offset="1" stop-color="#4FBA6F" stop-opacity="0"/>
</linearGradient>
<linearGradient id="paint1_linear" x1="-13.9667" y1="563.191" x2="-13.9667" y2="660.216" gradientUnits="userSpaceOnUse">
<stop stop-color="#4FBA6F"/>
<stop offset="1" stop-color="#4FBA6F" stop-opacity="0"/>
</linearGradient>
<linearGradient id="paint2_linear" x1="25.2366" y1="522.05" x2="25.2366" y2="617.166" gradientUnits="userSpaceOnUse">
<stop stop-color="#4FBA6F"/>
<stop offset="1" stop-color="#4FBA6F" stop-opacity="0"/>
</linearGradient>
<linearGradient id="paint3_linear" x1="63.016" y1="483.217" x2="63.016" y2="566.624" gradientUnits="userSpaceOnUse">
<stop stop-color="#4FBA6F"/>
<stop offset="1" stop-color="#4FBA6F" stop-opacity="0"/>
</linearGradient>
<linearGradient id="paint4_linear" x1="106.618" y1="451.353" x2="106.618" y2="527.619" gradientUnits="userSpaceOnUse">
<stop stop-color="#4FBA6F"/>
<stop offset="1" stop-color="#4FBA6F" stop-opacity="0"/>
</linearGradient>
<linearGradient id="paint5_linear" x1="153.837" y1="432.012" x2="153.837" y2="501.1" gradientUnits="userSpaceOnUse">
<stop stop-color="#4FBA6F"/>
<stop offset="1" stop-color="#4FBA6F" stop-opacity="0"/>
</linearGradient>
<linearGradient id="paint6_linear" x1="201.291" y1="422.771" x2="201.291" y2="479.098" gradientUnits="userSpaceOnUse">
<stop stop-color="#4FBA6F"/>
<stop offset="1" stop-color="#4FBA6F" stop-opacity="0"/>
</linearGradient>
<linearGradient id="paint7_linear" x1="61.0063" y1="594.988" x2="61.0063" y2="614.313" gradientUnits="userSpaceOnUse">
<stop stop-color="#24AE5F"/>
<stop offset="1" stop-color="#24AE5F" stop-opacity="0"/>
</linearGradient>
<linearGradient id="paint8_linear" x1="96.5565" y1="554.733" x2="96.5565" y2="566.624" gradientUnits="userSpaceOnUse">
<stop stop-color="#24AE5F"/>
<stop offset="1" stop-color="#24AE5F" stop-opacity="0"/>
</linearGradient>
<linearGradient id="paint9_linear" x1="136.589" y1="518.639" x2="136.589" y2="527.619" gradientUnits="userSpaceOnUse">
<stop stop-color="#24AE5F"/>
<stop offset="1" stop-color="#24AE5F" stop-opacity="0"/>
</linearGradient>
<linearGradient id="paint10_linear" x1="177.678" y1="489.681" x2="177.678" y2="501.1" gradientUnits="userSpaceOnUse">
<stop stop-color="#24AE5F"/>
<stop offset="1" stop-color="#24AE5F" stop-opacity="0"/>
</linearGradient>
<linearGradient id="paint11_linear" x1="217.042" y1="466.848" x2="217.042" y2="479.098" gradientUnits="userSpaceOnUse">
<stop stop-color="#24AE5F"/>
<stop offset="1" stop-color="#24AE5F" stop-opacity="0"/>
</linearGradient>
<linearGradient id="paint12_linear" x1="250.888" y1="452.876" x2="250.888" y2="467.68" gradientUnits="userSpaceOnUse">
<stop stop-color="#24AE5F"/>
<stop offset="1" stop-color="#24AE5F" stop-opacity="0"/>
</linearGradient>
<linearGradient id="paint13_linear" x1="265.128" y1="464.409" x2="265.128" y2="498.541" gradientUnits="userSpaceOnUse">
<stop stop-color="#14A085"/>
<stop offset="1" stop-color="#14A085" stop-opacity="0"/>
</linearGradient>
<linearGradient id="paint14_linear" x1="86.1179" y1="661.027" x2="86.1179" y2="754.538" gradientUnits="userSpaceOnUse">
<stop stop-color="#14A085"/>
<stop offset="1" stop-color="#14A085" stop-opacity="0"/>
</linearGradient>
<linearGradient id="paint15_linear" x1="116.84" y1="613.065" x2="116.84" y2="702.591" gradientUnits="userSpaceOnUse">
<stop stop-color="#14A085"/>
<stop offset="1" stop-color="#14A085" stop-opacity="0"/>
</linearGradient>
<linearGradient id="paint16_linear" x1="148.094" y1="567.307" x2="148.094" y2="658.348" gradientUnits="userSpaceOnUse">
<stop stop-color="#14A085"/>
<stop offset="1" stop-color="#14A085" stop-opacity="0"/>
</linearGradient>
<linearGradient id="paint17_linear" x1="180.953" y1="528.312" x2="180.953" y2="614.612" gradientUnits="userSpaceOnUse">
<stop stop-color="#14A085"/>
<stop offset="1" stop-color="#14A085" stop-opacity="0"/>
</linearGradient>
<linearGradient id="paint18_linear" x1="214.666" y1="501.659" x2="214.666" y2="573.042" gradientUnits="userSpaceOnUse">
<stop stop-color="#14A085"/>
<stop offset="1" stop-color="#14A085" stop-opacity="0"/>
</linearGradient>
<linearGradient id="paint19_linear" x1="244.349" y1="479.5" x2="244.349" y2="530.526" gradientUnits="userSpaceOnUse">
<stop stop-color="#14A085"/>
<stop offset="1" stop-color="#14A085" stop-opacity="0"/>
</linearGradient>
<linearGradient id="paint20_linear" x1="28.5916" y1="416" x2="28.5916" y2="460" gradientUnits="userSpaceOnUse">
<stop stop-color="#FF449E"/>
<stop offset="1" stop-color="#FF449E" stop-opacity="0"/>
</linearGradient>
<linearGradient id="paint21_linear" x1="29.1601" y1="440.2" x2="29.1601" y2="450.467" gradientUnits="userSpaceOnUse">
<stop stop-color="#4FBA6F"/>
<stop offset="1" stop-color="#4FBA6F" stop-opacity="0"/>
</linearGradient>
<linearGradient id="paint22_linear" x1="486.433" y1="216.662" x2="445.554" y2="228.989" gradientUnits="userSpaceOnUse">
<stop stop-color="#4FBA6F"/>
<stop offset="1" stop-color="#4FBA6F" stop-opacity="0"/>
</linearGradient>
<linearGradient id="paint23_linear" x1="266.521" y1="-49.7584" x2="173.628" y2="-21.7462" gradientUnits="userSpaceOnUse">
<stop stop-color="#4FBA6F"/>
<stop offset="1" stop-color="#4FBA6F" stop-opacity="0"/>
</linearGradient>
<linearGradient id="paint24_linear" x1="319.845" y1="-15.4239" x2="228.78" y2="12.0373" gradientUnits="userSpaceOnUse">
<stop stop-color="#4FBA6F"/>
<stop offset="1" stop-color="#4FBA6F" stop-opacity="0"/>
</linearGradient>
<linearGradient id="paint25_linear" x1="370.454" y1="17.8983" x2="290.598" y2="41.9791" gradientUnits="userSpaceOnUse">
<stop stop-color="#4FBA6F"/>
<stop offset="1" stop-color="#4FBA6F" stop-opacity="0"/>
</linearGradient>
<linearGradient id="paint26_linear" x1="416.46" y1="60.0963" x2="343.442" y2="82.1153" gradientUnits="userSpaceOnUse">
<stop stop-color="#4FBA6F"/>
<stop offset="1" stop-color="#4FBA6F" stop-opacity="0"/>
</linearGradient>
<linearGradient id="paint27_linear" x1="451.762" y1="110.173" x2="385.617" y2="130.12" gradientUnits="userSpaceOnUse">
<stop stop-color="#4FBA6F"/>
<stop offset="1" stop-color="#4FBA6F" stop-opacity="0"/>
</linearGradient>
<linearGradient id="paint28_linear" x1="477.478" y1="163.443" x2="423.549" y2="179.705" gradientUnits="userSpaceOnUse">
<stop stop-color="#4FBA6F"/>
<stop offset="1" stop-color="#4FBA6F" stop-opacity="0"/>
</linearGradient>
<linearGradient id="paint29_linear" x1="203.779" y1="24.0811" x2="189.149" y2="28.4927" gradientUnits="userSpaceOnUse">
<stop stop-color="#527F72"/>
<stop offset="1" stop-color="#527F72" stop-opacity="0"/>
</linearGradient>
<linearGradient id="paint30_linear" x1="262.728" y1="47.7989" x2="244.226" y2="53.3782" gradientUnits="userSpaceOnUse">
<stop stop-color="#24AE5F"/>
<stop offset="1" stop-color="#24AE5F" stop-opacity="0"/>
</linearGradient>
<linearGradient id="paint31_linear" x1="313.906" y1="78.0827" x2="302.521" y2="81.5161" gradientUnits="userSpaceOnUse">
<stop stop-color="#24AE5F"/>
<stop offset="1" stop-color="#24AE5F" stop-opacity="0"/>
</linearGradient>
<linearGradient id="paint32_linear" x1="362.693" y1="114.852" x2="354.096" y2="117.445" gradientUnits="userSpaceOnUse">
<stop stop-color="#24AE5F"/>
<stop offset="1" stop-color="#24AE5F" stop-opacity="0"/>
</linearGradient>
<linearGradient id="paint33_linear" x1="405.023" y1="154.926" x2="394.091" y2="158.223" gradientUnits="userSpaceOnUse">
<stop stop-color="#24AE5F"/>
<stop offset="1" stop-color="#24AE5F" stop-opacity="0"/>
</linearGradient>
<linearGradient id="paint34_linear" x1="440.877" y1="194.736" x2="429.148" y2="198.273" gradientUnits="userSpaceOnUse">
<stop stop-color="#24AE5F"/>
<stop offset="1" stop-color="#24AE5F" stop-opacity="0"/>
</linearGradient>
<linearGradient id="paint35_linear" x1="466.285" y1="230.599" x2="452.111" y2="234.873" gradientUnits="userSpaceOnUse">
<stop stop-color="#24AE5F"/>
<stop offset="1" stop-color="#24AE5F" stop-opacity="0"/>
</linearGradient>
<linearGradient id="paint36_linear" x1="460.305" y1="250.714" x2="427.626" y2="260.568" gradientUnits="userSpaceOnUse">
<stop stop-color="#14A085"/>
<stop offset="1" stop-color="#14A085" stop-opacity="0"/>
</linearGradient>
<linearGradient id="paint37_linear" x1="208.428" y1="96.4663" x2="118.899" y2="123.464" gradientUnits="userSpaceOnUse">
<stop stop-color="#14A085"/>
<stop offset="1" stop-color="#14A085" stop-opacity="0"/>
</linearGradient>
<linearGradient id="paint38_linear" x1="265.267" y1="118.834" x2="179.554" y2="144.681" gradientUnits="userSpaceOnUse">
<stop stop-color="#14A085"/>
<stop offset="1" stop-color="#14A085" stop-opacity="0"/>
</linearGradient>
<linearGradient id="paint39_linear" x1="320.187" y1="142.465" x2="233.023" y2="168.75" gradientUnits="userSpaceOnUse">
<stop stop-color="#14A085"/>
<stop offset="1" stop-color="#14A085" stop-opacity="0"/>
</linearGradient>
<linearGradient id="paint40_linear" x1="369.202" y1="169.94" x2="286.577" y2="194.856" gradientUnits="userSpaceOnUse">
<stop stop-color="#14A085"/>
<stop offset="1" stop-color="#14A085" stop-opacity="0"/>
</linearGradient>
<linearGradient id="paint41_linear" x1="406.704" y1="201.986" x2="338.361" y2="222.595" gradientUnits="userSpaceOnUse">
<stop stop-color="#14A085"/>
<stop offset="1" stop-color="#14A085" stop-opacity="0"/>
</linearGradient>
<linearGradient id="paint42_linear" x1="438.471" y1="230.577" x2="389.617" y2="245.309" gradientUnits="userSpaceOnUse">
<stop stop-color="#14A085"/>
<stop offset="1" stop-color="#14A085" stop-opacity="0"/>
</linearGradient>
<linearGradient id="paint43_linear" x1="425.434" y1="93.7784" x2="138.282" y2="180.37" gradientUnits="userSpaceOnUse">
<stop stop-color="#527F72"/>
<stop offset="1" stop-color="#527F72" stop-opacity="0"/>
</linearGradient>
<linearGradient id="paint44_linear" x1="1022.92" y1="431.078" x2="1042.13" y2="385.106" gradientUnits="userSpaceOnUse">
<stop stop-color="#4FBA6F"/>
<stop offset="1" stop-color="#4FBA6F" stop-opacity="0"/>
</linearGradient>
<linearGradient id="paint45_linear" x1="1364.35" y1="404.737" x2="1408" y2="300.272" gradientUnits="userSpaceOnUse">
<stop stop-color="#4FBA6F"/>
<stop offset="1" stop-color="#4FBA6F" stop-opacity="0"/>
</linearGradient>
<linearGradient id="paint46_linear" x1="1303.22" y1="431.224" x2="1346.01" y2="328.815" gradientUnits="userSpaceOnUse">
<stop stop-color="#4FBA6F"/>
<stop offset="1" stop-color="#4FBA6F" stop-opacity="0"/>
</linearGradient>
<linearGradient id="paint47_linear" x1="1244.68" y1="455.873" x2="1282.2" y2="366.07" gradientUnits="userSpaceOnUse">
<stop stop-color="#4FBA6F"/>
<stop offset="1" stop-color="#4FBA6F" stop-opacity="0"/>
</linearGradient>
<linearGradient id="paint48_linear" x1="1182.94" y1="470.374" x2="1217.24" y2="388.26" gradientUnits="userSpaceOnUse">
<stop stop-color="#4FBA6F"/>
<stop offset="1" stop-color="#4FBA6F" stop-opacity="0"/>
</linearGradient>
<linearGradient id="paint49_linear" x1="1122.9" y1="469.749" x2="1153.97" y2="395.363" gradientUnits="userSpaceOnUse">
<stop stop-color="#4FBA6F"/>
<stop offset="1" stop-color="#4FBA6F" stop-opacity="0"/>
</linearGradient>
<linearGradient id="paint50_linear" x1="1067.15" y1="458.142" x2="1092.48" y2="397.496" gradientUnits="userSpaceOnUse">
<stop stop-color="#4FBA6F"/>
<stop offset="1" stop-color="#4FBA6F" stop-opacity="0"/>
</linearGradient>
<linearGradient id="paint51_linear" x1="1016.47" y1="384.313" x2="1031.82" y2="347.565" gradientUnits="userSpaceOnUse">
<stop stop-color="#FF449E"/>
<stop offset="1" stop-color="#FF449E" stop-opacity="0"/>
</linearGradient>
<linearGradient id="paint52_linear" x1="1299.54" y1="253.935" x2="1341.61" y2="153.254" gradientUnits="userSpaceOnUse">
<stop stop-color="#FF449E"/>
<stop offset="1" stop-color="#FF449E" stop-opacity="0"/>
</linearGradient>
<linearGradient id="paint53_linear" x1="1244.57" y1="291.618" x2="1284.84" y2="195.228" gradientUnits="userSpaceOnUse">
<stop stop-color="#FF449E"/>
<stop offset="1" stop-color="#FF449E" stop-opacity="0"/>
</linearGradient>
<linearGradient id="paint54_linear" x1="1190" y1="326.688" x2="1230.96" y2="228.666" gradientUnits="userSpaceOnUse">
<stop stop-color="#FF449E"/>
<stop offset="1" stop-color="#FF449E" stop-opacity="0"/>
</linearGradient>
<linearGradient id="paint55_linear" x1="1136.73" y1="353.747" x2="1175.56" y2="260.83" gradientUnits="userSpaceOnUse">
<stop stop-color="#FF449E"/>
<stop offset="1" stop-color="#FF449E" stop-opacity="0"/>
</linearGradient>
<linearGradient id="paint56_linear" x1="1088.09" y1="367.129" x2="1120.2" y2="290.273" gradientUnits="userSpaceOnUse">
<stop stop-color="#FF449E"/>
<stop offset="1" stop-color="#FF449E" stop-opacity="0"/>
</linearGradient>
<linearGradient id="paint57_linear" x1="1045.85" y1="377.504" x2="1068.8" y2="322.566" gradientUnits="userSpaceOnUse">
<stop stop-color="#FF449E"/>
<stop offset="1" stop-color="#FF449E" stop-opacity="0"/>
</linearGradient>
<linearGradient id="paint58_linear" x1="1331" y1="501" x2="1331" y2="545" gradientUnits="userSpaceOnUse">
<stop stop-color="#FF449E"/>
<stop offset="1" stop-color="#FF449E" stop-opacity="0"/>
</linearGradient>
<linearGradient id="paint59_linear" x1="1331.7" y1="525.2" x2="1331.7" y2="535.467" gradientUnits="userSpaceOnUse">
<stop stop-color="#4FBA6F"/>
<stop offset="1" stop-color="#4FBA6F" stop-opacity="0"/>
</linearGradient>
<linearGradient id="paint60_linear" x1="955.106" y1="240.461" x2="964.749" y2="191.581" gradientUnits="userSpaceOnUse">
<stop stop-color="#4FBA6F" stop-opacity="0"/>
<stop offset="1" stop-color="#4FBA6F"/>
</linearGradient>
<linearGradient id="paint61_linear" x1="686.169" y1="28.4723" x2="708.082" y2="-82.6023" gradientUnits="userSpaceOnUse">
<stop stop-color="#4FBA6F" stop-opacity="0"/>
<stop offset="1" stop-color="#4FBA6F"/>
</linearGradient>
<linearGradient id="paint62_linear" x1="722.198" y1="84.512" x2="743.68" y2="-24.3777" gradientUnits="userSpaceOnUse">
<stop stop-color="#4FBA6F" stop-opacity="0"/>
<stop offset="1" stop-color="#4FBA6F"/>
</linearGradient>
<linearGradient id="paint63_linear" x1="757.103" y1="137.584" x2="775.94" y2="42.0987" gradientUnits="userSpaceOnUse">
<stop stop-color="#4FBA6F" stop-opacity="0"/>
<stop offset="1" stop-color="#4FBA6F"/>
</linearGradient>
<linearGradient id="paint64_linear" x1="800.312" y1="184.006" x2="817.537" y2="96.6966" gradientUnits="userSpaceOnUse">
<stop stop-color="#4FBA6F" stop-opacity="0"/>
<stop offset="1" stop-color="#4FBA6F"/>
</linearGradient>
<linearGradient id="paint65_linear" x1="850.531" y1="216.917" x2="866.135" y2="137.825" gradientUnits="userSpaceOnUse">
<stop stop-color="#4FBA6F" stop-opacity="0"/>
<stop offset="1" stop-color="#4FBA6F"/>
</linearGradient>
<linearGradient id="paint66_linear" x1="903.303" y1="238.319" x2="916.024" y2="173.835" gradientUnits="userSpaceOnUse">
<stop stop-color="#4FBA6F" stop-opacity="0"/>
<stop offset="1" stop-color="#4FBA6F"/>
</linearGradient>
<linearGradient id="paint67_linear" x1="780.023" y1="9.16963" x2="784.387" y2="-12.9535" gradientUnits="userSpaceOnUse">
<stop stop-color="#006B2E"/>
<stop offset="1" stop-color="#24AE5F" stop-opacity="0"/>
</linearGradient>
<linearGradient id="paint68_linear" x1="812.029" y1="63.3621" x2="814.714" y2="49.7481" gradientUnits="userSpaceOnUse">
<stop stop-color="#006B2E"/>
<stop offset="1" stop-color="#24AE5F" stop-opacity="0"/>
</linearGradient>
<linearGradient id="paint69_linear" x1="850.157" y1="113.812" x2="852.185" y2="103.532" gradientUnits="userSpaceOnUse">
<stop stop-color="#006B2E"/>
<stop offset="1" stop-color="#24AE5F" stop-opacity="0"/>
</linearGradient>
<linearGradient id="paint70_linear" x1="891.117" y1="156.334" x2="893.695" y2="143.262" gradientUnits="userSpaceOnUse">
<stop stop-color="#006B2E"/>
<stop offset="1" stop-color="#24AE5F" stop-opacity="0"/>
</linearGradient>
<linearGradient id="paint71_linear" x1="931.467" y1="191.452" x2="934.233" y2="177.427" gradientUnits="userSpaceOnUse">
<stop stop-color="#006B2E"/>
<stop offset="1" stop-color="#24AE5F" stop-opacity="0"/>
</linearGradient>
<linearGradient id="paint72_linear" x1="967.438" y1="215.166" x2="970.781" y2="198.218" gradientUnits="userSpaceOnUse">
<stop stop-color="#006B2E"/>
<stop offset="1" stop-color="#24AE5F" stop-opacity="0"/>
</linearGradient>
<linearGradient id="paint73_linear" x1="986.505" y1="205.21" x2="994.213" y2="166.136" gradientUnits="userSpaceOnUse">
<stop stop-color="#FF449E"/>
<stop offset="1" stop-color="#FF449E" stop-opacity="0"/>
</linearGradient>
<linearGradient id="paint74_linear" x1="848.651" y1="1.2081" x2="868.871" y2="-101.282" gradientUnits="userSpaceOnUse">
<stop stop-color="#FF449E"/>
<stop offset="1" stop-color="#FF449E" stop-opacity="0"/>
</linearGradient>
<linearGradient id="paint75_linear" x1="874.448" y1="60.7207" x2="895.01" y2="-43.5037" gradientUnits="userSpaceOnUse">
<stop stop-color="#FF449E"/>
<stop offset="1" stop-color="#FF449E" stop-opacity="0"/>
</linearGradient>
<linearGradient id="paint76_linear" x1="903.628" y1="112.856" x2="923.118" y2="14.0595" gradientUnits="userSpaceOnUse">
<stop stop-color="#FF449E"/>
<stop offset="1" stop-color="#FF449E" stop-opacity="0"/>
</linearGradient>
<linearGradient id="paint77_linear" x1="936.582" y1="151.058" x2="952.704" y2="69.3383" gradientUnits="userSpaceOnUse">
<stop stop-color="#FF449E"/>
<stop offset="1" stop-color="#FF449E" stop-opacity="0"/>
</linearGradient>
<linearGradient id="paint78_linear" x1="965.892" y1="183.195" x2="977.416" y2="124.78" gradientUnits="userSpaceOnUse">
<stop stop-color="#FF449E"/>
<stop offset="1" stop-color="#FF449E" stop-opacity="0"/>
</linearGradient>
<linearGradient id="paint79_linear" x1="660.271" y1="127.002" x2="635.772" y2="163.551" gradientUnits="userSpaceOnUse">
<stop stop-color="#FF449E"/>
<stop offset="1" stop-color="#FF449E" stop-opacity="0"/>
</linearGradient>
<linearGradient id="paint80_linear" x1="646.215" y1="146.714" x2="640.498" y2="155.242" gradientUnits="userSpaceOnUse">
<stop stop-color="#4FBA6F" stop-opacity="0"/>
<stop offset="1" stop-color="#4FBA6F"/>
</linearGradient>
<linearGradient id="paint81_linear" x1="304" y1="642.353" x2="352.155" y2="655.132" gradientUnits="userSpaceOnUse">
<stop stop-color="#4FBA6F"/>
<stop offset="1" stop-color="#4FBA6F" stop-opacity="0"/>
</linearGradient>
<linearGradient id="paint82_linear" x1="376.512" y1="977.029" x2="485.94" y2="1006.07" gradientUnits="userSpaceOnUse">
<stop stop-color="#4FBA6F"/>
<stop offset="1" stop-color="#4FBA6F" stop-opacity="0"/>
</linearGradient>
<linearGradient id="paint83_linear" x1="341.96" y1="920.067" x2="449.236" y2="948.534" gradientUnits="userSpaceOnUse">
<stop stop-color="#4FBA6F"/>
<stop offset="1" stop-color="#4FBA6F" stop-opacity="0"/>
</linearGradient>
<linearGradient id="paint84_linear" x1="309.581" y1="865.417" x2="403.651" y2="890.38" gradientUnits="userSpaceOnUse">
<stop stop-color="#4FBA6F"/>
<stop offset="1" stop-color="#4FBA6F" stop-opacity="0"/>
</linearGradient>
<linearGradient id="paint85_linear" x1="286.821" y1="806.222" x2="372.837" y2="829.048" gradientUnits="userSpaceOnUse">
<stop stop-color="#4FBA6F"/>
<stop offset="1" stop-color="#4FBA6F" stop-opacity="0"/>
</linearGradient>
<linearGradient id="paint86_linear" x1="279.279" y1="746.655" x2="357.198" y2="767.333" gradientUnits="userSpaceOnUse">
<stop stop-color="#4FBA6F"/>
<stop offset="1" stop-color="#4FBA6F" stop-opacity="0"/>
</linearGradient>
<linearGradient id="paint87_linear" x1="283.198" y1="689.845" x2="346.726" y2="706.703" gradientUnits="userSpaceOnUse">
<stop stop-color="#4FBA6F"/>
<stop offset="1" stop-color="#4FBA6F" stop-opacity="0"/>
</linearGradient>
<linearGradient id="paint88_linear" x1="349.452" y1="629.602" x2="387.947" y2="639.818" gradientUnits="userSpaceOnUse">
<stop stop-color="#FF449E"/>
<stop offset="1" stop-color="#FF449E" stop-opacity="0"/>
</linearGradient>
<linearGradient id="paint89_linear" x1="517.103" y1="892.323" x2="622.568" y2="920.31" gradientUnits="userSpaceOnUse">
<stop stop-color="#FF449E"/>
<stop offset="1" stop-color="#FF449E" stop-opacity="0"/>
</linearGradient>
<linearGradient id="paint90_linear" x1="472.296" y1="842.979" x2="573.266" y2="869.774" gradientUnits="userSpaceOnUse">
<stop stop-color="#FF449E"/>
<stop offset="1" stop-color="#FF449E" stop-opacity="0"/>
</linearGradient>
<linearGradient id="paint91_linear" x1="430.134" y1="793.689" x2="532.813" y2="820.936" gradientUnits="userSpaceOnUse">
<stop stop-color="#FF449E"/>
<stop offset="1" stop-color="#FF449E" stop-opacity="0"/>
</linearGradient>
<linearGradient id="paint92_linear" x1="396.085" y1="744.595" x2="493.417" y2="770.423" gradientUnits="userSpaceOnUse">
<stop stop-color="#FF449E"/>
<stop offset="1" stop-color="#FF449E" stop-opacity="0"/>
</linearGradient>
<linearGradient id="paint93_linear" x1="376.213" y1="698.221" x2="456.721" y2="719.586" gradientUnits="userSpaceOnUse">
<stop stop-color="#FF449E"/>
<stop offset="1" stop-color="#FF449E" stop-opacity="0"/>
</linearGradient>
<linearGradient id="paint94_linear" x1="360.192" y1="657.784" x2="417.742" y2="673.056" gradientUnits="userSpaceOnUse">
<stop stop-color="#FF449E"/>
<stop offset="1" stop-color="#FF449E" stop-opacity="0"/>
</linearGradient>
<linearGradient id="paint95_linear" x1="511" y1="674" x2="511" y2="734" gradientUnits="userSpaceOnUse">
<stop stop-color="#FF449E"/>
<stop offset="1" stop-color="#FF449E" stop-opacity="0"/>
</linearGradient>
<linearGradient id="paint96_linear" x1="898" y1="700" x2="898" y2="737" gradientUnits="userSpaceOnUse">
<stop stop-color="#FF449E"/>
<stop offset="1" stop-color="#FF449E" stop-opacity="0"/>
</linearGradient>
<linearGradient id="paint97_linear" x1="981" y1="602" x2="981" y2="662" gradientUnits="userSpaceOnUse">
<stop stop-color="#FF449E"/>
<stop offset="1" stop-color="#FF449E" stop-opacity="0"/>
</linearGradient>
<linearGradient id="paint98_linear" x1="1216.64" y1="657.203" x2="1183.09" y2="666.106" gradientUnits="userSpaceOnUse">
<stop stop-color="#4FBA6F"/>
<stop offset="1" stop-color="#4FBA6F" stop-opacity="0"/>
</linearGradient>
<linearGradient id="paint99_linear" x1="1194.19" y1="996.11" x2="1117.96" y2="1016.34" gradientUnits="userSpaceOnUse">
<stop stop-color="#4FBA6F"/>
<stop offset="1" stop-color="#4FBA6F" stop-opacity="0"/>
</linearGradient>
<linearGradient id="paint100_linear" x1="1214.01" y1="940.404" x2="1139.27" y2="960.235" gradientUnits="userSpaceOnUse">
<stop stop-color="#4FBA6F"/>
<stop offset="1" stop-color="#4FBA6F" stop-opacity="0"/>
</linearGradient>
<linearGradient id="paint101_linear" x1="1232.46" y1="886.891" x2="1166.93" y2="904.281" gradientUnits="userSpaceOnUse">
<stop stop-color="#4FBA6F"/>
<stop offset="1" stop-color="#4FBA6F" stop-opacity="0"/>
</linearGradient>
<linearGradient id="paint102_linear" x1="1243.59" y1="827.831" x2="1183.67" y2="843.732" gradientUnits="userSpaceOnUse">
<stop stop-color="#4FBA6F"/>
<stop offset="1" stop-color="#4FBA6F" stop-opacity="0"/>
</linearGradient>
<linearGradient id="paint103_linear" x1="1243.72" y1="767.034" x2="1189.44" y2="781.439" gradientUnits="userSpaceOnUse">
<stop stop-color="#4FBA6F"/>
<stop offset="1" stop-color="#4FBA6F" stop-opacity="0"/>
</linearGradient>
<linearGradient id="paint104_linear" x1="1235.84" y1="708.062" x2="1191.59" y2="719.806" gradientUnits="userSpaceOnUse">
<stop stop-color="#4FBA6F"/>
<stop offset="1" stop-color="#4FBA6F" stop-opacity="0"/>
</linearGradient>
<linearGradient id="paint105_linear" x1="1182.77" y1="640.002" x2="1155.95" y2="647.118" gradientUnits="userSpaceOnUse">
<stop stop-color="#0E8C88"/>
<stop offset="1" stop-color="#0E8C88" stop-opacity="0.04"/>
</linearGradient>
<linearGradient id="paint106_linear" x1="1085.39" y1="896.191" x2="1011.92" y2="915.688" gradientUnits="userSpaceOnUse">
<stop stop-color="#0E8C88"/>
<stop offset="1" stop-color="#0E8C88" stop-opacity="0.04"/>
</linearGradient>
<linearGradient id="paint107_linear" x1="1113.27" y1="849.259" x2="1042.94" y2="867.925" gradientUnits="userSpaceOnUse">
<stop stop-color="#0E8C88"/>
<stop offset="1" stop-color="#0E8C88" stop-opacity="0.04"/>
</linearGradient>
<linearGradient id="paint108_linear" x1="1139.26" y1="802.146" x2="1067.73" y2="821.128" gradientUnits="userSpaceOnUse">
<stop stop-color="#0E8C88"/>
<stop offset="1" stop-color="#0E8C88" stop-opacity="0.04"/>
</linearGradient>
<linearGradient id="paint109_linear" x1="1159.41" y1="754.515" x2="1091.61" y2="772.508" gradientUnits="userSpaceOnUse">
<stop stop-color="#0E8C88"/>
<stop offset="1" stop-color="#0E8C88" stop-opacity="0.04"/>
</linearGradient>
<linearGradient id="paint110_linear" x1="1169.6" y1="708.43" x2="1113.51" y2="723.313" gradientUnits="userSpaceOnUse">
<stop stop-color="#0E8C88"/>
<stop offset="1" stop-color="#0E8C88" stop-opacity="0.04"/>
</linearGradient>
<linearGradient id="paint111_linear" x1="1177.54" y1="668.127" x2="1137.45" y2="678.766" gradientUnits="userSpaceOnUse">
<stop stop-color="#0E8C88"/>
<stop offset="1" stop-color="#0E8C88" stop-opacity="0.04"/>
</linearGradient>
<linearGradient id="paint112_linear" x1="71" y1="801" x2="71" y2="845" gradientUnits="userSpaceOnUse">
<stop stop-color="#FF449E"/>
<stop offset="1" stop-color="#FF449E" stop-opacity="0"/>
</linearGradient>
<linearGradient id="paint113_linear" x1="71.7" y1="825.2" x2="71.7" y2="835.467" gradientUnits="userSpaceOnUse">
<stop stop-color="#4FBA6F"/>
<stop offset="1" stop-color="#4FBA6F" stop-opacity="0"/>
</linearGradient>
<linearGradient id="paint114_linear" x1="138" y1="781" x2="138" y2="825" gradientUnits="userSpaceOnUse">
<stop stop-color="#FF449E"/>
<stop offset="1" stop-color="#FF449E" stop-opacity="0"/>
</linearGradient>
<linearGradient id="paint115_linear" x1="138.7" y1="805.2" x2="138.7" y2="815.467" gradientUnits="userSpaceOnUse">
<stop stop-color="#4FBA6F"/>
<stop offset="1" stop-color="#4FBA6F" stop-opacity="0"/>
</linearGradient>
<linearGradient id="paint116_linear" x1="316" y1="295" x2="316" y2="332" gradientUnits="userSpaceOnUse">
<stop stop-color="#FF449E"/>
<stop offset="1" stop-color="#FF449E" stop-opacity="0"/>
</linearGradient>
<clipPath id="clip0">
<rect width="1440" height="1024" fill="white"/>
</clipPath>
<clipPath id="clip1">
<rect x="-64" y="413" width="346" height="351" fill="white"/>
</clipPath>
<clipPath id="clip2">
<rect x="392.531" y="-152.099" width="426" height="351" transform="rotate(73.2191 392.531 -152.099)" fill="white"/>
</clipPath>
<clipPath id="clip3">
<rect x="1351.19" y="589.172" width="407.7" height="409.572" transform="rotate(-157.325 1351.19 589.172)" fill="white"/>
</clipPath>
<clipPath id="clip4">
<rect width="407.7" height="409.572" transform="matrix(0.98109 0.19355 0.19355 -0.98109 594.408 189.001)" fill="white"/>
</clipPath>
<clipPath id="clip5">
<rect x="192" y="989.062" width="407.7" height="409.572" transform="rotate(-75.1382 192 989.062)" fill="white"/>
</clipPath>
<clipPath id="clip6">
<rect width="430.339" height="285.319" transform="matrix(-0.256489 -0.966547 -0.966547 0.256489 1328.15 1024.94)" fill="white"/>
</clipPath>
</defs>
</svg>
