<svg width="441" height="428" viewBox="0 0 441 428" fill="none" xmlns="http://www.w3.org/2000/svg">
<g filter="url(#filter0_d)">
<ellipse cx="220.601" cy="214.075" rx="200.375" ry="193.305" fill="url(#paint0_linear)"/>
</g>
<ellipse cx="219.599" cy="340.947" rx="83.1558" ry="17.4823" fill="#35925D"/>
<g clip-path="url(#clip0)">
<path d="M168.827 201.786C140.214 174.837 107.855 158.357 81.3056 154.93C75.1275 154.133 70.0017 159.575 71.1666 165.694C76.174 191.992 94.5607 223.308 123.172 250.257C156.058 281.232 193.894 298.377 222.17 297.766C221.089 269.504 201.712 232.761 168.827 201.786Z" fill="#2FC8B4"/>
<path d="M360.695 154.93C334.144 158.356 301.786 174.837 273.174 201.786C240.288 232.761 220.911 269.504 219.83 297.766C248.106 298.378 285.942 281.232 318.828 250.257C347.441 223.308 365.827 191.992 370.834 165.695C371.998 159.575 366.873 154.133 360.695 154.93Z" fill="#2FC8B4"/>
<path d="M212.171 188.415C196.892 152.2 173.955 124.047 151.055 110.182C145.726 106.956 138.838 109.862 137.43 115.93C131.382 142.008 135.542 178.084 150.821 214.297C168.381 255.921 196.06 286.896 222.17 297.766C232.605 271.479 229.731 230.039 212.171 188.415Z" fill="#00AE95"/>
<path d="M304.569 115.93C303.161 109.862 296.272 106.955 290.944 110.182C268.044 124.046 245.107 152.2 229.828 188.415C212.268 230.038 209.394 271.478 219.829 297.766C245.939 286.896 273.617 255.922 291.178 214.298C306.457 178.083 310.617 142.008 304.569 115.93Z" fill="#00AE95"/>
<path d="M221.001 299.52C219.236 299.52 217.558 298.481 216.828 296.752L157.648 156.477C156.676 154.174 157.755 151.518 160.06 150.545C162.365 149.573 165.019 150.653 165.991 152.957L225.171 293.232C226.143 295.535 225.064 298.191 222.76 299.163C222.185 299.406 221.588 299.52 221.001 299.52Z" fill="#2FC8B4"/>
<path d="M220.997 299.52C220.411 299.52 219.814 299.405 219.239 299.163C216.936 298.191 215.856 295.536 216.828 293.231L276.008 152.957C276.98 150.653 279.635 149.573 281.939 150.545C284.243 151.517 285.322 154.172 284.351 156.476L225.171 296.752C224.441 298.481 222.764 299.52 220.997 299.52Z" fill="#2FC8B4"/>
<path d="M228.393 97.5275C224.738 92.4838 217.261 92.4838 213.606 97.5275C197.896 119.203 187.706 154.059 187.706 193.364C187.706 238.541 201.168 277.839 221 298.003C240.832 277.839 254.294 238.541 254.294 193.364C254.293 154.058 244.104 119.203 228.393 97.5275Z" fill="#2FC8B4"/>
<path d="M220.999 299.519C218.499 299.519 216.472 297.492 216.472 294.992V142.745C216.472 140.245 218.499 138.218 220.999 138.218C223.5 138.218 225.526 140.245 225.526 142.745V294.992C225.527 297.492 223.5 299.519 220.999 299.519Z" fill="#00AE95"/>
<path d="M219.977 300.229C218.864 300.229 217.749 299.821 216.874 298.997L106.047 194.61C104.227 192.896 104.141 190.031 105.856 188.211C107.57 186.391 110.435 186.305 112.255 188.019L223.082 292.406C224.902 294.121 224.988 296.986 223.273 298.806C222.383 299.752 221.181 300.229 219.977 300.229Z" fill="#00AE95"/>
<path d="M222.022 300.229C220.818 300.229 219.617 299.752 218.725 298.806C217.011 296.986 217.097 294.121 218.917 292.406L329.744 188.019C331.564 186.305 334.429 186.39 336.144 188.211C337.859 190.031 337.772 192.896 335.953 194.61L225.125 298.997C224.251 299.82 223.135 300.229 222.022 300.229Z" fill="#00AE95"/>
<path d="M80.5057 248.362L108.607 311.946C115.675 327.939 131.514 338.255 148.999 338.255H153.204H288.795H293C310.485 338.255 326.323 327.938 333.392 311.946L361.494 248.362L221 233.388L80.5057 248.362Z" fill="#FF5E6B"/>
<path d="M138.788 311.946L110.687 248.362L236.09 234.997L220.999 233.388L80.5057 248.362L108.607 311.946C115.675 327.939 131.514 338.254 148.999 338.254H153.204H179.18C161.695 338.255 145.856 327.939 138.788 311.946Z" fill="#E63E4C"/>
<path d="M361.494 218.414H80.5057C75.5686 218.414 71.5666 222.416 71.5666 227.353V239.423C71.5666 244.361 75.5686 248.363 80.5057 248.363H361.494C366.431 248.363 370.433 244.361 370.433 239.423V227.353C370.433 222.416 366.431 218.414 361.494 218.414Z" fill="#F0F0F0"/>
<path d="M101.748 239.423V227.353C101.748 222.417 105.75 218.414 110.687 218.414H80.5057C75.5686 218.414 71.5666 222.416 71.5666 227.353V239.423C71.5666 244.361 75.5686 248.363 80.5057 248.363H110.687C105.75 248.362 101.748 244.36 101.748 239.423Z" fill="#D9D9D9"/>
<path d="M165.857 297.203C163.357 297.203 161.33 295.177 161.33 292.676V282.697C161.33 280.196 163.357 278.17 165.857 278.17C168.358 278.17 170.384 280.196 170.384 282.697V292.676C170.385 295.176 168.358 297.203 165.857 297.203Z" fill="#3B484A"/>
<path d="M276.141 297.203C273.641 297.203 271.614 295.177 271.614 292.676V282.697C271.614 280.196 273.641 278.17 276.141 278.17C278.642 278.17 280.668 280.196 280.668 282.697V292.676C280.669 295.176 278.642 297.203 276.141 297.203Z" fill="#3B484A"/>
<path d="M220.999 302.53C214.388 302.53 208.186 299.771 203.981 294.961C202.336 293.078 202.527 290.218 204.41 288.573C206.292 286.928 209.152 287.119 210.798 289.002C213.283 291.845 217.001 293.476 220.999 293.476C224.997 293.476 228.715 291.846 231.2 289.003C232.845 287.12 235.705 286.928 237.588 288.574C239.471 290.219 239.663 293.079 238.017 294.962C233.813 299.771 227.61 302.53 220.999 302.53Z" fill="#3B484A"/>
</g>
<g clip-path="url(#clip1)">
<path d="M115.45 84.8116C114.994 84.3974 114.858 83.737 115.113 83.1765L115.644 82.0092C115.895 81.4486 115.757 80.7904 115.301 80.3777C114.846 79.9653 114.176 79.8921 113.641 80.1959L112.528 80.8283C111.991 81.134 111.317 81.0591 110.862 80.6421L109.919 79.7822C109.463 79.363 108.787 79.2869 108.249 79.5943C107.709 79.9015 107.431 80.5207 107.56 81.126L107.815 82.3787C107.91 82.8489 107.759 83.3351 107.413 83.6693L115.852 85.1795L115.45 84.8116Z" fill="#FFE165"/>
<path d="M116.395 85.67L115.851 85.1742L107.42 83.6552C107.337 83.7459 107.242 83.825 107.138 83.891L106.026 84.5222C105.488 84.8269 105.208 85.443 105.333 86.0473C105.458 86.6514 105.96 87.1057 106.574 87.1714L107.845 87.3113C108.457 87.3776 108.958 87.8297 109.083 88.4316L109.339 89.6839C109.463 90.2871 109.961 90.7413 110.575 90.8094C111.187 90.8772 111.775 90.5437 112.031 89.9829L112.561 88.8162C112.816 88.2551 113.403 87.9213 114.016 87.9891L115.287 88.1294C115.896 88.1897 116.477 87.8548 116.728 87.2974C116.979 86.7393 116.845 86.0839 116.395 85.67Z" fill="#FFD839"/>
<path d="M73.6466 65.2622C74.2168 65.0188 74.5641 64.4344 74.5045 63.8181C74.4449 63.2019 73.9925 62.6955 73.3856 62.5666L67.2302 61.228C67.0437 61.1833 66.8683 61.1005 66.7158 60.9843L52.523 70.7335L51.7685 72.0206C51.4559 72.5518 51.5212 73.2234 51.931 73.6836C52.3403 74.1434 53.0007 74.2882 53.5663 74.0401L59.3399 71.5155C59.9051 71.2711 60.5646 71.4177 60.972 71.8782L65.1549 76.5751C65.5635 77.0378 66.2249 77.1838 66.7914 76.9369C67.3585 76.6903 67.7017 76.1062 67.6403 75.4921L67.0205 69.225C66.9606 68.6125 67.3022 68.0299 67.8675 67.7824L73.6466 65.2622Z" fill="#FF9811"/>
<path d="M66.1173 59.9827L65.5042 53.7254C65.4395 53.1174 64.992 52.6198 64.3944 52.4895C63.7962 52.3589 63.1809 52.6244 62.8669 53.1493L59.6707 58.575C59.3583 59.1071 58.7386 59.3781 58.1364 59.2462L51.9849 57.9002C51.3821 57.768 50.7617 58.0386 50.4497 58.5701C50.1368 59.1019 50.2027 59.7738 50.6129 60.2334L54.7952 64.93C55.2044 65.3899 55.2703 66.0618 54.9577 66.5929L52.5234 70.7337L66.7113 60.982C66.3786 60.75 66.1623 60.3859 66.1173 59.9827Z" fill="#FFAF46"/>
<path d="M86.5744 98.2827L84.6947 79.1185C84.5752 77.8928 83.6781 76.8848 82.4727 76.6213C81.267 76.3584 80.0285 76.9001 79.4042 77.9637L69.6363 94.5859C69.012 95.648 67.7736 96.1897 66.5694 95.9268L47.7248 91.8124C46.5192 91.5479 45.2788 92.0887 44.6539 93.152C44.029 94.2153 44.1608 95.5591 44.9808 96.4788L57.7892 110.865C58.6083 111.786 58.7407 113.128 58.1158 114.191L49.4185 128.988L87.1995 99.7693C86.8494 99.3463 86.6319 98.8291 86.5744 98.2827V98.2827Z" fill="#FFD839"/>
<path d="M108.168 110.274C109.297 109.779 109.98 108.616 109.861 107.392C109.741 106.168 108.846 105.16 107.643 104.896L88.7958 100.78C88.1627 100.636 87.5989 100.28 87.1995 99.7693L49.4185 128.988L48.3445 130.811C47.719 131.874 47.8505 133.217 48.6696 134.137C49.4896 135.057 50.8097 135.345 51.9402 134.85L69.623 127.12C70.7538 126.626 72.0739 126.914 72.8927 127.833L85.701 142.221C86.5185 143.143 87.8392 143.433 88.9706 142.939C90.102 142.446 90.7872 141.281 90.668 140.055L88.7883 120.888C88.6684 119.663 89.353 118.498 90.4832 118.004L108.168 110.274Z" fill="#FFCD00"/>
</g>
<defs>
<filter id="filter0_d" x="0.225235" y="0.769928" width="440.751" height="426.609" filterUnits="userSpaceOnUse" color-interpolation-filters="sRGB">
<feFlood flood-opacity="0" result="BackgroundImageFix"/>
<feColorMatrix in="SourceAlpha" type="matrix" values="0 0 0 0 0 0 0 0 0 0 0 0 0 0 0 0 0 0 127 0"/>
<feOffset/>
<feGaussianBlur stdDeviation="10"/>
<feColorMatrix type="matrix" values="0 0 0 0 0.3625 0 0 0 0 0.3625 0 0 0 0 0.3625 0 0 0 0.37 0"/>
<feBlend mode="normal" in2="BackgroundImageFix" result="effect1_dropShadow"/>
<feBlend mode="normal" in="SourceGraphic" in2="effect1_dropShadow" result="shape"/>
</filter>
<linearGradient id="paint0_linear" x1="220.601" y1="20.7699" x2="220.601" y2="407.379" gradientUnits="userSpaceOnUse">
<stop stop-color="#20968A"/>
<stop offset="1" stop-color="#90D6A2"/>
</linearGradient>
<clipPath id="clip0">
<rect x="71" y="66" width="300" height="300" fill="white"/>
</clipPath>
<clipPath id="clip1">
<rect width="80" height="80" transform="matrix(0.888563 0.458755 -0.460847 0.88748 53.8678 47)" fill="white"/>
</clipPath>
</defs>
</svg>
