<svg width="350" height="500" viewBox="0 0 350 500" fill="none" xmlns="http://www.w3.org/2000/svg">
<rect y="0.402679" width="350" height="500" fill="url(#paint0_linear)"/>
<g clip-path="url(#clip0)">
<path d="M160.317 114.102C162.806 114.102 165.373 114.35 168.004 114.849C180.868 117.288 194.643 125.591 208.947 139.529C238.678 168.496 243.188 220.515 243.366 222.716C243.469 223.988 242.998 225.24 242.078 226.143C241.157 227.046 239.879 227.511 238.58 227.411C236.341 227.241 183.394 222.915 153.67 193.954C139.351 180.003 130.765 166.6 128.15 154.12C126.028 143.997 127.928 134.839 133.637 127.354C109.7 108.434 84.2185 92.7696 64.1266 81.5715C61.7554 80.2498 59.4219 78.9697 57.1298 77.7291C60.2591 84.3228 63.7958 93.815 66.5309 106.74C82.8438 107.348 99.4352 122.822 101.639 157.346C103.716 189.882 75.1319 217.386 73.9141 218.54C72.3392 220.035 69.8893 220.184 68.1372 218.894C66.782 217.897 34.9231 194.094 32.847 161.558C30.8092 129.63 43.0523 112.362 57.6457 107.894C56.14 100.9 54.4419 95.1876 52.8414 90.6859C48.0428 77.1879 43.0958 71.3542 42.9726 71.2109C42.9695 71.2073 42.9663 71.2043 42.9637 71.2007C41.9792 70.0859 40.7781 69.1678 39.4391 68.4941C18.9541 58.1823 4.93635 52.441 4.7471 52.364C2.47494 51.4382 1.39863 48.8841 2.34335 46.6582C3.0553 44.9801 4.71302 43.968 6.45986 43.968C7.02973 43.968 7.60957 44.0758 8.16843 44.3033C8.43161 44.4106 34.8817 55.2369 68.4209 73.9211C73.3809 76.6842 78.667 79.7184 84.1739 83.0005C87.3184 80.5774 98.3153 73.1688 120.777 68.0509C121.219 53.5198 135.303 38.5523 167.116 35.914C168.559 35.7944 169.989 35.7374 171.411 35.7374C199.696 35.7374 223.371 58.3235 224.414 59.332C225.973 60.8411 226.18 63.2365 224.902 64.9808C224.005 66.2055 202.585 95.0017 172.441 97.5013C158.065 98.6947 145.6 96.7871 136.391 91.9896C129.298 88.2941 124.409 83.0005 122.162 76.7417C106.33 80.4398 96.914 85.2465 92.43 88.0142C107.633 97.4115 124.074 108.534 139.863 121.062C145.721 116.46 152.651 114.102 160.317 114.102ZM47.6711 127.127C42.9087 135.448 40.8583 147.166 41.7417 161.013C43.2075 183.976 62.7588 202.86 70.4324 209.428C77.2138 201.972 94.2093 180.852 92.744 157.89C91.8601 144.043 88.3355 132.667 82.5523 124.991C78.4741 119.579 73.5633 116.391 68.1834 115.621C70.1022 127.512 71.298 141.816 71.0925 158.845C71.0631 161.255 69.0699 163.191 66.5838 163.158C64.123 163.129 62.1517 161.152 62.1806 158.742C62.3845 141.855 61.1399 127.876 59.2814 116.546C54.6689 118.23 50.7134 121.811 47.6711 127.127ZM169.23 71.6212C154.081 71.7727 141.435 73.0764 131.003 74.9296C132.68 78.6703 135.913 81.8529 140.576 84.2822C148.268 88.2894 159.027 89.8525 171.688 88.8029C192.348 87.0899 209.07 70.0232 215.172 62.9428C207.939 56.9658 188.525 42.8943 167.868 44.6114C155.206 45.6615 144.869 48.974 137.975 54.191C133.362 57.6816 130.622 61.79 129.883 66.2296C140.713 64.3472 153.702 63.046 169.138 62.892C169.154 62.892 169.169 62.892 169.185 62.892C171.624 62.892 173.615 64.817 173.64 67.2119C173.665 69.6227 171.691 71.5966 169.23 71.6212ZM136.88 152.365C139.105 162.983 147.084 175.224 159.955 187.765C182.056 209.299 219.835 216.205 233.84 218.088C231.894 204.348 224.766 167.253 202.661 145.717C189.818 133.203 177.248 125.493 166.31 123.419C158.855 122.005 152.352 123.143 146.912 126.794C156.805 135.03 166.321 143.813 174.968 153.067C176.697 154.918 176.491 157.832 174.459 159.426C172.602 160.881 169.886 160.556 168.279 158.838C159.744 149.715 150.325 141.053 140.525 132.929C136.544 138.358 135.31 144.874 136.88 152.365Z" fill="white" fill-opacity="0.24"/>
<path d="M114.547 77.6543C114.547 79.0943 114.291 80.2303 113.779 81.0623C113.267 81.8623 112.515 82.6143 111.523 83.3183C111.267 83.4783 110.915 83.6703 110.467 83.8943C110.019 84.1183 109.523 84.3263 108.979 84.5183C108.435 84.7103 107.859 84.8703 107.251 84.9983C106.643 85.1263 106.083 85.1903 105.571 85.1903C104.131 85.1903 103.043 85.0303 102.307 84.7103C101.571 84.4223 101.203 84.0703 101.203 83.6543C101.203 83.2063 101.331 82.8383 101.587 82.5503C101.843 82.2623 102.067 82.1023 102.259 82.0703L102.787 82.4543C102.947 82.6143 103.171 82.7903 103.459 82.9823C103.747 83.1423 104.211 83.2223 104.851 83.2223C105.459 83.2223 106.195 83.1263 107.059 82.9343C107.923 82.7103 108.739 82.3903 109.507 81.9743C110.307 81.5263 110.979 80.9823 111.523 80.3423C112.099 79.7023 112.387 78.9663 112.387 78.1343C112.387 77.3983 111.827 76.7263 110.707 76.1183C109.619 75.4783 107.891 75.0463 105.523 74.8223C104.307 74.7263 103.107 74.5823 101.923 74.3903C100.739 74.1663 99.6673 73.8783 98.7073 73.5263C97.7793 73.1423 97.0273 72.6783 96.4513 72.1343C95.8753 71.5583 95.5873 70.8543 95.5873 70.0223C95.5873 69.2223 95.8113 68.4543 96.2593 67.7183C96.7073 66.9823 97.2513 66.3103 97.8913 65.7023C98.5633 65.0623 99.2513 64.5023 99.9553 64.0223C100.659 63.5423 101.251 63.1423 101.731 62.8223C102.115 62.5983 102.643 62.3103 103.315 61.9583C104.019 61.5743 104.755 61.2223 105.523 60.9023C106.323 60.5503 107.107 60.2623 107.875 60.0383C108.675 59.7823 109.347 59.6543 109.891 59.6543C110.531 59.6543 110.963 59.8303 111.187 60.1823C111.411 60.5343 111.523 61.0303 111.523 61.6703C111.523 62.2143 111.459 62.7903 111.331 63.3983C111.203 64.0063 111.059 64.5983 110.899 65.1743C110.739 65.7503 110.579 66.2623 110.419 66.7103C110.291 67.1263 110.195 67.3983 110.131 67.5263C110.003 67.8143 109.859 68.0063 109.699 68.1023C109.539 68.1983 109.427 68.2463 109.363 68.2463C109.235 68.2463 109.171 68.1663 109.171 68.0063C109.171 67.9103 109.187 67.7343 109.219 67.4783C109.283 67.1903 109.347 66.8543 109.411 66.4703C109.507 66.0863 109.571 65.6703 109.603 65.2223C109.667 64.7743 109.699 64.3263 109.699 63.8783C109.699 63.1743 109.667 62.6623 109.603 62.3423C109.539 62.0223 109.283 61.8623 108.835 61.8623C108.387 61.8623 107.779 61.9903 107.011 62.2463C106.243 62.4703 105.459 62.7583 104.659 63.1103C103.795 63.4943 102.947 63.9903 102.115 64.5983C101.315 65.2063 100.595 65.8303 99.9553 66.4703C99.3153 67.1103 98.7873 67.7343 98.3713 68.3423C97.9873 68.9183 97.7953 69.3823 97.7953 69.7343C97.7953 70.1183 98.0513 70.4863 98.5633 70.8383C99.1073 71.1583 99.7793 71.4463 100.579 71.7023C101.411 71.9583 102.323 72.1823 103.315 72.3743C104.307 72.5663 105.283 72.7103 106.243 72.8063C107.043 72.9023 107.923 73.0303 108.883 73.1903C109.843 73.3503 110.739 73.6063 111.571 73.9583C112.403 74.3103 113.107 74.7903 113.683 75.3983C114.259 75.9743 114.547 76.7263 114.547 77.6543ZM129.91 62.9183C129.494 63.3983 128.902 63.8783 128.134 64.3583C127.366 64.8063 126.598 65.2223 125.83 65.6063C125.062 65.9903 124.39 66.3263 123.814 66.6143C123.238 66.8703 122.95 67.0463 122.95 67.1423C122.95 67.2383 123.014 67.5263 123.142 68.0063C123.27 68.4863 123.414 69.0623 123.574 69.7343C123.766 70.3743 123.958 71.0463 124.15 71.7503C124.342 72.4543 124.502 73.0783 124.63 73.6223C124.694 73.9423 124.774 74.3583 124.87 74.8703C124.966 75.3823 125.046 75.8943 125.11 76.4063C125.206 76.9183 125.286 77.3823 125.35 77.7983C125.414 78.1823 125.446 78.3903 125.446 78.4223C125.446 78.9023 125.366 79.3983 125.206 79.9103C125.046 80.4223 124.79 80.6783 124.438 80.6783C124.246 80.6783 124.07 80.5983 123.91 80.4383C123.75 80.2783 123.606 80.1023 123.478 79.9103C123.35 79.6863 123.254 79.4783 123.19 79.2863C123.126 79.0943 123.094 78.9503 123.094 78.8543C123.094 78.7903 123.094 78.6943 123.094 78.5663C123.126 78.4383 123.142 78.2943 123.142 78.1343C123.142 77.5263 123.046 76.6463 122.854 75.4943C122.79 75.1423 122.662 74.5983 122.47 73.8623C122.278 73.1263 122.086 72.3743 121.894 71.6063C121.67 70.7103 121.414 69.7343 121.126 68.6783C120.998 68.2303 120.918 68.0063 120.886 68.0063C120.662 68.0063 120.278 68.1503 119.734 68.4383C119.222 68.6943 118.63 69.0303 117.958 69.4463C117.286 69.8303 116.582 70.2623 115.846 70.7423C115.11 71.1903 114.422 71.6223 113.782 72.0383C113.142 72.4223 112.598 72.7583 112.15 73.0463C111.67 73.3023 111.382 73.4303 111.286 73.4303C110.87 73.4303 110.534 73.2863 110.278 72.9983C110.022 72.7103 109.894 72.3903 109.894 72.0383C109.894 71.8463 110.166 71.5743 110.71 71.2223C111.222 70.8383 111.878 70.4223 112.678 69.9743C113.446 69.5263 114.294 69.0623 115.222 68.5823C116.118 68.1023 116.95 67.6703 117.718 67.2863C118.518 66.9023 119.174 66.5823 119.686 66.3263C120.23 66.0703 120.502 65.9423 120.502 65.9423C120.214 64.4703 119.974 63.1583 119.782 62.0063C119.622 61.0143 119.462 60.1023 119.302 59.2703C119.174 58.4383 119.11 57.9903 119.11 57.9263C119.11 57.5103 119.19 57.2063 119.35 57.0143C119.542 56.7903 119.75 56.6783 119.974 56.6783C120.326 56.6783 120.55 56.9183 120.646 57.3983C120.998 59.1263 121.318 60.6623 121.606 62.0063C121.926 63.3503 122.23 64.4383 122.518 65.2703C122.806 65.2063 123.302 65.0303 124.006 64.7423C124.71 64.4223 125.446 64.0863 126.214 63.7343C126.982 63.3823 127.67 63.0783 128.278 62.8223C128.918 62.5343 129.286 62.3903 129.382 62.3903C129.574 62.3903 129.686 62.4543 129.718 62.5823C129.782 62.7103 129.846 62.8223 129.91 62.9183ZM145.862 79.5743C145.894 79.6383 145.91 79.7343 145.91 79.8623C145.91 80.0543 145.766 80.3423 145.478 80.7263C145.382 80.8543 145.174 81.0623 144.854 81.3503C144.534 81.6383 144.102 81.9263 143.558 82.2143C143.014 82.5023 142.342 82.7583 141.542 82.9823C140.774 83.2063 139.862 83.3183 138.806 83.3183C138.07 83.3183 137.35 83.1583 136.646 82.8383C135.942 82.4863 135.318 81.9903 134.774 81.3503C134.23 80.6783 133.782 79.8623 133.43 78.9023C133.078 77.9103 132.902 76.7583 132.902 75.4463C132.902 74.1983 133.062 73.0303 133.382 71.9423C133.702 70.8543 134.102 69.8943 134.582 69.0623C135.094 68.2303 135.654 67.5743 136.262 67.0943C136.87 66.6143 137.462 66.3743 138.038 66.3743C138.55 66.3743 139.062 66.4863 139.574 66.7103C140.118 66.9023 140.598 67.1583 141.014 67.4783C141.462 67.7983 141.814 68.1663 142.07 68.5823C142.326 68.9663 142.454 69.3663 142.454 69.7823C142.454 70.2623 142.23 70.7583 141.782 71.2703C141.366 71.7823 140.854 72.2623 140.246 72.7103C139.638 73.1263 139.03 73.4783 138.422 73.7663C137.814 74.0223 137.334 74.1503 136.982 74.1503C136.79 74.1503 136.614 74.0703 136.454 73.9103C136.326 73.7183 136.262 73.4943 136.262 73.2383C136.262 72.7903 136.454 72.4383 136.838 72.1823C137.254 71.9263 137.702 71.7023 138.182 71.5103C138.662 71.2863 139.094 71.0303 139.478 70.7423C139.894 70.4543 140.102 70.0543 140.102 69.5423C140.102 69.4783 140.022 69.3183 139.862 69.0623C139.702 68.8063 139.27 68.6783 138.566 68.6783C138.246 68.6783 137.878 68.8703 137.462 69.2543C137.046 69.6063 136.646 70.1023 136.262 70.7423C135.878 71.3503 135.558 72.0863 135.302 72.9503C135.046 73.7823 134.918 74.6943 134.918 75.6863C134.918 76.5183 135.062 77.2703 135.35 77.9423C135.67 78.6143 136.07 79.1903 136.55 79.6703C137.03 80.1183 137.59 80.4703 138.23 80.7263C138.87 80.9823 139.526 81.1103 140.198 81.1103C140.678 81.1103 141.19 81.0143 141.734 80.8223C142.31 80.5983 142.838 80.3743 143.318 80.1503C143.83 79.8943 144.262 79.6703 144.614 79.4783C144.998 79.2543 145.238 79.1423 145.334 79.1423C145.43 79.1423 145.526 79.1903 145.622 79.2863C145.75 79.3823 145.83 79.4783 145.862 79.5743ZM164.66 70.7423C164.66 71.5743 164.42 72.3743 163.94 73.1423C163.492 73.9103 162.932 74.6303 162.26 75.3023C161.588 75.9423 160.852 76.5503 160.052 77.1263C159.252 77.6703 158.516 78.1503 157.844 78.5663C157.204 79.0143 156.676 79.3823 156.26 79.6703C155.844 79.9583 155.636 80.1823 155.636 80.3423C155.636 80.7583 155.684 81.3503 155.78 82.1183C155.876 82.8543 155.988 83.6703 156.116 84.5663C156.276 85.4303 156.42 86.3263 156.548 87.2543C156.708 88.1823 156.82 89.0303 156.884 89.7983C156.884 89.8303 156.9 89.9743 156.932 90.2303C156.996 90.4863 157.06 90.7743 157.124 91.0943C157.22 91.4143 157.284 91.7023 157.316 91.9583C157.38 92.2463 157.412 92.4223 157.412 92.4863C157.412 92.7103 157.396 92.9503 157.364 93.2063C157.364 93.4943 157.316 93.7503 157.22 93.9743C157.156 94.2303 157.044 94.4383 156.884 94.5983C156.724 94.7583 156.516 94.8383 156.26 94.8383C155.908 94.8383 155.652 94.6783 155.492 94.3583C155.332 94.0703 155.252 93.7823 155.252 93.4943C155.252 93.4303 155.252 93.3663 155.252 93.3023C155.284 93.2383 155.3 93.1583 155.3 93.0623C155.3 92.7103 155.172 91.7663 154.916 90.2303C154.66 88.6943 154.372 86.8543 154.052 84.7103C153.732 82.5983 153.444 80.3263 153.188 77.8943C152.932 75.4303 152.804 73.1103 152.804 70.9343C152.804 70.7743 152.82 70.5983 152.852 70.4063C152.884 70.1823 152.9 69.9903 152.9 69.8303C152.58 69.8623 152.1 70.0063 151.46 70.2623C150.852 70.5183 150.244 70.8383 149.636 71.2223C149.028 71.5743 148.484 71.9583 148.004 72.3743C147.556 72.7583 147.332 73.1103 147.332 73.4303H146.996C146.9 73.4303 146.788 73.3663 146.66 73.2383C146.5 73.1103 146.372 72.9663 146.276 72.8063C146.148 72.6463 146.036 72.4863 145.94 72.3263C145.844 72.1663 145.796 72.0543 145.796 71.9903C145.796 71.3183 146.196 70.6943 146.996 70.1183C147.796 69.5103 148.788 68.9823 149.972 68.5343C151.188 68.0543 152.516 67.6863 153.956 67.4303C155.396 67.1423 156.756 66.9983 158.036 66.9983C159.284 66.9983 160.324 67.1423 161.156 67.4303C162.02 67.7183 162.708 68.0703 163.22 68.4863C163.732 68.8703 164.1 69.2703 164.324 69.6863C164.548 70.1023 164.66 70.4543 164.66 70.7423ZM162.308 70.5983C162.308 70.2783 161.908 69.9583 161.108 69.6383C160.308 69.2863 159.364 69.1103 158.276 69.1103C157.316 69.1103 156.612 69.1423 156.164 69.2063C155.716 69.2703 155.412 69.3343 155.252 69.3983C155.188 69.9103 155.14 70.5183 155.108 71.2223C155.076 71.9263 155.06 72.6463 155.06 73.3823C155.06 74.1503 155.076 74.9023 155.108 75.6383C155.172 76.3423 155.236 76.9343 155.3 77.4143C155.748 77.1263 156.356 76.7423 157.124 76.2623C157.924 75.7503 158.708 75.1903 159.476 74.5823C160.244 73.9423 160.9 73.2863 161.444 72.6143C162.02 71.9103 162.308 71.2383 162.308 70.5983ZM106.099 126.278C106.099 126.822 105.907 127.302 105.523 127.718C105.171 128.102 104.707 128.438 104.131 128.726C103.587 128.982 102.979 129.19 102.307 129.35C101.635 129.51 100.995 129.638 100.387 129.734C99.7793 129.798 99.2353 129.846 98.7553 129.878C98.3073 129.878 98.0193 129.878 97.8913 129.878C97.1873 129.878 96.6433 129.766 96.2593 129.542C95.8753 129.318 95.6833 128.918 95.6833 128.342C95.6833 128.15 95.6993 127.99 95.7313 127.862C95.7633 127.702 95.8913 127.622 96.1153 127.622C96.2113 127.622 96.3713 127.654 96.5953 127.718C96.8193 127.75 96.9953 127.766 97.1233 127.766C97.2513 127.766 97.6513 127.75 98.3233 127.718C99.0273 127.654 99.7633 127.558 100.531 127.43C101.331 127.302 102.035 127.126 102.643 126.902C103.283 126.646 103.603 126.326 103.603 125.942C103.603 125.878 103.267 125.686 102.595 125.366C101.955 125.014 100.979 124.438 99.6673 123.638C98.6433 122.998 97.9233 122.358 97.5073 121.718C97.0913 121.046 96.8833 120.15 96.8833 119.03C96.8833 118.326 97.0273 117.75 97.3153 117.302C97.6353 116.854 98.0513 116.502 98.5633 116.246C99.1073 115.99 99.7153 115.814 100.387 115.718C101.091 115.59 101.827 115.526 102.595 115.526C102.659 115.526 102.851 115.558 103.171 115.622C103.523 115.686 103.891 115.798 104.275 115.958C104.659 116.086 104.995 116.262 105.283 116.486C105.603 116.678 105.763 116.902 105.763 117.158C105.763 117.222 105.699 117.318 105.571 117.446C105.475 117.574 105.299 117.814 105.043 118.166C104.947 118.134 104.771 118.086 104.515 118.022C104.291 117.958 104.019 117.894 103.699 117.83C103.411 117.734 103.107 117.67 102.787 117.638C102.467 117.574 102.211 117.542 102.019 117.542C101.187 117.542 100.515 117.702 100.003 118.022C99.4913 118.31 99.2353 118.886 99.2353 119.75C99.2353 120.166 99.3953 120.55 99.7153 120.902C100.067 121.254 100.499 121.59 101.011 121.91C101.523 122.198 102.067 122.502 102.643 122.822C103.251 123.11 103.811 123.43 104.323 123.782C104.835 124.134 105.251 124.518 105.571 124.934C105.923 125.318 106.099 125.766 106.099 126.278Z" fill="black"/>
</g>
<g clip-path="url(#clip1)">
<path d="M124.775 443.984C126.375 443.984 128.026 443.845 129.717 443.566C137.987 442.203 146.842 437.561 156.038 429.77C175.15 413.577 178.05 384.498 178.164 383.268C178.23 382.557 177.927 381.857 177.336 381.352C176.744 380.848 175.923 380.588 175.087 380.644C173.648 380.739 139.61 383.157 120.502 399.346C111.297 407.145 105.777 414.637 104.096 421.613C102.733 427.272 103.954 432.392 107.624 436.576C92.2361 447.152 75.855 455.909 62.9388 462.169C61.4144 462.907 59.9143 463.623 58.4409 464.317C60.4526 460.631 62.7262 455.324 64.4844 448.099C74.9713 447.759 85.6372 439.109 87.054 419.81C88.389 401.622 70.0137 386.248 69.2308 385.602C68.2183 384.767 66.6434 384.684 65.5171 385.404C64.6459 385.962 44.1651 399.268 42.8305 417.456C41.5205 435.304 49.3911 444.957 58.7725 447.454C57.8046 451.364 56.7129 454.557 55.684 457.074C52.5992 464.619 49.419 467.88 49.3398 467.96C49.3378 467.962 49.3358 467.964 49.3341 467.966C48.7012 468.589 47.929 469.102 47.0683 469.479C33.8993 475.243 24.8879 478.453 24.7663 478.496C23.3056 479.013 22.6137 480.441 23.221 481.685C23.6787 482.623 24.7444 483.189 25.8673 483.189C26.2337 483.189 26.6064 483.129 26.9657 483.002C27.1349 482.942 44.1385 476.89 65.6994 466.445C68.888 464.901 72.2862 463.205 75.8263 461.37C77.8478 462.724 84.9173 466.866 99.3571 469.727C99.6409 477.85 108.695 486.217 129.147 487.691C130.074 487.758 130.993 487.79 131.907 487.79C150.09 487.79 165.31 475.164 165.981 474.601C166.983 473.757 167.116 472.418 166.295 471.443C165.718 470.758 151.948 454.661 132.569 453.264C123.328 452.597 115.314 453.663 109.394 456.345C104.835 458.411 101.692 461.37 100.248 464.869C90.0697 462.801 84.0164 460.114 81.1338 458.567C90.9072 453.314 101.477 447.097 111.626 440.093C115.392 442.666 119.847 443.984 124.775 443.984ZM52.3603 436.703C49.2987 432.051 47.9806 425.501 48.5485 417.761C49.4908 404.924 62.0595 394.368 66.9926 390.696C71.352 394.864 82.2777 406.67 81.3357 419.506C80.7675 427.247 78.5017 433.606 74.7839 437.897C72.1622 440.922 69.0053 442.704 65.5467 443.135C66.7802 436.487 67.549 428.492 67.4169 418.972C67.398 417.625 66.1166 416.543 64.5185 416.562C62.9365 416.578 61.6692 417.683 61.6878 419.03C61.8189 428.47 61.0188 436.284 59.824 442.617C56.8589 441.676 54.316 439.674 52.3603 436.703ZM130.505 467.731C120.767 467.646 112.637 466.917 105.931 465.882C107.009 463.79 109.087 462.011 112.085 460.653C117.029 458.413 123.946 457.54 132.085 458.126C145.367 459.084 156.117 468.624 160.04 472.582C155.389 475.923 142.909 483.789 129.63 482.83C121.49 482.243 114.844 480.391 110.413 477.475C107.447 475.523 105.686 473.227 105.211 470.745C112.173 471.797 120.523 472.525 130.446 472.611C130.456 472.611 130.466 472.611 130.476 472.611C132.044 472.611 133.324 471.534 133.34 470.196C133.357 468.848 132.087 467.745 130.505 467.731ZM109.709 422.595C111.139 416.659 116.268 409.816 124.543 402.806C138.751 390.768 163.037 386.908 172.04 385.855C170.789 393.536 166.207 414.272 151.997 426.311C143.74 433.306 135.66 437.616 128.628 438.776C123.836 439.566 119.655 438.93 116.158 436.889C122.518 432.285 128.635 427.376 134.194 422.202C135.305 421.168 135.173 419.538 133.867 418.647C132.673 417.834 130.927 418.016 129.894 418.976C124.407 424.076 118.352 428.918 112.052 433.459C109.493 430.424 108.7 426.782 109.709 422.595Z" fill="white" fill-opacity="0.24"/>
</g>
<defs>
<linearGradient id="paint0_linear" x1="175" y1="0.402679" x2="175" y2="500.403" gradientUnits="userSpaceOnUse">
<stop stop-color="#90D6A2"/>
<stop offset="0.192708" stop-color="#6EC49A"/>
<stop offset="0.421875" stop-color="#46AD92"/>
<stop offset="0.776042" stop-color="#299C8C"/>
<stop offset="0.895833" stop-color="#20968A"/>
<stop offset="1" stop-color="#0E8C88"/>
</linearGradient>
<clipPath id="clip0">
<rect width="241.379" height="236.417" transform="matrix(1 0 0 -1 2 249.789)" fill="white"/>
</clipPath>
<clipPath id="clip1">
<rect x="23" y="368.134" width="155.172" height="132.159" fill="white"/>
</clipPath>
</defs>
</svg>
