<svg width="500" height="801" viewBox="0 0 500 801" fill="none" xmlns="http://www.w3.org/2000/svg">
<rect width="500" height="800" fill="url(#paint0_linear)"/>
<g clip-path="url(#clip0)">
<path d="M214.85 142.324C218.181 142.324 221.616 142.667 225.137 143.358C242.351 146.731 260.783 158.216 279.925 177.493C319.708 217.559 325.744 289.51 325.982 292.553C326.12 294.313 325.489 296.046 324.258 297.294C323.027 298.543 321.316 299.185 319.577 299.048C316.581 298.813 245.731 292.829 205.956 252.772C186.795 233.475 175.305 214.938 171.806 197.676C168.968 183.674 171.509 171.007 179.149 160.654C147.118 134.485 113.02 112.819 86.1342 97.33C82.9611 95.5019 79.8386 93.7313 76.7714 92.0154C80.9589 101.135 85.6915 114.265 89.3514 132.142C111.18 132.983 133.382 154.385 136.331 202.137C139.11 247.139 100.861 285.181 99.2312 286.779C97.1237 288.845 93.8455 289.051 91.5009 287.268C89.6874 285.889 47.0557 252.966 44.2776 207.963C41.5507 163.802 57.9337 139.918 77.4617 133.738C75.4469 124.064 73.1746 116.163 71.0328 109.937C64.6117 91.2668 57.992 83.198 57.8271 82.9998C57.8229 82.9948 57.8187 82.9906 57.8152 82.9856C56.4977 81.4437 54.8905 80.1738 53.0987 79.242C25.6868 64.9793 6.92912 57.0382 6.67586 56.9317C3.6354 55.6512 2.19514 52.1185 3.45931 49.0397C4.412 46.7187 6.63026 45.3188 8.96779 45.3188C9.73036 45.3188 10.5063 45.4679 11.2541 45.7826C11.6063 45.931 47.0003 60.9054 91.8805 86.7484C98.5177 90.5701 105.591 94.7668 112.96 99.3066C117.168 95.9551 131.884 85.7079 161.941 78.6291C162.532 58.5304 181.378 37.828 223.949 34.1789C225.879 34.0134 227.794 33.9346 229.696 33.9346C267.545 33.9346 299.226 65.1746 300.622 66.5694C302.708 68.6568 302.985 71.97 301.275 74.3826C300.074 76.0765 271.412 115.906 231.074 119.363C211.837 121.014 195.157 118.375 182.834 111.74C173.343 106.628 166.801 99.3066 163.794 90.6497C142.609 95.7647 130.008 102.413 124.008 106.241C144.352 119.239 166.353 134.623 187.48 151.951C195.319 145.586 204.592 142.324 214.85 142.324ZM64.1143 160.34C57.7415 171.85 54.9978 188.056 56.1799 207.209C58.1414 238.971 84.3038 265.09 94.5722 274.174C103.647 263.862 126.389 234.649 124.428 202.889C123.246 183.738 118.529 168.002 110.79 157.386C105.333 149.9 98.7618 145.49 91.5627 144.426C94.1303 160.873 95.7305 180.657 95.4555 204.21C95.4162 207.544 92.749 210.223 89.4223 210.176C86.1292 210.136 83.4915 207.402 83.53 204.068C83.8029 180.711 82.1375 161.376 79.6505 145.706C73.4784 148.034 68.1853 152.988 64.1143 160.34ZM226.777 83.5673C206.506 83.7768 189.584 85.5801 175.624 88.1433C177.868 93.3173 182.195 97.7192 188.435 101.079C198.727 106.622 213.124 108.784 230.067 107.332C257.712 104.963 280.089 81.3571 288.255 71.5638C278.575 63.2967 252.597 43.8337 224.955 46.2087C208.011 47.6611 194.179 52.2428 184.953 59.4587C178.781 64.2868 175.114 69.9693 174.126 76.1099C188.618 73.5062 205.998 71.7065 226.654 71.4935C226.675 71.4935 226.696 71.4935 226.717 71.4935C229.981 71.4935 232.645 74.1561 232.678 77.4686C232.713 80.8031 230.07 83.5332 226.777 83.5673ZM183.488 195.248C186.465 209.934 197.143 226.866 214.366 244.212C243.941 273.996 294.494 283.548 313.235 286.152C310.631 267.149 301.092 215.84 271.513 186.053C254.327 168.745 237.506 158.08 222.87 155.211C212.894 153.256 204.192 154.83 196.913 159.88C210.151 171.271 222.885 183.419 234.455 196.219C236.769 198.779 236.494 202.81 233.774 205.014C231.29 207.027 227.655 206.577 225.505 204.201C214.084 191.583 201.48 179.601 188.366 168.365C183.039 175.875 181.388 184.887 183.488 195.248Z" fill="white" fill-opacity="0.24"/>
</g>
<g clip-path="url(#clip1)">
<path d="M170.221 697.38C172.882 697.377 175.625 697.121 178.437 696.609C192.183 694.109 206.897 685.637 222.169 671.426C253.912 641.891 258.67 588.914 258.857 586.674C258.965 585.378 258.46 584.103 257.476 583.185C256.491 582.267 255.124 581.795 253.735 581.899C251.342 582.074 194.755 586.547 163.02 616.075C147.732 630.3 138.57 643.959 135.79 656.67C133.535 666.982 135.577 676.305 141.688 683.919C116.126 703.216 88.9088 719.199 67.4472 730.628C64.9142 731.977 62.4216 733.283 59.9732 734.549C63.31 727.831 67.0787 718.161 69.9864 704.995C87.4219 704.355 105.137 688.578 107.451 653.419C109.631 620.286 79.0455 592.315 77.7423 591.141C76.0572 589.621 73.4385 589.473 71.5673 590.788C70.12 591.805 36.0963 616.084 33.9167 649.218C31.7773 681.732 44.8844 699.301 60.488 703.832C58.8872 710.956 57.0791 716.775 55.3738 721.361C50.2612 735.112 44.9807 741.059 44.8492 741.205C44.8458 741.208 44.8424 741.211 44.8396 741.215C43.7886 742.352 42.506 743.288 41.0756 743.976C19.1926 754.502 4.21662 760.366 4.01442 760.445C1.58694 761.391 0.43962 763.993 1.45209 766.258C2.2151 767.966 3.98819 768.995 5.85531 768.992C6.46442 768.992 7.08405 768.881 7.68112 768.649C7.96229 768.539 36.2205 757.481 72.0464 738.413C77.3446 735.593 82.991 732.496 88.8731 729.147C92.2371 731.61 104 739.14 128.015 744.323C128.505 759.12 143.577 774.343 177.584 776.989C179.126 777.109 180.655 777.165 182.174 777.163C212.407 777.127 237.685 754.098 238.798 753.07C240.463 751.531 240.681 749.092 239.313 747.317C238.353 746.071 215.423 716.775 183.2 714.268C167.833 713.072 154.512 715.03 144.675 719.927C137.098 723.699 131.879 729.096 129.485 735.472C112.558 731.726 102.488 726.844 97.6915 724.031C113.93 714.443 131.49 703.096 148.35 690.318C154.617 694.997 162.027 697.39 170.221 697.38ZM49.8033 684.26C44.7029 675.792 42.4971 663.863 43.4245 649.762C44.9634 626.376 65.838 607.122 74.032 600.425C81.2894 608.008 99.4808 629.493 97.9424 652.877C97.0145 666.978 93.2609 678.567 87.0889 686.39C82.7364 691.907 77.4914 695.159 71.7419 695.95C73.7784 683.839 75.0392 669.273 74.7989 651.932C74.7646 649.478 72.6318 647.509 69.9746 647.546C67.3443 647.579 65.2397 649.594 65.2735 652.049C65.5119 669.244 64.1986 683.48 62.2259 695.019C57.2938 693.31 53.0615 689.669 49.8033 684.26ZM179.799 740.626C163.607 740.491 150.089 739.18 138.937 737.306C140.724 733.495 144.177 730.25 149.157 727.77C157.374 723.68 168.871 722.074 182.406 723.127C204.49 724.845 222.385 742.203 228.916 749.405C221.191 755.5 200.458 769.854 178.377 768.132C164.841 767.079 153.788 763.719 146.413 758.415C141.479 754.866 138.545 750.686 137.75 746.166C149.328 748.069 163.212 749.378 179.712 749.515C179.729 749.515 179.745 749.515 179.762 749.515C182.369 749.512 184.494 747.549 184.518 745.11C184.543 742.655 182.43 740.648 179.799 740.626ZM145.124 658.446C147.489 647.632 156.003 635.156 169.745 622.369C193.342 600.414 233.714 593.333 248.681 591.398C246.618 605.392 239.043 643.174 215.443 665.132C201.731 677.891 188.304 685.759 176.615 687.885C168.649 689.334 161.697 688.183 155.878 684.472C166.442 676.073 176.603 667.118 185.834 657.683C187.679 655.797 187.456 652.829 185.282 651.209C183.296 649.729 180.392 650.064 178.678 651.815C169.566 661.116 159.508 669.949 149.043 678.233C144.782 672.71 143.456 666.076 145.124 658.446Z" fill="white" fill-opacity="0.24"/>
</g>
<defs>
<linearGradient id="paint0_linear" x1="250" y1="0" x2="250" y2="800" gradientUnits="userSpaceOnUse">
<stop stop-color="#90D6A2"/>
<stop offset="0.192708" stop-color="#6EC49A"/>
<stop offset="0.421875" stop-color="#46AD92"/>
<stop offset="0.776042" stop-color="#299C8C"/>
<stop offset="0.895833" stop-color="#20968A"/>
<stop offset="1" stop-color="#0E8C88"/>
</linearGradient>
<clipPath id="clip0">
<rect width="323" height="327" transform="matrix(1 0 0 -1 3 330)" fill="white"/>
</clipPath>
<clipPath id="clip1">
<rect x="0.838333" y="559.412" width="258" height="240.742" transform="rotate(-0.0682722 0.838333 559.412)" fill="white"/>
</clipPath>
</defs>
</svg>
