<svg width="350" height="500" viewBox="0 0 350 500" fill="none" xmlns="http://www.w3.org/2000/svg">
<rect width="350" height="499.904" fill="url(#paint0_linear)"/>
<g clip-path="url(#clip0)">
<path d="M150.395 88.9356C152.727 88.9356 155.131 89.1499 157.596 89.5813C169.646 91.6894 182.549 98.8657 195.948 110.912C223.796 135.948 228.021 180.909 228.188 182.811C228.284 183.91 227.843 184.993 226.981 185.773C226.119 186.553 224.922 186.955 223.704 186.869C221.607 186.722 172.012 182.983 144.17 157.952C130.757 145.894 122.714 134.31 120.264 123.524C118.278 114.774 120.057 106.859 125.405 100.39C102.983 84.0369 79.1142 70.4981 60.2942 60.8196C58.073 59.6772 55.8873 58.5708 53.7403 57.4986C56.6715 63.1975 59.9843 71.4017 62.5463 82.5732C77.8266 83.0986 93.3677 96.4723 95.4322 126.312C97.3773 154.432 70.6029 178.204 69.4621 179.202C67.9869 180.494 65.6921 180.622 64.0509 179.508C62.7815 178.646 32.9393 158.073 30.9946 129.952C29.0858 102.357 40.5539 87.432 54.2235 83.5704C52.8131 77.5249 51.2225 72.588 49.7233 68.6971C45.2284 57.0308 40.5946 51.9887 40.4792 51.8649C40.4763 51.8618 40.4734 51.8592 40.4709 51.8561C39.5487 50.8925 38.4236 50.099 37.1694 49.5168C17.9811 40.6042 4.85066 35.6421 4.67338 35.5755C2.54506 34.7753 1.53688 32.5678 2.4218 30.6439C3.08868 29.1936 4.64146 28.3188 6.27773 28.3188C6.81153 28.3188 7.35466 28.412 7.87815 28.6086C8.12467 28.7014 32.9005 38.0586 64.3166 54.2073C68.9627 56.5955 73.9142 59.2179 79.0725 62.0547C82.0179 59.9604 92.3188 53.5572 113.359 49.1337C113.772 36.5745 126.965 23.638 156.765 21.3577C158.116 21.2543 159.456 21.205 160.788 21.205C187.282 21.205 209.459 40.7263 210.435 41.5979C211.896 42.9023 212.09 44.9726 210.893 46.4802C210.052 47.5387 189.988 72.4273 161.752 74.5878C148.286 75.6192 136.61 73.9705 127.984 69.824C121.34 66.6299 116.761 62.0547 114.656 56.6452C99.8263 59.8414 91.0061 63.9959 86.8059 66.388C101.047 74.5101 116.447 84.123 131.236 94.9514C136.723 90.9735 143.215 88.9356 150.395 88.9356ZM44.8803 100.193C40.4193 107.385 38.4987 117.513 39.3262 129.481C40.6992 149.328 59.013 165.65 66.2008 171.326C72.5529 164.882 88.4726 146.628 87.1001 126.782C86.2721 114.814 82.9706 104.981 77.5536 98.3474C73.7335 93.6697 69.1336 90.9141 64.0941 90.2488C65.8915 100.526 67.0116 112.889 66.8191 127.607C66.7916 129.69 64.9245 131.364 62.5959 131.335C60.2907 131.31 58.4443 129.601 58.4713 127.518C58.6623 112.922 57.4965 100.841 55.7557 91.0485C51.4352 92.5038 47.73 95.5989 44.8803 100.193ZM158.744 52.2195C144.555 52.3505 132.709 53.4773 122.937 55.079C124.508 58.3121 127.537 61.0628 131.904 63.1624C139.109 66.6259 149.187 67.9769 161.047 67.0697C180.399 65.5892 196.063 50.8384 201.779 44.7188C195.003 39.5529 176.818 27.3908 157.469 28.8749C145.608 29.7825 135.925 32.6455 129.468 37.1545C125.147 40.1715 122.58 43.7224 121.888 47.5596C132.033 45.9326 144.199 44.808 158.658 44.6748C158.673 44.6748 158.687 44.6748 158.702 44.6748C160.987 44.6748 162.852 46.3387 162.875 48.4086C162.899 50.4922 161.049 52.1982 158.744 52.2195ZM128.442 122.007C130.526 131.184 138 141.764 150.057 152.603C170.759 171.215 206.146 177.184 219.265 178.811C217.442 166.936 210.765 134.874 190.06 116.261C178.029 105.445 166.255 98.781 156.009 96.9884C149.026 95.7666 142.935 96.7501 137.839 99.9056C147.106 107.024 156.02 114.615 164.119 122.613C165.739 124.213 165.546 126.732 163.642 128.109C161.903 129.367 159.359 129.086 157.854 127.601C149.859 119.716 141.036 112.229 131.856 105.208C128.128 109.901 126.972 115.532 128.442 122.007Z" fill="white" fill-opacity="0.24"/>
</g>
<g clip-path="url(#clip1)">
<path d="M119.155 435.779C121.018 435.777 122.938 435.617 124.906 435.297C134.529 433.735 144.828 428.441 155.519 419.561C177.739 401.105 181.069 368.001 181.2 366.601C181.276 365.791 180.923 364.994 180.233 364.421C179.544 363.847 178.587 363.552 177.615 363.617C175.94 363.727 136.329 366.522 114.114 384.973C103.413 393.862 96.9996 402.397 95.0536 410.34C93.4752 416.783 94.9041 422.609 99.1821 427.367C81.2887 439.425 62.2365 449.413 47.2134 456.555C45.4403 457.398 43.6955 458.214 41.9816 459.005C44.3174 454.807 46.9555 448.764 48.9909 440.537C61.1957 440.138 73.5962 430.279 75.2159 408.309C76.7419 387.604 55.3322 370.126 54.42 369.392C53.2404 368.443 51.4073 368.35 50.0975 369.172C49.0843 369.807 25.2677 384.978 23.7421 405.683C22.2445 426.001 31.4194 436.979 42.342 439.81C41.2214 444.262 39.9557 447.898 38.762 450.764C35.1832 459.357 31.4868 463.073 31.3948 463.164C31.3924 463.166 31.3901 463.168 31.3881 463.171C30.6524 463.881 29.7545 464.466 28.7533 464.896C13.4352 471.473 2.95198 475.138 2.81045 475.187C1.11121 475.778 0.308083 477.404 1.01681 478.819C1.55092 479.887 2.79208 480.529 4.09907 480.528C4.52545 480.528 4.95919 480.458 5.37713 480.313C5.57395 480.245 25.3547 473.335 50.4328 461.419C54.1416 459.657 58.0941 457.722 62.2115 455.629C64.5663 457.169 72.8005 461.874 89.6109 465.113C89.9535 474.359 100.504 483.871 124.309 485.525C125.388 485.6 126.459 485.635 127.523 485.634C148.685 485.611 166.38 471.221 167.159 470.578C168.325 469.617 168.477 468.092 167.52 466.983C166.847 466.205 150.797 447.899 128.24 446.332C117.483 445.584 108.158 446.808 101.273 449.868C95.969 452.225 92.3157 455.597 90.6398 459.582C78.7911 457.241 71.7417 454.19 68.3844 452.433C79.7514 446.441 92.0434 439.351 103.845 431.366C108.232 434.29 113.42 435.785 119.155 435.779ZM34.8626 427.58C31.2923 422.289 29.7483 414.835 30.3975 406.023C31.4747 391.41 46.087 379.379 51.8228 375.193C56.9029 379.932 69.6369 393.358 68.56 407.97C67.9105 416.781 65.283 424.023 60.9626 428.912C57.9159 432.359 54.2443 434.391 50.2197 434.885C51.6452 427.317 52.5278 418.215 52.3596 407.379C52.3356 405.846 50.8426 404.615 48.9826 404.639C47.1413 404.659 45.6682 405.918 45.6918 407.452C45.8587 418.197 44.9394 427.093 43.5585 434.304C40.106 433.236 37.1434 430.96 34.8626 427.58ZM125.86 462.802C114.526 462.718 105.063 461.899 97.2559 460.728C98.5072 458.346 100.924 456.318 104.411 454.769C110.162 452.213 118.21 451.21 127.685 451.868C143.144 452.941 155.67 463.788 160.242 468.288C154.834 472.097 140.321 481.066 124.864 479.99C115.389 479.332 107.652 477.232 102.49 473.918C99.0353 471.701 96.9819 469.089 96.4255 466.264C104.53 467.454 114.249 468.271 125.799 468.357C125.81 468.357 125.822 468.357 125.834 468.357C127.659 468.355 129.146 467.129 129.163 465.605C129.18 464.071 127.701 462.816 125.86 462.802ZM101.587 411.45C103.243 404.692 109.202 396.896 118.822 388.906C135.34 375.187 163.6 370.762 174.077 369.553C172.633 378.297 167.331 401.907 150.811 415.628C141.212 423.601 131.813 428.517 123.631 429.845C118.055 430.751 113.188 430.032 109.115 427.713C116.51 422.465 123.622 416.869 130.084 410.973C131.376 409.794 131.22 407.94 129.698 406.927C128.307 406.003 126.275 406.212 125.075 407.306C118.697 413.118 111.656 418.638 104.331 423.814C101.348 420.363 100.419 416.218 101.587 411.45Z" fill="white" fill-opacity="0.24"/>
</g>
<defs>
<linearGradient id="paint0_linear" x1="175" y1="0" x2="175" y2="499.904" gradientUnits="userSpaceOnUse">
<stop stop-color="#90D6A2"/>
<stop offset="0.192708" stop-color="#6EC49A"/>
<stop offset="0.421875" stop-color="#46AD92"/>
<stop offset="0.776042" stop-color="#299C8C"/>
<stop offset="0.895833" stop-color="#20968A"/>
<stop offset="1" stop-color="#0E8C88"/>
</linearGradient>
<clipPath id="clip0">
<rect width="226.1" height="204.336" transform="matrix(1 0 0 -1 2.10001 206.21)" fill="white"/>
</clipPath>
<clipPath id="clip1">
<rect width="180.6" height="150.435" transform="matrix(0.999999 -0.0010637 0.00133482 0.999999 0.586838 349.566)" fill="white"/>
</clipPath>
</defs>
</svg>
