<svg width="350" height="500" viewBox="0 0 350 500" fill="none" xmlns="http://www.w3.org/2000/svg">
<rect width="350" height="500" rx="33" fill="url(#paint0_linear)"/>
<g clip-path="url(#clip0)">
<path d="M185.903 100.73C188.392 100.73 190.959 100.978 193.59 101.477C206.454 103.916 220.229 112.219 234.534 126.156C264.264 155.124 268.775 207.143 268.952 209.344C269.055 210.616 268.584 211.868 267.664 212.771C266.744 213.674 265.466 214.138 264.166 214.039C261.927 213.869 208.98 209.543 179.256 180.582C164.937 166.631 156.351 153.228 153.736 140.748C151.615 130.625 153.514 121.467 159.223 113.982C135.286 95.0619 109.805 79.3975 89.7128 68.1995C87.3416 66.8778 85.0081 65.5976 82.716 64.3571C85.8454 70.9507 89.382 80.443 92.1171 93.3684C108.43 93.9764 125.021 109.45 127.225 143.974C129.302 176.51 100.718 204.014 99.5003 205.168C97.9254 206.663 95.4755 206.812 93.7234 205.522C92.3682 204.525 60.5093 180.722 58.4332 148.186C56.3954 116.258 68.6385 98.9901 83.2319 94.5222C81.7262 87.5275 80.0281 81.8155 78.4276 77.3138C73.629 63.8159 68.6821 57.9822 68.5589 57.8389C68.5557 57.8353 68.5526 57.8322 68.5499 57.8286C67.5654 56.7138 66.3643 55.7957 65.0253 55.122C44.5403 44.8102 30.5226 39.069 30.3333 38.992C28.0612 38.0661 26.9848 35.5121 27.9296 33.2861C28.6415 31.608 30.2992 30.596 32.0461 30.596C32.6159 30.596 33.1958 30.7038 33.7546 30.9313C34.0178 31.0386 60.4679 41.8649 94.0071 60.5491C98.9671 63.3121 104.253 66.3463 109.76 69.6285C112.905 67.2054 123.902 59.7968 146.364 54.6789C146.805 40.1478 160.889 25.1802 192.703 22.542C194.145 22.4223 195.576 22.3653 196.997 22.3653C225.282 22.3653 248.958 44.9514 250 45.9599C251.559 47.4691 251.767 49.8645 250.488 51.6088C249.591 52.8334 228.172 81.6297 198.027 84.1293C183.651 85.3226 171.186 83.415 161.977 78.6176C154.884 74.922 149.996 69.6285 147.749 63.3696C131.916 67.0677 122.5 71.8745 118.016 74.6422C133.219 84.0394 149.661 95.1615 165.449 107.69C171.307 103.088 178.237 100.73 185.903 100.73ZM73.2573 113.755C68.4949 122.076 66.4445 133.794 67.3279 147.641C68.7937 170.604 88.345 189.488 96.0187 196.056C102.8 188.6 119.796 167.48 118.33 144.518C117.446 130.671 113.922 119.295 108.139 111.619C104.06 106.207 99.1496 103.019 93.7696 102.249C95.6884 114.14 96.8842 128.444 96.6787 145.473C96.6493 147.883 94.6561 149.819 92.1701 149.786C89.7092 149.757 87.7379 147.78 87.7668 145.37C87.9707 128.483 86.7261 114.504 84.8676 103.174C80.2551 104.858 76.2996 108.439 73.2573 113.755ZM194.816 58.2492C179.667 58.4006 167.021 59.7044 156.589 61.5575C158.266 65.2983 161.5 68.4809 166.162 70.9102C173.854 74.9174 184.613 76.4804 197.274 75.4309C217.934 73.7179 234.656 56.6512 240.759 49.5708C233.525 43.5938 214.111 29.5223 193.454 31.2394C180.792 32.2894 170.455 35.6019 163.561 40.8189C158.948 44.3096 156.208 48.418 155.469 52.8576C166.3 50.9751 179.288 49.674 194.724 49.5199C194.74 49.5199 194.755 49.5199 194.771 49.5199C197.21 49.5199 199.201 51.445 199.226 53.8399C199.252 56.2507 197.277 58.2245 194.816 58.2492ZM162.466 138.993C164.691 149.611 172.67 161.852 185.541 174.393C207.643 195.927 245.421 202.833 259.427 204.716C257.48 190.976 250.352 153.881 228.248 132.345C215.404 119.831 202.834 112.121 191.896 110.047C184.441 108.633 177.938 109.771 172.498 113.422C182.391 121.658 191.907 130.44 200.554 139.695C202.283 141.546 202.077 144.46 200.045 146.054C198.188 147.509 195.472 147.184 193.865 145.466C185.33 136.343 175.911 127.681 166.111 119.557C162.13 124.986 160.897 131.502 162.466 138.993Z" fill="white" fill-opacity="0.24"/>
</g>
<g clip-path="url(#clip1)">
<path d="M112.982 443.691C114.582 443.691 116.232 443.553 117.924 443.274C126.194 441.91 135.049 437.269 144.245 429.478C163.357 413.285 166.257 384.206 166.371 382.976C166.437 382.264 166.134 381.564 165.543 381.06C164.951 380.555 164.13 380.295 163.294 380.351C161.855 380.446 127.817 382.864 108.709 399.053C99.5042 406.852 93.9844 414.344 92.3033 421.321C90.9397 426.98 92.1607 432.099 95.8309 436.283C80.443 446.86 64.0619 455.616 51.1457 461.876C49.6213 462.615 48.1212 463.33 46.6478 464.024C48.6595 460.338 50.933 455.032 52.6913 447.806C63.1782 447.467 73.8441 438.817 75.2609 419.518C76.5959 401.33 58.2206 385.955 57.4376 385.31C56.4252 384.474 54.8503 384.391 53.724 385.112C52.8527 385.669 32.372 398.975 31.0374 417.163C29.7274 435.011 37.5979 444.664 46.9794 447.161C46.0115 451.072 44.9198 454.265 43.8909 456.781C40.8061 464.327 37.6259 467.588 37.5467 467.668C37.5447 467.67 37.5427 467.671 37.541 467.673C36.9081 468.297 36.1359 468.81 35.2752 469.186C22.1062 474.951 13.0948 478.16 12.9732 478.203C11.5125 478.721 10.8206 480.149 11.4279 481.393C11.8856 482.331 12.9513 482.897 14.0742 482.897C14.4406 482.897 14.8133 482.836 15.1726 482.709C15.3418 482.649 32.3454 476.597 53.9063 466.153C57.0949 464.608 60.4931 462.912 64.0332 461.077C66.0547 462.432 73.1242 466.573 87.564 469.434C87.8478 477.557 96.902 485.924 117.353 487.399C118.281 487.466 119.2 487.498 120.114 487.498C138.297 487.498 153.517 474.872 154.188 474.308C155.19 473.464 155.323 472.125 154.501 471.15C153.925 470.466 140.155 454.368 120.776 452.971C111.535 452.304 103.521 453.37 97.6013 456.052C93.0417 458.118 89.899 461.077 88.4545 464.576C78.2766 462.509 72.2233 459.822 69.3407 458.275C79.1141 453.021 89.6836 446.804 99.8331 439.801C103.599 442.373 108.054 443.691 112.982 443.691ZM40.5671 436.41C37.5056 431.759 36.1875 425.209 36.7554 417.468C37.6977 404.631 50.2664 394.075 55.1995 390.404C59.5589 394.572 70.4846 406.378 69.5426 419.214C68.9744 426.954 66.7085 433.313 62.9908 437.604C60.3691 440.63 57.2122 442.412 53.7536 442.842C54.9871 436.195 55.7559 428.199 55.6238 418.68C55.6049 417.332 54.3235 416.25 52.7254 416.269C51.1434 416.285 49.8761 417.39 49.8947 418.738C50.0258 428.177 49.2257 435.992 48.0309 442.325C45.0658 441.384 42.5229 439.382 40.5671 436.41ZM118.712 467.438C108.974 467.354 100.844 466.625 94.1377 465.589C95.2155 463.498 97.2943 461.719 100.292 460.361C105.236 458.121 112.153 457.247 120.292 457.834C133.573 458.791 144.324 468.332 148.247 472.29C143.596 475.631 131.116 483.497 117.837 482.537C109.697 481.95 103.051 480.098 98.6195 477.182C95.654 475.231 93.8927 472.934 93.4178 470.452C100.38 471.505 108.73 472.232 118.653 472.318C118.663 472.318 118.673 472.318 118.683 472.318C120.251 472.318 121.531 471.242 121.547 469.903C121.564 468.556 120.294 467.452 118.712 467.438ZM97.9154 422.302C99.3458 416.367 104.475 409.523 112.75 402.513C126.958 390.476 151.244 386.615 160.247 385.563C158.996 393.243 154.414 413.98 140.204 426.018C131.947 433.014 123.866 437.324 116.835 438.483C112.043 439.273 107.862 438.637 104.365 436.596C110.725 431.992 116.842 427.083 122.401 421.91C123.512 420.875 123.38 419.246 122.073 418.355C120.88 417.541 119.134 417.723 118.101 418.684C112.614 423.783 106.559 428.626 100.259 433.167C97.6998 430.132 96.9067 426.489 97.9154 422.302Z" fill="white" fill-opacity="0.24"/>
</g>
<defs>
<linearGradient id="paint0_linear" x1="175" y1="0" x2="175" y2="500" gradientUnits="userSpaceOnUse">
<stop stop-color="#FFE7FA"/>
<stop offset="1" stop-color="#00DDD6"/>
</linearGradient>
<clipPath id="clip0">
<rect width="241.379" height="236.417" transform="matrix(1 0 0 -1 27.5862 236.417)" fill="white"/>
</clipPath>
<clipPath id="clip1">
<rect x="11.2069" y="367.841" width="155.172" height="132.159" fill="white"/>
</clipPath>
</defs>
</svg>
