<svg width="650" height="635" viewBox="0 0 650 635" fill="none" xmlns="http://www.w3.org/2000/svg">
<g filter="url(#filter0_d)">
<ellipse cx="320.601" cy="421.075" rx="200.375" ry="193.305" fill="url(#paint0_linear)"/>
</g>
<ellipse cx="319.599" cy="547.947" rx="83.1558" ry="17.4823" fill="#35925D"/>
<g clip-path="url(#clip0)">
<path d="M450.152 341.836C459.252 328.602 462.537 311.163 458.902 295.391L455.153 278.934L452.957 271.102L443.818 276.496L445.416 282.879L449.195 299.335C451.94 311.258 449.458 324.44 442.584 334.447C432.765 348.776 429.784 367.896 434.784 384.462L435.464 386.711L446.99 388.604L444.284 379.647C440.496 367.13 442.74 352.676 450.152 341.836Z" fill="#A2A9B0"/>
<path d="M453.795 259.463L376.48 125.456C359.876 96.6589 366.667 55.5166 391.648 33.5618C393.152 32.2392 394.706 31.0045 396.303 29.862C422.808 10.8804 455.675 20.4879 469.712 51.3216C469.845 51.6129 469.976 51.9062 470.105 52.2008L483.079 81.8569L504.89 57.9147C527.781 32.7784 562.048 33.5278 581.429 59.5885C581.62 59.8453 581.809 60.104 581.996 60.3647C601.016 86.8206 597.631 128.312 574.436 153.036C573.039 154.525 571.585 155.935 570.082 157.257L453.795 259.463Z" fill="#FC88A1"/>
<path d="M453.795 259.463L435.432 278.47L465.087 283.341L453.795 259.463Z" fill="#FC88A1"/>
<path d="M415.877 47.5368L417.505 59.4015C420.304 58.6277 423.163 58.4678 425.943 58.9291L427.932 46.8656C423.961 46.2109 419.876 46.4382 415.877 47.5368Z" fill="#FCBDCB"/>
<path d="M408.311 64.4823L402.728 54.8054C387.31 68.3863 383.121 93.7922 393.366 111.589L401.262 125.276L409.657 117.895L401.761 104.208C394.602 91.7549 397.531 73.9883 408.311 64.4823Z" fill="#FCBDCB"/>
<path d="M581.996 60.3647C575.732 51.6436 567.488 45.3264 558.164 42.102C519.196 139.463 461.2 182.069 419.843 200.601L453.796 259.457L570.057 157.253C595.036 135.295 601.822 94.1519 585.215 65.3578C584.215 63.6247 583.141 61.9583 581.996 60.3647Z" fill="#FC7B97"/>
<path d="M585.901 56.211C565.131 27.2823 527.735 25.72 502.374 52.7219C502.126 52.9856 501.88 53.2518 501.635 53.5205L484.682 72.1398L474.598 49.0917C459.727 15.0583 423.987 3.84188 394.771 24.0402C365.555 44.2385 353.926 88.2017 368.798 122.235C369.843 124.627 371.007 126.935 372.284 129.146L447.033 258.705L432.298 273.959C430.12 276.219 429.76 280.068 431.495 282.556C432.234 283.616 433.276 284.303 434.439 284.496L446.212 286.43L449.166 299.305C451.91 311.229 449.428 324.41 442.554 334.417C432.735 348.746 429.754 367.866 434.754 384.432L435.434 386.681L446.96 388.574L444.254 379.617C440.475 367.095 442.728 352.643 450.147 341.81C459.246 328.577 462.532 311.137 458.897 295.365L457.258 288.219L464.098 289.343C466.828 289.787 469.484 287.448 470.031 284.116C470.264 282.697 470.079 281.256 469.509 280.047L460.45 260.884L572.849 162.092C600.148 138.091 607.563 93.1256 589.411 61.657C588.321 59.7665 587.149 57.9493 585.901 56.211ZM447.064 274.179L452.25 268.836L455.447 275.556L447.064 274.179ZM567.262 152.414L455.202 250.934L380.683 121.766C365.61 95.6517 371.756 58.3265 394.411 38.3972C395.778 37.1952 397.188 36.0732 398.639 35.0345C408.65 27.8199 420.205 24.8781 431.327 26.7127C433.091 27.0057 434.836 27.4123 436.552 27.9305C449.17 31.6936 459.658 41.5699 465.628 55.3126L478.598 84.9619C480.011 87.8765 483.194 88.6997 485.705 86.7999C485.93 86.6301 486.144 86.4408 486.348 86.2349L508.133 62.2946C528.919 39.5081 560.009 40.222 577.576 63.8892C595.143 87.5564 592.533 125.214 571.748 148C570.318 149.568 568.82 151.042 567.262 152.414Z" fill="black"/>
<path d="M417.504 59.4014C420.303 58.6276 423.163 58.4677 425.943 58.929L427.932 46.8655C423.96 46.2099 419.876 46.4381 415.877 47.5367L417.504 59.4014Z" fill="black"/>
<path d="M408.311 64.4829L402.728 54.806C387.31 68.3869 383.121 93.7928 393.366 111.589L401.262 125.276L409.657 117.895L401.761 104.208C394.602 91.7555 397.531 73.9889 408.311 64.4829Z" fill="black"/>
</g>
<path d="M150.077 285.471C150.597 286.636 151.908 287.352 153.389 287.278L170.289 286.439C171.081 286.399 171.33 287.3 170.623 287.658C166.619 289.686 159.196 293.444 155.519 295.306C154.197 295.975 153.424 297.242 153.553 298.51L156.362 326.074C156.439 326.832 155.203 327.16 154.892 326.463L143.604 301.148C143.084 299.983 141.782 299.267 140.301 299.34C136.183 299.545 127.867 299.959 123.382 300.181C122.591 300.221 122.35 299.319 123.057 298.961C127.061 296.934 134.485 293.174 138.162 291.313C139.483 290.643 140.257 289.377 140.127 288.109L137.318 260.545C137.241 259.787 138.477 259.457 138.787 260.154C142.301 268.032 149.382 283.912 150.077 285.471Z" fill="#FFC850"/>
<path d="M178.148 248.498C177.163 248.555 176.296 248.104 175.958 247.36C174.553 244.264 170.841 236.082 168.779 231.538C168.544 231.019 167.623 231.266 167.677 231.833L169.325 249.118C169.402 249.931 168.879 250.749 167.996 251.187C165.632 252.361 160.948 254.685 158.214 256.041C157.677 256.307 157.859 256.991 158.458 256.956C161.506 256.78 166.729 256.478 169.366 256.325C170.351 256.268 171.212 256.719 171.55 257.463L178.707 273.237C178.946 273.763 179.881 273.515 179.826 272.94L178.183 255.705C178.105 254.892 178.628 254.074 179.511 253.636C181.874 252.463 186.551 250.143 189.286 248.786C189.825 248.519 189.634 247.833 189.034 247.868L178.148 248.498Z" fill="#FFDC64"/>
<g clip-path="url(#clip1)">
<path d="M382.142 429.434L367.034 383.146L366.796 383.225C367.001 383.154 387.628 375.799 414.147 350.924C423.966 341.713 439.414 342.183 448.65 351.975C457.887 361.765 457.415 377.169 447.596 386.379C413.037 418.795 385.202 428.44 382.142 429.434Z" fill="#7CB777"/>
<path d="M259.061 429.434L274.169 383.146L274.407 383.225C274.202 383.154 253.575 375.799 227.056 350.924C217.237 341.713 201.789 342.183 192.552 351.975C183.316 361.765 183.788 377.169 193.607 386.379C228.166 418.795 256.001 428.44 259.061 429.434Z" fill="#7CB777"/>
<path d="M221.769 347.151C221.841 348.517 221.93 349.884 222.059 351.249L227.906 413.472C245.194 424.684 257.119 428.803 259.061 429.434L274.17 383.147L274.408 383.226C274.202 383.155 253.576 375.8 227.056 350.924C225.431 349.399 223.649 348.146 221.769 347.151Z" fill="#35925D"/>
<path d="M419.145 351.249C419.273 349.884 419.363 348.517 419.435 347.151C417.555 348.146 415.773 349.399 414.148 350.924C387.628 375.8 367.002 383.155 366.797 383.226L367.034 383.147L382.143 429.434C384.085 428.804 396.01 424.685 413.299 413.472L419.145 351.249Z" fill="#35925D"/>
<path d="M370.554 277.243C356.74 266.595 339.413 260.259 320.602 260.259C301.791 260.259 284.463 266.595 270.649 277.243C248.486 294.327 236.98 321.8 239.593 349.611L248.045 439.567L320.602 456.048L393.158 439.567L401.61 349.611C404.224 321.8 392.718 294.327 370.554 277.243Z" fill="#7CB777"/>
<path d="M384.105 274.159C383.019 272.171 382.653 269.87 383.07 267.644C384.342 260.845 378.372 254.893 371.554 256.162C369.322 256.577 367.014 256.212 365.02 255.13C358.929 251.822 351.406 255.644 350.509 262.502C350.216 264.747 349.155 266.822 347.506 268.379C342.469 273.133 343.789 281.448 350.054 284.418C352.104 285.39 353.756 287.037 354.731 289.082C357.709 295.328 366.049 296.645 370.817 291.622C372.377 289.978 374.459 288.92 376.71 288.628C383.589 287.734 387.422 280.233 384.105 274.159Z" fill="#FF98C5"/>
<path d="M320.601 456.048L240.762 472.529L250.523 522.414C252.642 533.243 262.157 541.058 273.222 541.058L367.981 541.058C379.046 541.058 388.561 533.243 390.68 522.414L400.441 472.529L320.601 456.048Z" fill="#FD6F71"/>
<path d="M274.005 522.415L264.244 472.529L332.342 458.471L320.602 456.048L240.762 472.529L250.523 522.414C252.642 533.243 262.157 541.058 273.222 541.058L296.703 541.058C285.638 541.058 276.124 533.243 274.005 522.415Z" fill="#E34B4C"/>
<path d="M400.441 439.567L240.762 439.567C235.661 439.567 231.527 443.689 231.527 448.775L231.527 463.321C231.527 468.407 235.661 472.529 240.762 472.529L400.441 472.529C405.542 472.529 409.676 468.407 409.676 463.321L409.676 448.775C409.676 443.689 405.542 439.567 400.441 439.567Z" fill="#EFEDEE"/>
<path d="M255.009 463.321L255.009 448.775C255.009 443.689 259.144 439.567 264.244 439.567L240.762 439.567C235.662 439.567 231.528 443.689 231.528 448.775L231.528 463.321C231.528 468.407 235.662 472.529 240.762 472.529L264.244 472.529C259.144 472.529 255.009 468.406 255.009 463.321Z" fill="#D2D2D2"/>
<path d="M278.021 348.226C275.59 348.226 273.619 350.192 273.619 352.616L273.619 360.299C273.619 362.724 275.59 364.689 278.021 364.689C280.453 364.689 282.424 362.724 282.424 360.299L282.424 352.616C282.424 350.192 280.453 348.226 278.021 348.226Z" fill="black"/>
<path d="M363.168 364.69C365.6 364.69 367.571 362.724 367.571 360.3L367.571 352.617C367.571 350.193 365.6 348.227 363.168 348.227C360.737 348.227 358.765 350.193 358.765 352.617L358.765 360.3C358.765 362.724 360.737 364.69 363.168 364.69Z" fill="black"/>
<path d="M320.594 368.791C325.96 368.791 330.998 366.554 334.417 362.655C336.017 360.829 335.83 358.056 333.999 356.46C332.168 354.864 329.387 355.05 327.787 356.875C326.04 358.867 323.419 360.01 320.594 360.01C317.77 360.01 315.148 358.867 313.402 356.875C311.802 355.05 309.02 354.864 307.189 356.459C305.359 358.055 305.172 360.828 306.772 362.654C310.191 366.554 315.229 368.791 320.594 368.791Z" fill="black"/>
<path d="M364.858 281.523C368.852 281.523 372.09 278.294 372.09 274.312C372.09 270.329 368.852 267.101 364.858 267.101C360.864 267.101 357.626 270.329 357.626 274.312C357.626 278.294 360.864 281.523 364.858 281.523Z" fill="black"/>
<path d="M459.664 369.528C459.898 361.858 457.124 354.556 451.851 348.967C446.429 343.219 438.778 339.922 430.861 339.922C423.499 339.922 416.489 342.694 411.124 347.726C409.353 349.387 407.555 351.003 405.746 352.589L405.987 350.02C407.255 336.519 405.345 323.053 400.615 310.695L406.697 308.176C408.943 307.247 410.007 304.677 409.074 302.438C408.142 300.199 405.565 299.138 403.319 300.068L397.061 302.66C394.291 297.172 390.929 291.976 387.01 287.177C387.43 286.594 387.815 285.98 388.147 285.329C390.285 281.145 390.217 276.184 387.964 272.06C387.364 270.961 387.16 269.68 387.39 268.45C388.172 264.276 387.063 260.013 384.347 256.754C381.62 253.479 377.627 251.6 373.393 251.6C371.215 251.6 369.173 252.391 367.119 251.274C365.019 250.134 362.662 249.532 360.304 249.532C353.873 249.532 348.314 253.848 346.583 259.857C339.591 257.65 332.363 256.352 324.996 255.983L324.996 250.142C324.996 247.717 323.025 245.752 320.594 245.752C318.162 245.752 316.191 247.717 316.191 250.142L316.191 255.982C302.886 256.641 290.162 260.284 278.687 266.688L275.37 261.235C274.11 259.162 271.402 258.501 269.322 259.758C267.243 261.016 266.58 263.715 267.841 265.789L271.231 271.362C270.123 272.138 269.028 272.939 267.949 273.77C257.984 281.451 249.823 291.361 244.113 302.655L237.868 300.069C235.624 299.139 233.046 300.2 232.114 302.439C231.181 304.678 232.245 307.248 234.491 308.177L240.563 310.692C235.803 323.143 233.946 336.668 235.201 350.021L235.442 352.589C233.634 351.004 231.835 349.388 230.064 347.727C224.699 342.694 217.69 339.923 210.327 339.923C202.41 339.923 194.759 343.219 189.337 348.967C178.452 360.506 179.01 378.723 190.582 389.576C211.447 409.148 229.953 420.615 242.433 426.987L243.203 435.176L240.754 435.176C233.234 435.176 227.117 441.276 227.117 448.775L227.117 463.321C227.117 469.53 231.313 474.776 237.025 476.398L246.194 523.255C248.71 536.115 260.074 545.449 273.214 545.449L367.974 545.449C381.114 545.449 392.477 536.115 394.994 523.255L404.163 476.398C409.875 474.776 414.071 469.53 414.071 463.321L414.071 448.775C414.071 441.276 407.954 435.176 400.435 435.176L397.986 435.176L398.755 426.987C411.235 420.615 429.741 409.147 450.606 389.576C456.212 384.319 459.428 377.199 459.664 369.528ZM360.305 258.312C361.21 258.312 362.085 258.539 362.908 258.985C365.767 260.538 369.156 261.073 372.356 260.477C376.082 259.783 379.427 263.145 378.736 266.839C378.135 270.047 378.667 273.393 380.232 276.259C381.108 277.863 381.134 279.716 380.302 281.343C379.503 282.908 377.94 284.021 376.196 284.263C372.932 284.716 369.886 286.21 367.613 288.605C365.657 290.665 362.286 290.865 360.11 289.028C359.187 288.249 358.727 287.136 358.129 286.119C356.699 283.686 354.496 281.664 351.938 280.453C350.284 279.67 349.171 278.185 348.885 276.381C348.603 274.606 349.217 272.803 350.527 271.567C352.891 269.338 354.449 266.286 354.869 263.069C355.273 259.98 357.971 258.312 360.305 258.312ZM196.617 383.181C188.582 375.645 188.194 362.995 195.753 354.983C199.573 350.933 204.75 348.703 210.329 348.703C215.441 348.703 220.307 350.627 224.033 354.122C228.138 357.972 232.364 361.647 236.616 365.066L241.45 416.51C229.801 410.048 214.104 399.584 196.617 383.181ZM293.405 443.957L400.435 443.957C403.099 443.957 405.266 446.118 405.266 448.775L405.266 463.321C405.266 465.978 403.099 468.139 400.435 468.139L369.72 468.139C367.288 468.139 365.317 470.105 365.317 472.529C365.317 474.954 367.288 476.919 369.72 476.919L395.09 476.919L386.352 521.574C384.64 530.32 376.912 536.668 367.974 536.668L273.215 536.668C264.278 536.668 256.549 530.32 254.838 521.573L246.1 476.919L352.109 476.919C354.54 476.919 356.511 474.953 356.511 472.529C356.511 470.104 354.54 468.138 352.109 468.138L240.755 468.138C238.091 468.138 235.924 465.977 235.924 463.32L235.924 448.774C235.924 446.117 238.091 443.956 240.755 443.956L275.794 443.956C278.225 443.956 280.197 441.99 280.197 439.566C280.197 437.141 278.225 435.176 275.794 435.176L252.048 435.176C252.048 435.176 250.975 423.749 250.975 423.747L245.27 363.038L243.97 349.201C242.849 337.271 244.488 325.191 248.702 314.06L253.234 315.937C255.45 316.855 258.067 315.777 258.988 313.567C259.921 311.327 258.857 308.758 256.611 307.829L252.277 306.034C257.381 296.145 264.579 287.465 273.335 280.716C274.15 280.088 274.976 279.479 275.81 278.887C275.81 278.887 278.364 283.086 278.366 283.089C279.61 285.134 282.364 285.806 284.414 284.565C286.493 283.309 287.156 280.608 285.895 278.535L283.264 274.209C293.36 268.632 304.521 265.429 316.193 264.784L316.193 270.375C316.193 272.8 318.164 274.766 320.595 274.766C323.027 274.766 324.998 272.8 324.998 270.375L324.998 264.783C330.9 265.112 336.702 266.094 342.338 267.739C342.328 267.754 342.32 267.77 342.31 267.785C340.416 270.687 339.645 274.334 340.188 277.754C340.924 282.393 343.904 286.366 348.158 288.382C349.284 288.916 350.214 289.843 350.75 290.967C352.954 295.59 357.754 298.796 362.886 299.064C367.008 299.28 371.155 297.639 373.996 294.653C374 294.649 374.005 294.644 374.009 294.64C374.842 293.751 376.038 293.142 377.274 292.982C378.168 292.866 379.058 292.669 379.914 292.386C383.408 296.615 386.413 301.198 388.906 306.038L384.581 307.829C382.335 308.759 381.27 311.328 382.203 313.568C383.122 315.774 385.751 316.852 387.958 315.938L392.482 314.064C396.669 325.111 398.355 337.138 397.221 349.202L395.982 362.389C395.982 362.389 390.217 423.748 390.217 423.75L389.143 435.177L293.405 435.177C290.974 435.177 289.002 437.143 289.002 439.567C289.002 441.992 290.974 443.957 293.405 443.957ZM444.573 383.181C427.086 399.583 411.39 410.048 399.74 416.51L404.574 365.065C408.829 361.645 413.055 357.969 417.158 354.121C420.883 350.627 425.75 348.702 430.861 348.702C436.44 348.702 441.617 350.933 445.437 354.982C449.099 358.863 451.025 363.934 450.862 369.26C450.699 374.586 448.465 379.53 444.573 383.181Z" fill="black"/>
</g>
<path d="M208.131 294.123C207.343 294.166 206.647 293.798 206.374 293.192C205.301 290.812 202.561 284.732 200.858 280.954C200.624 280.435 199.706 280.688 199.762 281.254L201.067 294.599C201.132 295.259 200.716 295.921 200.01 296.274C198.229 297.165 194.8 298.88 192.582 299.988C192.047 300.255 192.229 300.936 192.825 300.903C195.303 300.768 199.133 300.558 201.123 300.449C201.912 300.405 202.603 300.774 202.875 301.379L208.387 313.608C208.621 314.127 209.543 313.883 209.487 313.317L208.182 299.973C208.117 299.312 208.533 298.65 209.239 298.297C211.021 297.406 214.449 295.692 216.667 294.584C217.201 294.317 217.013 293.636 216.416 293.669L208.131 294.123Z" fill="#FFF082"/>
<path d="M156.362 326.073L153.888 301.789C147.975 295.879 143.048 289.426 139.787 284.766L140.128 288.108C140.257 289.377 139.484 290.643 138.162 291.312C134.485 293.174 127.062 296.933 123.057 298.961C122.351 299.319 122.591 300.22 123.383 300.181C127.868 299.958 136.183 299.545 140.302 299.34C141.782 299.266 143.084 299.983 143.604 301.148L154.893 326.463C155.203 327.159 156.44 326.832 156.362 326.073Z" fill="#EBAF4B"/>
<path d="M169.176 247.566L169.324 249.119C169.401 249.932 168.879 250.749 167.995 251.188C165.631 252.361 160.947 254.685 158.213 256.042C157.676 256.308 157.858 256.991 158.457 256.957C161.506 256.781 166.728 256.478 169.365 256.326C170.35 256.269 171.211 256.72 171.549 257.464L178.706 273.237C178.945 273.764 179.88 273.516 179.825 272.941L178.355 257.517C174.074 254.441 171.084 250.62 169.176 247.566Z" fill="#FFC850"/>
<path d="M202.876 301.38L208.387 313.608C208.621 314.127 209.543 313.883 209.488 313.317L208.264 300.813C204.562 298.812 202.257 295.859 200.985 293.752L201.068 294.599C201.132 295.259 200.716 295.922 200.011 296.274C198.229 297.165 194.8 298.88 192.582 299.989C192.048 300.256 192.229 300.936 192.826 300.904C195.303 300.768 199.133 300.558 201.123 300.449C201.912 300.405 202.603 300.774 202.876 301.38Z" fill="#FFDC64"/>
<g clip-path="url(#clip2)">
<path d="M638.112 304.055C637.541 303.537 637.37 302.711 637.688 302.011L638.351 300.552C638.665 299.852 638.492 299.029 637.922 298.513C637.352 297.997 636.513 297.905 635.844 298.284L634.453 299.074C633.78 299.455 632.938 299.361 632.368 298.84L631.187 297.764C630.616 297.24 629.771 297.144 629.097 297.528C628.423 297.911 628.075 298.685 628.237 299.442L628.558 301.008C628.676 301.596 628.487 302.203 628.055 302.621L638.615 304.515L638.112 304.055Z" fill="#FFE165"/>
<path d="M639.295 305.129L638.614 304.509L628.064 302.603C627.96 302.716 627.841 302.815 627.711 302.897L626.321 303.686C625.648 304.066 625.298 304.836 625.455 305.591C625.612 306.346 626.24 306.915 627.009 306.997L628.598 307.173C629.365 307.257 629.991 307.822 630.149 308.575L630.47 310.14C630.625 310.894 631.249 311.462 632.017 311.548C632.784 311.633 633.519 311.217 633.838 310.516L634.501 309.058C634.819 308.357 635.553 307.94 636.32 308.026L637.91 308.202C638.672 308.278 639.399 307.86 639.712 307.163C640.027 306.466 639.858 305.647 639.295 305.129Z" fill="#FFD839"/>
<path d="M585.793 279.584C586.506 279.28 586.94 278.55 586.865 277.78C586.79 277.01 586.223 276.376 585.464 276.215L577.762 274.536C577.528 274.48 577.309 274.377 577.118 274.231L559.369 286.405L558.426 288.013C558.035 288.677 558.118 289.516 558.631 290.092C559.143 290.667 559.97 290.849 560.677 290.539L567.898 287.388C568.605 287.083 569.431 287.267 569.941 287.843L575.178 293.717C575.69 294.296 576.517 294.479 577.226 294.171C577.935 293.863 578.364 293.133 578.287 292.366L577.506 284.532C577.43 283.766 577.857 283.038 578.564 282.729L585.793 279.584Z" fill="#FF9811"/>
<path d="M576.368 272.979L575.596 265.157C575.514 264.397 574.954 263.775 574.206 263.611C573.458 263.447 572.688 263.779 572.296 264.435L568.301 271.214C567.911 271.879 567.136 272.217 566.382 272.051L558.685 270.364C557.93 270.198 557.154 270.536 556.765 271.2C556.373 271.864 556.456 272.704 556.97 273.279L562.207 279.153C562.719 279.728 562.802 280.568 562.411 281.232L559.369 286.405L577.112 274.228C576.696 273.938 576.425 273.483 576.368 272.979Z" fill="#FFAF46"/>
<path d="M601.996 320.869L599.627 296.913C599.477 295.381 598.354 294.12 596.845 293.79C595.337 293.46 593.787 294.136 593.007 295.465L580.8 316.234C580.02 317.561 578.471 318.237 576.964 317.907L553.384 312.748C551.875 312.417 550.324 313.092 549.543 314.42C548.762 315.749 548.928 317.428 549.954 318.579L565.992 336.572C567.017 337.723 567.184 339.401 566.403 340.73L555.534 359.218L602.779 322.728C602.34 322.198 602.068 321.552 601.996 320.869V320.869Z" fill="#FFD839"/>
<path d="M629.023 335.876C630.435 335.258 631.288 333.804 631.138 332.274C630.987 330.744 629.866 329.484 628.36 329.153L604.777 323.992C603.985 323.812 603.279 323.366 602.779 322.728L555.534 359.218L554.192 361.495C553.41 362.823 553.576 364.502 554.602 365.652C555.628 366.803 557.28 367.164 558.694 366.546L580.811 356.899C582.226 356.283 583.878 356.644 584.903 357.794L600.94 375.789C601.964 376.942 603.616 377.306 605.032 376.689C606.447 376.073 607.303 374.618 607.153 373.085L604.785 349.126C604.634 347.594 605.489 346.139 606.903 345.522L629.023 335.876Z" fill="#FFCD00"/>
</g>
<rect width="114.214" height="619.86" fill="white"/>
<defs>
<filter id="filter0_d" x="100.225" y="207.77" width="440.751" height="426.609" filterUnits="userSpaceOnUse" color-interpolation-filters="sRGB">
<feFlood flood-opacity="0" result="BackgroundImageFix"/>
<feColorMatrix in="SourceAlpha" type="matrix" values="0 0 0 0 0 0 0 0 0 0 0 0 0 0 0 0 0 0 127 0"/>
<feOffset/>
<feGaussianBlur stdDeviation="10"/>
<feColorMatrix type="matrix" values="0 0 0 0 0.3625 0 0 0 0 0.3625 0 0 0 0 0.3625 0 0 0 0.37 0"/>
<feBlend mode="normal" in2="BackgroundImageFix" result="effect1_dropShadow"/>
<feBlend mode="normal" in="SourceGraphic" in2="effect1_dropShadow" result="shape"/>
</filter>
<linearGradient id="paint0_linear" x1="320.601" y1="227.77" x2="320.601" y2="614.379" gradientUnits="userSpaceOnUse">
<stop stop-color="#20968A"/>
<stop offset="1" stop-color="#90D6A2"/>
</linearGradient>
<clipPath id="clip0">
<rect width="300.54" height="366.814" transform="matrix(0.986776 0.162091 -0.162684 0.986678 344.267 0)" fill="white"/>
</clipPath>
<clipPath id="clip1">
<rect x="170.319" y="245.752" width="300.563" height="299.697" fill="white"/>
</clipPath>
<clipPath id="clip2">
<rect width="100.127" height="99.9602" transform="matrix(0.888563 0.458755 -0.460847 0.88748 561.031 256.741)" fill="white"/>
</clipPath>
</defs>
</svg>
