<svg width="649" height="735" viewBox="0 0 649 735" fill="none" xmlns="http://www.w3.org/2000/svg">
<path d="M177.648 650.76C177.648 652.104 177.312 653.064 176.64 653.64C176.064 654.216 175.392 654.504 174.624 654.504C173.76 654.504 172.896 654.36 172.032 654.072C171.264 653.784 170.256 653.4 169.008 652.92L166.848 652.056C166.656 652.536 166.512 653.16 166.416 653.928C166.416 654.6 166.416 655.176 166.416 655.656C166.416 659.016 166.56 662.664 166.848 666.6C167.136 670.536 167.472 674.472 167.856 678.408C168.24 682.344 168.672 686.184 169.152 689.928C169.728 693.672 170.208 697.032 170.592 700.008C170.976 703.08 171.312 705.624 171.6 707.64C171.888 709.752 172.032 711.096 172.032 711.672V715.272C172.032 716.328 171.888 717.288 171.6 718.152C171.408 719.016 170.928 719.448 170.16 719.448C168.72 719.448 167.472 718.248 166.416 715.848C165.456 713.544 164.64 710.856 163.968 707.784C163.392 704.808 162.96 701.88 162.672 699C162.384 696.216 162.24 694.344 162.24 693.384C162.24 692.712 162.096 691.08 161.808 688.488C161.616 685.896 161.376 683.016 161.088 679.848C160.8 676.584 160.512 673.32 160.224 670.056C160.032 666.696 159.936 663.864 159.936 661.56C159.936 660.6 159.888 659.544 159.792 658.392C159.792 657.144 159.792 655.992 159.792 654.936V650.472C159.792 648.936 158.688 647.352 156.48 645.72C154.368 644.088 151.776 642.312 148.704 640.392C145.632 638.376 142.464 636.12 139.2 633.624C135.936 631.032 133.248 627.96 131.136 624.408C130.848 624.312 130.704 623.88 130.704 623.112C130.704 621.768 130.992 620.568 131.568 619.512C132.144 618.456 132.912 617.928 133.872 617.928C134.16 617.928 134.592 618.312 135.168 619.08C135.744 619.752 136.464 620.616 137.328 621.672C138.192 622.728 139.2 623.928 140.352 625.272C141.504 626.52 142.8 627.72 144.24 628.872C145.2 629.736 146.544 630.84 148.272 632.184C150 633.432 151.68 634.68 153.312 635.928C155.04 637.176 156.528 638.28 157.776 639.24C159.024 640.104 159.696 640.536 159.792 640.536C160.176 640.536 160.416 640.152 160.512 639.384C160.608 638.616 160.656 638.136 160.656 637.944L161.376 629.304C161.856 624.408 162.432 619.992 163.104 616.056C163.872 612.024 164.256 608.52 164.256 605.544C164.256 605.256 164.16 604.68 163.968 603.816C163.776 602.952 163.68 602.376 163.68 602.088C163.68 601.512 163.872 601.08 164.256 600.792C164.64 600.408 165.072 600.12 165.552 599.928C166.128 599.64 166.8 599.448 167.568 599.352C168.912 599.352 169.872 599.88 170.448 600.936C171.024 601.896 171.312 602.808 171.312 603.672C171.312 607.128 171.072 610.488 170.592 613.752C170.208 617.016 169.728 620.28 169.152 623.544C168.672 626.808 168.192 630.168 167.712 633.624C167.328 636.984 167.136 640.536 167.136 644.28C167.136 644.856 167.472 645.48 168.144 646.152C168.816 646.728 169.632 647.304 170.592 647.88C171.648 648.36 172.8 648.888 174.048 649.464C175.296 649.944 176.496 650.376 177.648 650.76ZM208.817 667.896C208.817 670.008 208.529 672.024 207.953 673.944C207.377 675.864 206.609 677.544 205.649 678.984C204.689 680.424 203.537 681.576 202.193 682.44C200.945 683.208 199.553 683.592 198.017 683.592C195.329 683.592 193.217 682.824 191.681 681.288C190.145 679.752 188.945 677.976 188.081 675.96C187.313 673.944 186.785 671.928 186.497 669.912C186.305 667.8 186.209 666.216 186.209 665.16C186.209 663.432 186.449 661.512 186.929 659.4C187.505 657.192 188.225 655.176 189.089 653.352C190.049 651.528 191.105 649.992 192.257 648.744C193.409 647.496 194.609 646.872 195.857 646.872C196.145 646.872 196.577 646.968 197.153 647.16C197.825 647.352 198.497 647.64 199.169 648.024C199.841 648.408 200.417 648.888 200.897 649.464C201.473 650.04 201.857 650.712 202.049 651.48C203.105 651.576 204.161 651.96 205.217 652.632C206.273 653.304 206.849 653.832 206.945 654.216C207.713 656.712 208.193 659.208 208.385 661.704C208.673 664.2 208.817 666.264 208.817 667.896ZM202.337 665.304C202.337 663.864 202.193 662.376 201.905 660.84C201.617 659.208 201.041 657.576 200.177 655.944C199.985 656.04 199.745 656.088 199.457 656.088C199.073 656.088 198.737 656.04 198.449 655.944C198.257 655.848 198.065 655.8 197.873 655.8C196.721 655.8 195.809 656.136 195.137 656.808C194.465 657.384 193.937 658.2 193.553 659.256C193.265 660.216 193.073 661.272 192.977 662.424C192.881 663.576 192.833 664.68 192.833 665.736C192.833 666.792 192.881 667.992 192.977 669.336C193.073 670.584 193.265 671.784 193.553 672.936C193.937 674.088 194.417 675.096 194.993 675.96C195.569 676.728 196.337 677.112 197.297 677.112C198.257 677.112 199.073 676.632 199.745 675.672C200.417 674.616 200.945 673.416 201.329 672.072C201.713 670.728 201.953 669.432 202.049 668.184C202.241 666.84 202.337 665.88 202.337 665.304ZM270.777 675.096C270.777 675.96 270.201 676.872 269.049 677.832C267.897 678.792 266.553 679.704 265.017 680.568C263.481 681.336 261.897 682.008 260.265 682.584C258.729 683.16 257.577 683.448 256.809 683.448C255.945 683.448 254.985 683.208 253.929 682.728C252.969 682.248 252.009 681.672 251.049 681C250.185 680.328 249.417 679.704 248.745 679.128C248.073 678.552 247.641 678.168 247.449 677.976C247.161 678.264 246.729 678.84 246.153 679.704C245.577 680.568 244.857 681.528 243.993 682.584C243.225 683.544 242.361 684.408 241.401 685.176C240.537 685.944 239.625 686.328 238.665 686.328C236.169 686.328 234.009 684.984 232.185 682.296C230.361 679.608 228.825 676.536 227.577 673.08C226.425 669.624 225.513 666.312 224.841 663.144C224.265 659.88 223.977 657.672 223.977 656.52C223.977 655.848 224.313 655.32 224.985 654.936C225.753 654.456 226.329 654.216 226.713 654.216C228.057 654.216 228.969 654.696 229.449 655.656C229.929 656.52 230.169 657.48 230.169 658.536C230.169 659.4 230.409 660.936 230.889 663.144C231.465 665.352 232.137 667.608 232.905 669.912C233.673 672.216 234.489 674.28 235.353 676.104C236.217 677.832 236.985 678.696 237.657 678.696C238.905 678.696 239.961 677.928 240.825 676.392C241.785 674.76 242.553 672.936 243.129 670.92C243.705 668.808 244.137 666.84 244.425 665.016C244.713 663.096 244.857 661.848 244.857 661.272C244.857 661.176 244.857 660.888 244.857 660.408C244.953 659.832 245.049 659.256 245.145 658.68C245.241 658.104 245.289 657.576 245.289 657.096C245.385 656.616 245.433 656.28 245.433 656.088C245.433 655.416 245.289 654.984 245.001 654.792C244.713 654.504 244.569 653.976 244.569 653.208C244.569 652.632 244.857 652.104 245.433 651.624C246.009 651.048 247.257 650.76 249.177 650.76C249.945 650.76 250.521 651 250.905 651.48C251.385 651.864 251.721 652.344 251.913 652.92C252.105 653.496 252.201 654.072 252.201 654.648C252.297 655.128 252.345 655.464 252.345 655.656C252.345 655.752 252.297 656.424 252.201 657.672C252.105 658.92 252.009 660.312 251.913 661.848C251.913 663.288 251.865 664.68 251.769 666.024C251.673 667.368 251.625 668.184 251.625 668.472C251.625 668.76 251.769 669.336 252.057 670.2C252.345 671.064 252.681 671.976 253.065 672.936C253.545 673.8 254.073 674.616 254.649 675.384C255.225 676.056 255.849 676.392 256.521 676.392C257.673 676.392 258.729 676.248 259.689 675.96C260.745 675.576 261.705 675.192 262.569 674.808C263.529 674.328 264.393 673.944 265.161 673.656C265.929 673.272 266.649 673.08 267.321 673.08C268.185 673.08 268.953 673.272 269.625 673.656C270.393 674.04 270.777 674.52 270.777 675.096ZM379.67 635.64C380.054 635.736 380.246 636.024 380.246 636.504C380.246 637.176 379.91 637.896 379.238 638.664C378.566 639.336 378.23 640.104 378.23 640.968C378.23 641.16 378.182 641.88 378.086 643.128C378.086 644.376 378.086 645.768 378.086 647.304C378.086 648.84 378.038 650.28 377.942 651.624C377.942 652.968 377.942 653.736 377.942 653.928V668.184C377.942 668.28 377.894 668.952 377.798 670.2C377.702 671.448 377.51 672.936 377.222 674.664C377.03 676.392 376.79 678.216 376.502 680.136C376.31 681.96 376.07 683.544 375.782 684.888C375.686 685.272 375.398 685.56 374.918 685.752C374.534 685.944 374.054 686.136 373.478 686.328C372.998 686.424 372.518 686.52 372.038 686.616C371.558 686.616 371.27 686.616 371.174 686.616C370.118 686.616 368.966 685.992 367.718 684.744C366.566 683.496 365.462 682.104 364.406 680.568C363.35 679.032 362.438 677.592 361.67 676.248C360.902 674.904 360.47 674.136 360.374 673.944C359.99 675.288 359.558 676.68 359.078 678.12C358.598 679.464 358.07 680.712 357.494 681.864C356.918 683.016 356.246 683.976 355.478 684.744C354.806 685.512 354.038 685.896 353.174 685.896C352.022 685.896 350.822 685.32 349.574 684.168C348.326 683.016 347.03 681.528 345.686 679.704C344.438 677.88 343.238 675.864 342.086 673.656C340.934 671.352 339.926 669.144 339.062 667.032C338.198 664.92 337.478 662.952 336.902 661.128C336.422 659.304 336.182 657.864 336.182 656.808C336.182 656.424 336.374 655.944 336.758 655.368C337.142 654.792 337.67 654.504 338.342 654.504C339.686 654.504 340.646 654.936 341.222 655.8C341.318 655.896 341.606 656.76 342.086 658.392C342.662 660.024 343.43 661.944 344.39 664.152C345.35 666.36 346.454 668.664 347.702 671.064C349.046 673.368 350.534 675.336 352.166 676.968C352.838 675.72 353.366 674.328 353.75 672.792C354.23 671.256 354.614 669.768 354.902 668.328C355.19 666.888 355.382 665.592 355.478 664.44C355.574 663.192 355.622 662.184 355.622 661.416C355.43 660.648 355.286 659.88 355.19 659.112C355.094 658.44 354.998 657.768 354.902 657.096C354.902 656.424 354.902 655.848 354.902 655.368C354.902 652.968 355.862 651.768 357.782 651.768C359.222 651.768 360.326 652.248 361.094 653.208C361.862 654.072 362.438 655.128 362.822 656.376C363.206 657.528 363.446 658.68 363.542 659.832C363.734 660.984 363.926 661.8 364.118 662.28C364.886 664.488 365.558 666.552 366.134 668.472C366.806 670.392 367.91 672.36 369.446 674.376C369.83 674.088 370.118 673.608 370.31 672.936C370.598 672.168 370.79 671.4 370.886 670.632C370.982 669.864 371.03 669.192 371.03 668.616C371.03 667.944 371.03 667.464 371.03 667.176V638.52C371.03 637.944 371.27 637.416 371.75 636.936C372.23 636.456 372.806 636.024 373.478 635.64C374.15 635.256 374.774 634.968 375.35 634.776C376.022 634.488 376.502 634.344 376.79 634.344C377.27 634.344 377.702 634.488 378.086 634.776C378.566 635.064 379.094 635.352 379.67 635.64ZM417.645 667.896C417.645 670.008 417.357 672.024 416.781 673.944C416.205 675.864 415.437 677.544 414.477 678.984C413.517 680.424 412.365 681.576 411.021 682.44C409.773 683.208 408.381 683.592 406.845 683.592C404.157 683.592 402.045 682.824 400.509 681.288C398.973 679.752 397.773 677.976 396.909 675.96C396.141 673.944 395.613 671.928 395.325 669.912C395.133 667.8 395.037 666.216 395.037 665.16C395.037 663.432 395.277 661.512 395.757 659.4C396.333 657.192 397.053 655.176 397.917 653.352C398.877 651.528 399.933 649.992 401.085 648.744C402.237 647.496 403.437 646.872 404.685 646.872C404.973 646.872 405.405 646.968 405.981 647.16C406.653 647.352 407.325 647.64 407.997 648.024C408.669 648.408 409.245 648.888 409.725 649.464C410.301 650.04 410.685 650.712 410.877 651.48C411.933 651.576 412.989 651.96 414.045 652.632C415.101 653.304 415.677 653.832 415.773 654.216C416.541 656.712 417.021 659.208 417.213 661.704C417.501 664.2 417.645 666.264 417.645 667.896ZM411.165 665.304C411.165 663.864 411.021 662.376 410.733 660.84C410.445 659.208 409.869 657.576 409.005 655.944C408.813 656.04 408.573 656.088 408.285 656.088C407.901 656.088 407.565 656.04 407.277 655.944C407.085 655.848 406.893 655.8 406.701 655.8C405.549 655.8 404.637 656.136 403.965 656.808C403.293 657.384 402.765 658.2 402.381 659.256C402.093 660.216 401.901 661.272 401.805 662.424C401.709 663.576 401.661 664.68 401.661 665.736C401.661 666.792 401.709 667.992 401.805 669.336C401.901 670.584 402.093 671.784 402.381 672.936C402.765 674.088 403.245 675.096 403.821 675.96C404.397 676.728 405.165 677.112 406.125 677.112C407.085 677.112 407.901 676.632 408.573 675.672C409.245 674.616 409.773 673.416 410.157 672.072C410.541 670.728 410.781 669.432 410.877 668.184C411.069 666.84 411.165 665.88 411.165 665.304ZM475.429 681.288C475.429 681.864 475.237 682.44 474.853 683.016C474.469 683.592 473.989 684.12 473.413 684.6C472.933 685.08 472.357 685.512 471.685 685.896C471.109 686.184 470.581 686.328 470.101 686.328C468.469 686.328 466.357 685.992 463.765 685.32C461.269 684.552 459.253 683.4 457.717 681.864C456.085 680.232 454.645 678.312 453.397 676.104C452.149 673.8 450.757 670.44 449.221 666.024C448.165 670.248 446.917 674.424 445.477 678.552C444.133 682.68 441.925 686.472 438.853 689.928C438.661 690.12 438.373 690.216 437.989 690.216C437.317 690.216 436.597 689.88 435.829 689.208C435.061 688.536 434.677 687.864 434.677 687.192C434.677 686.52 434.581 684.984 434.389 682.584C434.293 680.088 434.149 677.352 433.957 674.376C433.765 671.304 433.573 668.232 433.381 665.16C433.285 661.992 433.237 659.4 433.237 657.384C433.237 656.424 433.285 655.176 433.381 653.64C433.477 652.008 433.765 650.616 434.245 649.464C434.341 649.272 434.677 648.888 435.253 648.312C435.925 647.736 436.645 647.448 437.413 647.448C438.085 647.448 438.469 647.88 438.565 648.744C438.661 649.608 438.709 650.568 438.709 651.624V674.376C438.709 674.856 438.757 675.528 438.853 676.392C439.045 677.256 439.285 677.88 439.573 678.264C440.629 675.96 441.589 673.272 442.453 670.2C443.413 667.032 444.325 664.056 445.189 661.272C446.053 658.392 446.917 655.992 447.781 654.072C448.645 652.056 449.509 651.048 450.373 651.048C451.333 651.048 452.101 651.24 452.677 651.624C453.253 652.008 453.733 652.776 454.117 653.928C454.597 656.712 454.981 659.208 455.269 661.416C455.557 663.528 455.893 665.448 456.277 667.176C456.757 668.904 457.381 670.536 458.149 672.072C459.013 673.512 460.165 674.856 461.605 676.104C462.949 677.352 464.437 678.264 466.069 678.84C467.797 679.416 469.285 679.704 470.533 679.704C471.109 679.704 471.733 679.608 472.405 679.416C473.077 679.128 473.557 678.984 473.845 678.984C474.229 678.984 474.565 679.32 474.853 679.992C475.237 680.664 475.429 681.096 475.429 681.288ZM498.694 629.448C498.694 630.312 498.262 632.184 497.398 635.064C496.534 637.944 495.574 641.16 494.518 644.712C493.558 648.168 492.646 651.576 491.782 654.936C491.014 658.296 490.63 660.936 490.63 662.856C490.63 664.872 490.726 666.552 490.918 667.896C491.11 669.144 491.302 670.2 491.494 671.064C491.782 671.928 492.022 672.696 492.214 673.368C492.406 673.944 492.502 674.664 492.502 675.528C492.502 677.448 491.638 678.408 489.91 678.408C489.622 678.408 489.334 678.216 489.046 677.832C486.934 674.76 485.638 671.736 485.158 668.76C484.774 665.784 484.582 663.48 484.582 661.848C484.582 659.832 484.87 657.24 485.446 654.072C486.022 650.808 486.742 647.4 487.606 643.848C488.47 640.2 489.43 636.6 490.486 633.048C491.638 629.4 492.742 626.232 493.798 623.544C493.99 623.352 494.23 623.16 494.518 622.968C494.806 622.776 495.19 622.68 495.67 622.68C496.342 622.68 496.87 622.968 497.254 623.544C497.638 624.024 497.926 624.648 498.118 625.416C498.31 626.088 498.454 626.808 498.55 627.576C498.646 628.344 498.694 628.968 498.694 629.448ZM503.446 694.104C503.446 695.16 503.11 696.264 502.438 697.416C501.862 698.472 501.094 699 500.134 699C498.886 699 497.686 698.376 496.534 697.128C495.478 695.88 494.95 694.44 494.95 692.808C494.95 692.232 495.046 691.512 495.238 690.648C495.526 689.688 496.15 689.208 497.11 689.208C497.494 689.208 498.022 689.256 498.694 689.352C499.366 689.448 500.038 689.688 500.71 690.072C501.478 690.36 502.102 690.84 502.582 691.512C503.158 692.184 503.446 693.048 503.446 694.104Z" fill="black"/>
<g filter="url(#filter0_d)">
<ellipse cx="320" cy="421.17" rx="200" ry="193.348" fill="url(#paint0_linear)"/>
</g>
<ellipse cx="319" cy="548.07" rx="83" ry="17.4863" fill="#35925D"/>
<g clip-path="url(#clip0)">
<path d="M449.299 341.905C458.381 328.669 461.661 311.225 458.033 295.45L454.292 278.99L452.1 271.156L442.979 276.552L444.573 282.936L448.345 299.395C451.084 311.321 448.606 324.505 441.744 334.515C431.944 348.847 428.967 367.972 433.957 384.541L434.636 386.79L446.14 388.683L443.439 379.725C439.66 367.205 441.9 352.748 449.299 341.905Z" fill="#A2A9B0"/>
<path d="M452.937 259.514L375.771 125.481C359.198 96.679 365.978 55.5277 390.914 33.5674C392.415 32.2444 393.966 31.0094 395.56 29.8666C422.017 10.88 454.822 20.4885 468.832 51.3283C468.964 51.6197 469.095 51.913 469.224 52.2076L482.172 81.8697L503.944 57.9216C526.793 32.7791 560.996 33.5275 580.34 59.5931C580.531 59.8499 580.72 60.1087 580.907 60.3695C599.89 86.8304 596.51 128.331 573.357 153.061C571.962 154.551 570.512 155.96 569.011 157.283L452.937 259.514Z" fill="#FC88A1"/>
<path d="M452.937 259.514L434.608 278.526L464.207 283.398L452.937 259.514Z" fill="#FC88A1"/>
<path d="M415.097 47.5445L416.721 59.4117C419.515 58.6376 422.369 58.4776 425.144 58.9389L427.13 46.8727C423.166 46.218 419.089 46.4455 415.097 47.5445Z" fill="#FCBDCB"/>
<path d="M407.544 64.4945L401.973 54.8157C386.583 68.4001 382.401 93.8115 392.626 111.611L400.506 125.301L408.886 117.918L401.005 104.228C393.86 91.7734 396.784 74.0029 407.544 64.4945Z" fill="#FCBDCB"/>
<path d="M580.907 60.3695C574.654 51.6467 566.426 45.3285 557.119 42.1037C518.221 139.487 460.331 182.104 419.051 200.641L452.938 259.508L568.986 157.279C593.92 135.315 600.695 94.1632 584.119 65.3636C583.121 63.6301 582.049 61.9634 580.907 60.3695Z" fill="#FC7B97"/>
<path d="M584.804 56.2147C564.074 27.2806 526.748 25.7192 501.433 52.7278C501.186 52.9915 500.94 53.2577 500.695 53.5266L483.773 72.1504L473.709 49.0977C458.866 15.0576 423.193 3.83995 394.031 24.0436C364.869 44.2472 353.26 88.2202 368.103 122.26C369.146 124.653 370.308 126.961 371.582 129.173L446.187 258.757L431.48 274.015C429.306 276.275 428.946 280.125 430.678 282.614C431.415 283.674 432.455 284.361 433.616 284.554L445.367 286.487L448.315 299.365C451.054 311.291 448.576 324.476 441.714 334.485C431.914 348.818 428.937 367.942 433.927 384.511L434.606 386.76L446.11 388.654L443.41 379.695C439.638 367.17 441.887 352.714 449.293 341.88C458.376 328.643 461.656 311.2 458.028 295.424L456.392 288.277L463.22 289.401C465.945 289.845 468.596 287.505 469.142 284.173C469.374 282.753 469.19 281.311 468.621 280.102L459.579 260.936L571.773 162.119C599.022 138.112 606.425 93.1364 588.307 61.6617C587.219 59.7709 586.05 57.9534 584.804 56.2147ZM446.218 274.234L451.395 268.89L454.585 275.611L446.218 274.234ZM566.196 152.439L454.342 250.984L379.966 121.791C364.922 95.6714 371.058 58.338 393.672 38.4037C395.035 37.2014 396.443 36.0791 397.891 35.0401C407.884 27.8236 419.417 24.8808 430.518 26.7154C432.28 27.0084 434.021 27.415 435.735 27.9333C448.329 31.6968 458.797 41.5749 464.755 55.3202L477.7 84.9754C479.11 87.8907 482.287 88.7139 484.793 86.8136C485.018 86.6437 485.232 86.4544 485.435 86.2484L507.181 62.3023C527.928 39.5103 558.961 40.2232 576.494 63.8949C594.028 87.5665 591.422 125.232 570.674 148.024C569.247 149.593 567.751 151.067 566.196 152.439Z" fill="black"/>
<path d="M416.721 59.4116C419.515 58.6375 422.369 58.4775 425.144 58.9388L427.13 46.8726C423.165 46.2171 419.088 46.4455 415.097 47.5445L416.721 59.4116Z" fill="black"/>
<path d="M407.544 64.4945L401.973 54.8157C386.583 68.4001 382.401 93.8115 392.626 111.611L400.506 125.301L408.886 117.918L401.005 104.228C393.86 91.7734 396.784 74.0029 407.544 64.4945Z" fill="black"/>
</g>
<path d="M149.796 285.535C150.315 286.701 151.624 287.416 153.101 287.343L169.97 286.503C170.76 286.464 171.009 287.365 170.304 287.723C166.307 289.751 158.898 293.511 155.228 295.373C153.909 296.042 153.137 297.309 153.266 298.577L156.069 326.147C156.146 326.905 154.912 327.233 154.602 326.537L143.335 301.216C142.816 300.051 141.516 299.334 140.038 299.408C135.928 299.613 127.628 300.026 123.151 300.249C122.361 300.288 122.121 299.386 122.826 299.029C126.823 297 134.233 293.24 137.903 291.378C139.222 290.709 139.994 289.442 139.865 288.174L137.061 260.604C136.984 259.845 138.217 259.516 138.527 260.212C142.034 268.093 149.102 283.976 149.796 285.535Z" fill="#FFC850"/>
<path d="M177.813 248.554C176.83 248.611 175.964 248.16 175.627 247.416C174.225 244.319 170.52 236.136 168.462 231.591C168.227 231.072 167.308 231.318 167.362 231.885L169.006 249.174C169.084 249.988 168.562 250.806 167.681 251.244C165.321 252.418 160.646 254.742 157.916 256.099C157.381 256.365 157.563 257.049 158.16 257.015C161.203 256.838 166.416 256.536 169.048 256.383C170.031 256.326 170.89 256.777 171.227 257.522L178.371 273.299C178.61 273.825 179.543 273.577 179.488 273.002L177.848 255.763C177.771 254.949 178.292 254.131 179.174 253.693C181.532 252.521 186.201 250.199 188.931 248.842C189.468 248.575 189.278 247.889 188.679 247.924L177.813 248.554Z" fill="#FFDC64"/>
<g clip-path="url(#clip1)">
<path d="M381.426 429.53L366.346 383.233L366.109 383.312C366.314 383.24 386.901 375.884 413.372 351.003C423.172 341.79 438.591 342.26 447.81 352.054C457.029 361.847 456.558 377.254 446.758 386.466C412.263 418.889 384.481 428.537 381.426 429.53Z" fill="#7CB777"/>
<path d="M258.575 429.53L273.656 383.233L273.893 383.312C273.688 383.24 253.1 375.884 226.63 351.003C216.83 341.79 201.411 342.26 192.192 352.054C182.973 361.847 183.444 377.254 193.244 386.466C227.739 418.889 255.521 428.537 258.575 429.53Z" fill="#7CB777"/>
<path d="M221.353 347.229C221.425 348.596 221.514 349.963 221.643 351.328L227.479 413.566C244.734 424.78 256.637 428.9 258.576 429.531L273.656 383.233L273.894 383.312C273.688 383.241 253.101 375.884 226.631 351.003C225.008 349.478 223.23 348.224 221.353 347.229Z" fill="#35925D"/>
<path d="M418.36 351.328C418.488 349.963 418.577 348.596 418.649 347.229C416.772 348.225 414.994 349.478 413.372 351.003C386.902 375.884 366.314 383.241 366.109 383.312L366.347 383.233L381.427 429.531C383.366 428.9 395.268 424.78 412.524 413.566L418.36 351.328Z" fill="#35925D"/>
<path d="M369.859 277.305C356.072 266.655 338.777 260.318 320.001 260.318C301.225 260.318 283.93 266.655 270.142 277.305C248.02 294.393 236.536 321.872 239.144 349.69L247.58 439.666L320.001 456.15L392.421 439.666L400.858 349.69C403.466 321.872 391.982 294.393 369.859 277.305Z" fill="#7CB777"/>
<path d="M383.385 274.221C382.301 272.232 381.936 269.931 382.352 267.705C383.622 260.904 377.663 254.95 370.858 256.219C368.63 256.635 366.327 256.27 364.336 255.187C358.257 251.879 350.747 255.701 349.853 262.561C349.56 264.806 348.501 266.883 346.855 268.439C341.827 273.195 343.145 281.512 349.398 284.482C351.445 285.454 353.093 287.102 354.067 289.147C357.039 295.395 365.363 296.712 370.122 291.688C371.68 290.043 373.758 288.985 376.005 288.693C382.87 287.799 386.696 280.296 383.385 274.221Z" fill="#FF98C5"/>
<path d="M320.001 456.15L240.311 472.635L250.054 522.532C252.169 533.363 261.666 541.18 272.71 541.18L367.292 541.18C378.336 541.18 387.833 533.364 389.948 522.532L399.691 472.635L320.001 456.15Z" fill="#FD6F71"/>
<path d="M273.492 522.532L263.749 472.636L331.72 458.575L320.001 456.15L240.311 472.635L250.054 522.532C252.169 533.363 261.666 541.18 272.71 541.18L296.147 541.18C285.103 541.18 275.606 533.364 273.492 522.532Z" fill="#E34B4C"/>
<path d="M399.691 439.666L240.311 439.666C235.22 439.666 231.093 443.789 231.093 448.876L231.093 463.425C231.093 468.512 235.22 472.636 240.311 472.636L399.691 472.636C404.782 472.636 408.909 468.512 408.909 463.425L408.909 448.876C408.909 443.789 404.782 439.666 399.691 439.666Z" fill="#EFEDEE"/>
<path d="M254.531 463.425L254.531 448.876C254.531 443.789 258.658 439.666 263.749 439.666L240.311 439.666C235.221 439.666 231.094 443.789 231.094 448.876L231.094 463.425C231.094 468.512 235.221 472.635 240.311 472.635L263.749 472.635C258.658 472.635 254.531 468.511 254.531 463.425Z" fill="#D2D2D2"/>
<path d="M277.501 348.305C275.074 348.305 273.106 350.271 273.106 352.696L273.106 360.38C273.106 362.805 275.074 364.771 277.501 364.771C279.928 364.771 281.895 362.805 281.895 360.38L281.895 352.696C281.895 350.271 279.928 348.305 277.501 348.305Z" fill="black"/>
<path d="M362.488 364.772C364.915 364.772 366.882 362.806 366.882 360.381L366.882 352.697C366.882 350.271 364.915 348.305 362.488 348.305C360.061 348.305 358.093 350.271 358.093 352.697L358.093 360.381C358.093 362.805 360.061 364.772 362.488 364.772Z" fill="black"/>
<path d="M319.994 368.874C325.349 368.874 330.378 366.637 333.79 362.736C335.388 360.91 335.201 358.137 333.374 356.54C331.546 354.944 328.77 355.13 327.173 356.956C325.43 358.948 322.813 360.091 319.994 360.091C317.174 360.091 314.558 358.948 312.815 356.956C311.218 355.13 308.442 354.944 306.614 356.54C304.786 358.136 304.6 360.91 306.197 362.736C309.61 366.636 314.638 368.874 319.994 368.874Z" fill="black"/>
<path d="M364.175 281.586C368.161 281.586 371.393 278.357 371.393 274.374C371.393 270.39 368.161 267.161 364.175 267.161C360.188 267.161 356.956 270.39 356.956 274.374C356.956 278.357 360.188 281.586 364.175 281.586Z" fill="black"/>
<path d="M458.802 369.612C459.037 361.939 456.267 354.636 451.005 349.045C445.592 343.296 437.956 339.999 430.054 339.999C422.705 339.999 415.709 342.771 410.353 347.805C408.586 349.466 406.791 351.082 404.985 352.668L405.226 350.099C406.492 336.595 404.586 323.126 399.865 310.765L405.934 308.246C408.176 307.316 409.238 304.746 408.307 302.506C407.377 300.267 404.805 299.205 402.563 300.136L396.317 302.728C393.552 297.239 390.196 292.042 386.284 287.242C386.704 286.659 387.088 286.045 387.419 285.394C389.554 281.208 389.485 276.246 387.237 272.121C386.638 271.022 386.434 269.74 386.664 268.511C387.445 264.336 386.337 260.072 383.627 256.812C380.904 253.536 376.919 251.657 372.693 251.657C370.519 251.657 368.481 252.448 366.43 251.331C364.335 250.191 361.983 249.588 359.628 249.588C353.21 249.588 347.661 253.905 345.933 259.915C338.954 257.708 331.74 256.41 324.387 256.041L324.387 250.198C324.387 247.773 322.42 245.807 319.993 245.807C317.566 245.807 315.598 247.773 315.598 250.198L315.598 256.04C302.318 256.699 289.618 260.343 278.164 266.748L274.854 261.294C273.596 259.22 270.893 258.559 268.818 259.817C266.742 261.075 266.081 263.775 267.339 265.849L270.723 271.424C269.617 272.199 268.523 273 267.446 273.832C257.5 281.514 249.355 291.426 243.656 302.723L237.423 300.136C235.182 299.207 232.609 300.268 231.679 302.507C230.748 304.747 231.81 307.317 234.052 308.247L240.112 310.762C235.361 323.215 233.508 336.744 234.76 350.1L235.001 352.668C233.196 351.083 231.401 349.467 229.633 347.805C224.278 342.772 217.282 339.999 209.933 339.999C202.031 339.999 194.394 343.297 188.982 349.046C178.118 360.587 178.675 378.808 190.225 389.664C211.051 409.24 229.522 420.71 241.979 427.083L242.747 435.275L240.302 435.275C232.797 435.275 226.691 441.376 226.691 448.876L226.691 463.425C226.691 469.636 230.879 474.883 236.581 476.506L245.733 523.373C248.244 536.236 259.587 545.572 272.702 545.572L367.284 545.572C380.4 545.572 391.742 536.236 394.254 523.373L403.405 476.506C409.107 474.883 413.295 469.636 413.295 463.425L413.295 448.876C413.295 441.376 407.189 435.275 399.684 435.275L397.24 435.275L398.008 427.083C410.464 420.71 428.936 409.24 449.762 389.664C455.357 384.405 458.567 377.284 458.802 369.612ZM359.63 258.37C360.533 258.37 361.407 258.597 362.228 259.044C365.082 260.596 368.464 261.132 371.658 260.536C375.377 259.842 378.716 263.205 378.026 266.899C377.427 270.108 377.957 273.455 379.52 276.322C380.394 277.926 380.42 279.779 379.589 281.406C378.791 282.971 377.232 284.085 375.491 284.327C372.233 284.78 369.193 286.275 366.924 288.67C364.972 290.73 361.606 290.93 359.435 289.093C358.514 288.314 358.055 287.2 357.458 286.183C356.03 283.75 353.831 281.728 351.279 280.517C349.628 279.733 348.517 278.248 348.231 276.443C347.949 274.668 348.563 272.864 349.87 271.628C352.229 269.398 353.785 266.346 354.204 263.128C354.607 260.038 357.3 258.37 359.63 258.37ZM196.248 383.267C188.228 375.729 187.841 363.076 195.386 355.063C199.199 351.012 204.366 348.781 209.934 348.781C215.037 348.781 219.894 350.706 223.613 354.202C227.71 358.053 231.928 361.729 236.173 365.148L240.997 416.604C229.37 410.141 213.703 399.674 196.248 383.267ZM292.855 444.057L399.684 444.057C402.343 444.057 404.506 446.218 404.506 448.876L404.506 463.425C404.506 466.083 402.343 468.244 399.684 468.244L369.027 468.244C366.6 468.244 364.632 470.211 364.632 472.636C364.632 475.061 366.6 477.027 369.027 477.027L394.349 477.027L385.628 521.692C383.92 530.44 376.205 536.789 367.285 536.789L272.703 536.789C263.783 536.789 256.068 530.44 254.36 521.691L245.639 477.026L351.449 477.026C353.876 477.026 355.843 475.06 355.843 472.635C355.843 470.21 353.876 468.244 351.449 468.244L240.304 468.244C237.645 468.244 235.481 466.082 235.481 463.425L235.481 448.875C235.481 446.218 237.645 444.056 240.304 444.056L275.277 444.056C277.704 444.056 279.671 442.09 279.671 439.665C279.671 437.24 277.704 435.274 275.277 435.274L251.576 435.274C251.576 435.274 250.504 423.844 250.504 423.843L244.811 363.12L243.513 349.28C242.394 337.347 244.03 325.265 248.235 314.131L252.759 316.008C254.971 316.926 257.583 315.848 258.503 313.638C259.434 311.398 258.372 308.828 256.13 307.898L251.804 306.103C256.898 296.211 264.083 287.53 272.823 280.779C273.636 280.151 274.461 279.542 275.293 278.95C275.293 278.95 277.842 283.149 277.845 283.152C279.086 285.198 281.835 285.87 283.881 284.63C285.956 283.373 286.618 280.672 285.359 278.598L282.733 274.271C292.81 268.693 303.95 265.489 315.6 264.844L315.6 270.436C315.6 272.861 317.567 274.827 319.994 274.827C322.421 274.827 324.389 272.861 324.389 270.436L324.389 264.842C330.279 265.172 336.071 266.154 341.696 267.799C341.686 267.814 341.679 267.83 341.669 267.846C339.778 270.748 339.008 274.395 339.55 277.817C340.285 282.457 343.26 286.43 347.505 288.447C348.63 288.981 349.557 289.909 350.092 291.032C352.292 295.656 357.084 298.863 362.206 299.132C366.32 299.348 370.459 297.706 373.295 294.719C373.299 294.715 373.304 294.711 373.308 294.707C374.139 293.817 375.333 293.208 376.567 293.048C377.459 292.932 378.347 292.735 379.202 292.452C382.69 296.682 385.688 301.266 388.178 306.107L383.86 307.899C381.618 308.828 380.556 311.398 381.487 313.638C382.404 315.845 385.028 316.923 387.231 316.009L391.746 314.135C395.925 325.184 397.609 337.214 396.477 349.28L395.24 362.471C395.24 362.471 389.485 423.843 389.485 423.845L388.414 435.275L292.855 435.275C290.428 435.275 288.461 437.241 288.461 439.666C288.461 442.091 290.428 444.057 292.855 444.057ZM443.74 383.267C426.286 399.673 410.619 410.14 398.991 416.604L403.816 365.147C408.063 361.726 412.281 358.05 416.376 354.201C420.095 350.706 424.952 348.781 430.054 348.781C435.622 348.781 440.789 351.012 444.603 355.062C448.257 358.944 450.18 364.016 450.017 369.343C449.854 374.671 447.625 379.616 443.74 383.267Z" fill="black"/>
</g>
<path d="M207.741 294.189C206.954 294.232 206.26 293.864 205.987 293.258C204.916 290.877 202.181 284.796 200.481 281.017C200.248 280.498 199.332 280.751 199.387 281.318L200.691 294.665C200.755 295.326 200.34 295.988 199.635 296.341C197.857 297.232 194.435 298.947 192.221 300.056C191.688 300.323 191.869 301.004 192.464 300.971C194.937 300.836 198.76 300.625 200.746 300.516C201.533 300.473 202.223 300.842 202.495 301.447L207.997 313.679C208.23 314.198 209.15 313.954 209.095 313.387L207.792 300.04C207.727 299.38 208.142 298.717 208.847 298.364C210.625 297.473 214.048 295.759 216.261 294.65C216.794 294.383 216.606 293.702 216.011 293.735L207.741 294.189Z" fill="#FFF082"/>
<path d="M156.069 326.147L153.599 301.857C147.698 295.945 142.78 289.491 139.525 284.83L139.865 288.173C139.994 289.442 139.222 290.708 137.903 291.378C134.234 293.24 126.824 297 122.827 299.028C122.121 299.386 122.361 300.288 123.151 300.249C127.628 300.026 135.928 299.613 140.039 299.408C141.517 299.334 142.816 300.05 143.335 301.216L154.602 326.536C154.912 327.233 156.147 326.905 156.069 326.147Z" fill="#EBAF4B"/>
<path d="M168.859 247.622L169.006 249.175C169.084 249.988 168.562 250.806 167.681 251.244C165.321 252.418 160.645 254.742 157.916 256.099C157.381 256.366 157.562 257.049 158.16 257.015C161.203 256.838 166.416 256.536 169.048 256.383C170.031 256.326 170.89 256.777 171.227 257.522L178.371 273.299C178.61 273.825 179.543 273.577 179.488 273.002L178.021 257.575C173.748 254.498 170.763 250.677 168.859 247.622Z" fill="#FFC850"/>
<path d="M202.495 301.447L207.997 313.679C208.23 314.198 209.151 313.954 209.095 313.387L207.874 300.88C204.179 298.879 201.878 295.926 200.608 293.818L200.691 294.665C200.756 295.326 200.34 295.988 199.636 296.341C197.858 297.232 194.435 298.947 192.221 300.056C191.688 300.323 191.869 301.004 192.465 300.971C194.937 300.836 198.76 300.626 200.747 300.517C201.533 300.473 202.223 300.842 202.495 301.447Z" fill="#FFDC64"/>
<g clip-path="url(#clip2)">
<path d="M636.916 304.124C636.347 303.605 636.176 302.78 636.493 302.079L637.155 300.62C637.469 299.92 637.296 299.097 636.726 298.58C636.158 298.064 635.321 297.972 634.653 298.351L633.264 299.141C632.593 299.523 631.752 299.429 631.184 298.907L630.005 297.831C629.435 297.307 628.591 297.211 627.919 297.595C627.246 297.978 626.898 298.752 627.06 299.509L627.38 301.076C627.499 301.664 627.31 302.271 626.878 302.689L637.419 304.584L636.916 304.124Z" fill="#FFE165"/>
<path d="M638.097 305.198L637.417 304.577L626.888 302.671C626.784 302.784 626.665 302.883 626.536 302.966L625.147 303.754C624.476 304.134 624.127 304.904 624.283 305.66C624.44 306.415 625.066 306.984 625.834 307.066L627.421 307.242C628.186 307.326 628.811 307.891 628.968 308.644L629.289 310.21C629.444 310.964 630.067 311.532 630.833 311.618C631.598 311.703 632.332 311.287 632.65 310.586L633.312 309.128C633.629 308.427 634.363 308.01 635.128 308.095L636.715 308.272C637.476 308.347 638.201 307.929 638.514 307.233C638.827 306.535 638.66 305.716 638.097 305.198Z" fill="#FFD839"/>
<path d="M584.695 279.647C585.407 279.343 585.84 278.613 585.765 277.842C585.691 277.072 585.125 276.438 584.367 276.277L576.679 274.598C576.446 274.542 576.227 274.438 576.037 274.293L558.321 286.47L557.38 288.078C556.99 288.742 557.072 289.582 557.584 290.157C558.096 290.733 558.921 290.914 559.627 290.604L566.835 287.453C567.54 287.148 568.364 287.332 568.873 287.908L574.101 293.784C574.611 294.362 575.437 294.546 576.145 294.237C576.853 293.93 577.281 293.2 577.203 292.432L576.424 284.596C576.349 283.83 576.775 283.102 577.481 282.793L584.695 279.647Z" fill="#FF9811"/>
<path d="M575.288 273.04L574.517 265.217C574.436 264.456 573.877 263.834 573.13 263.671C572.383 263.507 571.615 263.838 571.223 264.494L567.236 271.275C566.847 271.94 566.073 272.278 565.321 272.113L557.638 270.425C556.885 270.259 556.111 270.597 555.721 271.261C555.331 271.925 555.414 272.765 555.927 273.34L561.153 279.216C561.665 279.791 561.748 280.631 561.358 281.295L558.321 286.47L576.031 274.29C575.615 274 575.345 273.544 575.288 273.04Z" fill="#FFAF46"/>
<path d="M600.868 320.941L598.504 296.98C598.354 295.447 597.233 294.186 595.727 293.856C594.221 293.526 592.675 294.203 591.896 295.532L579.712 316.305C578.934 317.632 577.387 318.308 575.884 317.979L552.347 312.819C550.841 312.487 549.293 313.162 548.513 314.491C547.734 315.82 547.899 317.5 548.924 318.651L564.931 336.648C565.955 337.799 566.122 339.478 565.342 340.806L554.494 359.299L601.65 322.8C601.212 322.271 600.94 321.624 600.868 320.941V320.941Z" fill="#FFD839"/>
<path d="M627.844 335.951C629.254 335.333 630.106 333.88 629.955 332.349C629.805 330.819 628.686 329.558 627.183 329.227L603.644 324.065C602.853 323.885 602.149 323.439 601.65 322.8L554.494 359.299L553.154 361.576C552.374 362.905 552.539 364.584 553.563 365.735C554.588 366.885 556.236 367.247 557.648 366.629L579.723 356.98C581.135 356.363 582.784 356.725 583.807 357.874L599.814 375.874C600.836 377.027 602.486 377.391 603.898 376.774C605.311 376.158 606.165 374.703 606.015 373.169L603.652 349.204C603.501 347.673 604.355 346.217 605.766 345.6L627.844 335.951Z" fill="#FFCD00"/>
</g>
<rect width="114" height="620" fill="white"/>
<defs>
<filter id="filter0_d" x="100" y="207.821" width="440" height="426.697" filterUnits="userSpaceOnUse" color-interpolation-filters="sRGB">
<feFlood flood-opacity="0" result="BackgroundImageFix"/>
<feColorMatrix in="SourceAlpha" type="matrix" values="0 0 0 0 0 0 0 0 0 0 0 0 0 0 0 0 0 0 127 0"/>
<feOffset/>
<feGaussianBlur stdDeviation="10"/>
<feColorMatrix type="matrix" values="0 0 0 0 0.3625 0 0 0 0 0.3625 0 0 0 0 0.3625 0 0 0 0.37 0"/>
<feBlend mode="normal" in2="BackgroundImageFix" result="effect1_dropShadow"/>
<feBlend mode="normal" in="SourceGraphic" in2="effect1_dropShadow" result="shape"/>
</filter>
<linearGradient id="paint0_linear" x1="320" y1="227.821" x2="320" y2="614.518" gradientUnits="userSpaceOnUse">
<stop stop-color="#20968A"/>
<stop offset="1" stop-color="#90D6A2"/>
</linearGradient>
<clipPath id="clip0">
<rect x="343.622" width="299.994" height="366.877" transform="rotate(9.34551 343.622 0)" fill="white"/>
</clipPath>
<clipPath id="clip1">
<rect x="170" y="245.807" width="300" height="299.765" fill="white"/>
</clipPath>
<clipPath id="clip2">
<rect width="99.9834" height="99.9382" transform="matrix(0.88817 0.459516 -0.460085 0.887875 559.98 256.799)" fill="white"/>
</clipPath>
</defs>
</svg>
